<?xml version="1.0" encoding="UTF-8"?>
<svg id="uuid-3a57cb39-d7fb-4733-a69d-0bdc8a9bc10e" data-name="Layer 1" xmlns="http://www.w3.org/2000/svg" viewBox="0 0 100 100">
  <defs>
    <style>
      .uuid-e9deb35f-1d82-4b5a-b81a-c770b9590611 {
        fill: #fed429;
      }

      .uuid-16d3fdfb-9a97-49fb-9ec7-a45944edbd0d {
        fill: #662314;
      }

      .uuid-5a6972c1-0617-433a-97f1-159bbfe3c1e2 {
        fill: #2a2f33;
      }

      .uuid-0530ebbe-aa4c-4585-b00f-4963e3f4bd2b {
        fill: #e95a6f;
      }

      .uuid-391ba7f3-3e56-4f28-89b9-b02a0eb5481b {
        fill: #fede00;
      }

      .uuid-58de7657-187b-4e4a-b9ba-90ef59c83d78 {
        fill: #dd2e26;
      }
    </style>
  </defs>
  <path class="uuid-0530ebbe-aa4c-4585-b00f-4963e3f4bd2b" d="m20.15,9.88c-6.1-3.57-12.39-5.86-13.51-5.19-1.6.95-3.05,14.07-.99,23.27,3.58-6.99,8.56-13.18,14.5-18.07Zm74.19,18.07c2.06-9.2.62-22.32-.99-23.27-1.12-.66-7.42,1.63-13.52,5.19,5.95,4.9,10.92,11.09,14.5,18.07Z"/>
  <g>
    <path class="uuid-e9deb35f-1d82-4b5a-b81a-c770b9590611" d="m50,0c-.22,0-.43,0-.65,0h1.29c-.22,0-.43,0-.65,0Z"/>
    <path class="uuid-e9deb35f-1d82-4b5a-b81a-c770b9590611" d="m50,100c.22,0,.43,0,.65,0h-1.29c.22,0,.43,0,.65,0Z"/>
    <path class="uuid-58de7657-187b-4e4a-b9ba-90ef59c83d78" d="m100,50C100,22.6,77.96.35,50.65,0h-1.29C31.88.23,16.57,9.41,7.8,23.18l3.47,9.99,10.87.22-8.66,6.57,3.15,10.41-8.93-6.21L0,49.5c0,.17,0,.33,0,.5,0,27.4,22.04,49.65,49.35,49.99h1.29c27.31-.35,49.35-22.6,49.35-49.99Zm-72.05,8.1l-.55,3.09-1.48-2.77-3.11.43,2.18-2.27-1.37-2.83,2.83,1.37,2.27-2.18-.43,3.11,2.77,1.48-3.09.55Zm0-38.46l-.55,3.09-1.48-2.77-3.11.43,2.18-2.26-1.37-2.83,2.83,1.37,2.27-2.18-.43,3.11,2.77,1.48-3.09.55Zm12.49,29.44l-2.58-1.8-2.58,1.8.91-3.01-2.5-1.9,3.14-.07,1.03-2.97,1.03,2.97,3.14.07-2.5,1.9.91,3.01Zm-1.2-17.81l-1.48,2.77-.55-3.1-3.1-.55,2.77-1.48-.43-3.11,2.27,2.18,2.83-1.37-1.37,2.83,2.18,2.27-3.11-.43Z"/>
    <path class="uuid-58de7657-187b-4e4a-b9ba-90ef59c83d78" d="m1.14,39.36c-.45,2.07-.77,4.18-.95,6.33l1.74-5.74-.78-.59Z"/>
    <path class="uuid-58de7657-187b-4e4a-b9ba-90ef59c83d78" d="m7.35,23.9c-1.79,2.91-3.28,6.02-4.45,9.29l1.23-.03,3.22-9.27Z"/>
    <path class="uuid-391ba7f3-3e56-4f28-89b9-b02a0eb5481b" d="m7.35,23.9c.15-.24.3-.48.45-.72l-.1-.29-.35,1.01Z"/>
    <polygon class="uuid-391ba7f3-3e56-4f28-89b9-b02a0eb5481b" points="28.7 52.95 26.43 55.13 23.6 53.76 24.97 56.59 22.8 58.85 25.91 58.43 27.4 61.19 27.95 58.1 31.04 57.55 28.27 56.06 28.7 52.95"/>
    <polygon class="uuid-391ba7f3-3e56-4f28-89b9-b02a0eb5481b" points="28.7 14.49 26.43 16.67 23.6 15.3 24.97 18.13 22.8 20.4 25.91 19.97 27.4 22.74 27.95 19.65 31.04 19.09 28.27 17.61 28.7 14.49"/>
    <path class="uuid-391ba7f3-3e56-4f28-89b9-b02a0eb5481b" d="m4.13,33.16l-1.23.03c-.71,2-1.3,4.06-1.76,6.17l.78.59-1.74,5.74c-.11,1.26-.17,2.53-.18,3.81l7.69-5.35,8.93,6.21-3.15-10.41,8.66-6.57-10.87-.22-3.47-9.99c-.15.24-.3.48-.45.72l-3.22,9.27Z"/>
    <polygon class="uuid-391ba7f3-3e56-4f28-89b9-b02a0eb5481b" points="38.89 44.11 37.86 41.14 36.83 44.11 33.69 44.18 36.19 46.07 35.28 49.08 37.86 47.29 40.44 49.08 39.53 46.07 42.04 44.18 38.89 44.11"/>
    <polygon class="uuid-391ba7f3-3e56-4f28-89b9-b02a0eb5481b" points="41.54 26.61 38.72 27.98 36.45 25.8 36.88 28.91 34.11 30.4 37.2 30.95 37.76 34.05 39.24 31.28 42.35 31.71 40.17 29.44 41.54 26.61"/>
  </g>
  <path class="uuid-0530ebbe-aa4c-4585-b00f-4963e3f4bd2b" d="m78.1,57.8c0,12.63-8.72,26.39-28.15,26.39s-28.15-13.76-28.15-26.39,8.72-15.83,28.15-15.83,28.15,3.2,28.15,15.83Z"/>
  <path class="uuid-16d3fdfb-9a97-49fb-9ec7-a45944edbd0d" d="m41.5,61.95c0,5.23-.96,6.76-4.22,6.76s-4.22-1.53-4.22-6.76.96-6.75,4.22-6.75,4.22,1.53,4.22,6.75Zm25.34,0c0,5.23-.96,6.76-4.22,6.76s-4.22-1.53-4.22-6.76.96-6.75,4.22-6.75,4.22,1.53,4.22,6.75Z"/>
  <circle class="uuid-5a6972c1-0617-433a-97f1-159bbfe3c1e2" cx="18.98" cy="40.55" r="5.63"/>
  <circle class="uuid-5a6972c1-0617-433a-97f1-159bbfe3c1e2" cx="80.91" cy="40.55" r="5.63"/>
</svg>