<?xml version="1.0" encoding="UTF-8"?>
<svg id="Layer_1" data-name="Layer 1" xmlns="http://www.w3.org/2000/svg" viewBox="0 0 100.02 99.47">
  <defs>
    <style>
      .cls-1 {
        fill: #f27792;
      }

      .cls-2 {
        fill: #f5f8fa;
      }

      .cls-3 {
        fill: #2a2f33;
      }

      .cls-4 {
        fill: #66471b;
      }

      .cls-5 {
        fill: #ffcc4d;
      }

      .cls-6 {
        fill: #e13158;
      }

      .cls-7 {
        fill: #5caade;
        opacity: .28;
      }
    </style>
  </defs>
  <path class="cls-6" d="m76.99,61.63c-.11,0-.21-.03-.3-.11l-.84-.68c-.82-.66-1.33-1.6-1.44-2.64-.11-1.04.19-2.07.85-2.88l.68-.84c.17-.21.47-.24.68-.07.21.17.24.47.07.68l-.68.84c-.5.62-.73,1.39-.64,2.18s.47,1.5,1.08,1.99l.84.68c.21.17.24.47.07.68-.1.12-.23.18-.37.18Z"/>
  <path class="cls-5" d="m99.21,50.22c0,27.2-22.05,49.26-49.26,49.26S.69,77.42.69,50.22,22.75.96,49.95.96s49.26,22.06,49.26,49.26"/>
  <g>
    <ellipse class="cls-4" cx="53.76" cy="64.76" rx="3.01" ry="2.18"/>
    <ellipse class="cls-4" cx="46.26" cy="64.76" rx="3.01" ry="2.18"/>
  </g>
  <g>
    <path class="cls-4" d="m78.01,85.46c-.15,0-.3-.02-.45-.08-.7-.25-1.07-1.02-.83-1.72,1.39-3.96.85-6.88-1.76-9.46-.53-.52-.53-1.38-.01-1.91.52-.53,1.38-.53,1.91-.01,3.35,3.32,4.14,7.33,2.41,12.27-.19.55-.72.9-1.27.9Z"/>
    <path class="cls-4" d="m22.01,85.49c-.56,0-1.08-.35-1.27-.9-1.73-4.94-.94-8.95,2.41-12.27.53-.52,1.38-.52,1.91.01.52.53.52,1.38-.01,1.91-2.61,2.58-3.15,5.5-1.76,9.46.25.7-.12,1.47-.83,1.72-.15.05-.3.08-.45.08Z"/>
  </g>
  <path class="cls-3" d="m34.16,63.32c.71,0,1.4-.15,2.05-.42-.65.27-1.34.42-2.06.42,0,0,0,0,0,0Z"/>
  <path class="cls-3" d="m36.37,62.84s-.05.02-.07.03c.02,0,.05-.02.07-.03Z"/>
  <path class="cls-3" d="m41.37,53.24s0-.06,0-.09c0,.03,0,.07,0,.1,0,0,0-.01,0-.02Z"/>
  <path class="cls-3" d="m29.45,45.67s.03-.04.05-.06c-.02.02-.03.04-.05.06Z"/>
  <path class="cls-4" d="m43.4,34.48c-9.38-9.38-24.45-9.49-25.09-9.49-1.59,0-2.88,1.29-2.88,2.88,0,1.59,1.28,2.88,2.88,2.89.08,0,11.41,2.2,11.37,2.24l11.6,6.39s.05.02.08.02c.74,0,1.48-.28,2.04-.84,1.13-1.13,1.13-2.95,0-4.07Z"/>
  <path class="cls-7" d="m36.31,62.87s-.06.02-.09.03c.03-.01.06-.02.09-.03Z"/>
  <path class="cls-7" d="m41.37,53.15c0-.46-.03-.92-.08-1.37,0,0-.02,0-.03,0,.05.45.1.9.1,1.37Z"/>
  <path class="cls-7" d="m36.37,62.84c2.9-1.3,4.99-5.09,4.99-9.57,0,0,0-.01,0-.02,0,4.49-2.1,8.28-4.99,9.58Z"/>
  <path class="cls-7" d="m29.5,45.6c.06-.07.12-.14.18-.21-.06.07-.12.14-.18.21Z"/>
  <path class="cls-7" d="m26.96,53.24c0-3.03.97-5.73,2.49-7.57-1.53,1.84-2.5,4.56-2.5,7.6,0,5.55,3.23,10.05,7.21,10.05,0,0,0,0,0,0-3.98,0-7.2-4.51-7.2-10.08Z"/>
  <path class="cls-4" d="m81.7,25c-.64,0-15.7.11-25.09,9.49-1.13,1.13-1.13,2.95,0,4.07.56.56,1.3.84,2.04.84.03,0,.06-.01.09-.02l11.49-6.5c5.93-2.06,11.39-2.12,11.47-2.12,1.59,0,2.88-1.3,2.87-2.89,0-1.59-1.29-2.88-2.88-2.88Z"/>
  <path class="cls-3" d="m58.66,53.27c0-.22,0-.44.02-.65-.02.2-.03.41-.03.62,0,5.57,3.22,10.08,7.2,10.08,0,0,0,0,0,0-3.98,0-7.2-4.5-7.2-10.05Z"/>
  <path class="cls-7" d="m58.74,51.78c-.03.28-.05.56-.06.84.02-.28.05-.56.08-.84,0,0,0,0-.01,0Z"/>
  <path class="cls-7" d="m73.06,53.24c0,5.57-3.22,10.08-7.2,10.08,0,0,0,0,0,0,3.98,0,7.21-4.5,7.21-10.05,0-3.26-1.12-6.16-2.84-8,0,0,0,0,0,0,1.71,1.84,2.83,4.71,2.83,7.96Z"/>
  <path class="cls-3" d="m99.23,38.67c-.02-.89-.06-1.77-.1-2.66-.09-1.66-.43-3.28-1.32-4.8-.36-.62-.26-1.39-.37-2.09-.12-.76-.2-1.54-.37-2.29-.13-.58-.37-1.15-.54-1.72-.64-2.06-1.35-4.11-1.85-6.2-.35-1.47-.47-2.96-1.47-4.29-.45-.61-.41-1.41-.61-2.21-.15-.05-.46-.16-.77-.28-3.17-1.18-5.71-3-9.22-3.84-1.71-.41-3.48-.75-5.26-1.04-.19-.03-.39-.06-.58-.09C55.61-5.06,34.76,1.36,26.84,4.65c-2.28.32-4.42.89-6.5,1.64-2.02.74-4.15,1.36-6.35,1.86-.9.2-1.43.45-1.83,1.01-1.21,1.68-2.65,3.27-3.83,4.96-1.27,1.82-2.42,3.69-3.48,5.58-.86,1.53-1.47,3.14-2.21,4.7-.31.67-.87,1.3-.92,1.99-.16,2.11-.06,4.25-.18,6.37-.08,1.35-.43,2.67-.59,4.01-.04.35-.08.7-.12,1.05-.01.12-.02.24-.04.36.91.15,1.81.29,2.72.43-.19-.15-.27-.31-.25-.5.01-.1.05-.21.12-.33,2.47-.01,3.14-.41,3.73-2.14.03-.09-.01-.21.05-.28,1.76-2.11.15-4.55.33-6.82.16-2.3.48-4.52,2.43-6.44,1.04-1.02,1.43-2.35,2.23-3.49.56-.79,1.33-1.51,2-2.27,1.55.75,2.16,1.51,2.13,2.52-.02.77.59,1.27,1.88,1.31.53.02,1.07.11,1.58.16.41,1.39,1.35,1.73,3.43,1.55,1.13-.1,2.4.23,3.58.2.9-.03,1.91-.18,2.61-.51,1.42-.67,3.06-1.26,3.45-2.65.76.66,1.64,1.07,2.68.6.76-.35,1.35-.84,2.07-1.31.13.29.25.62.41.93.64,1.23,2.23,1.75,3.93,1.77,2.35.03,4.7-.22,7.03-.45.45-.04.83-.35,1.25-.52.35-.15.73-.42,1.07-.41,1.91.07,3.26-.65,4.66-1.33.29-.14.68-.31,1-.3,2.57.1,5.14.19,7.71.29.34.01.86.28.93.49.75,2.32,6.53,3.38,9.1,1.75.32-.2.87-.26,1.32-.35,1.05-.23,2.1-.47,3.16-.65.38-.06.9-.02,1.19.11,1.58.71,3.31.12,4.93-.14.42-.07.69-.85,1.05-1.34,1.8.74,3.48,1.51,3.61,3.19.03.38.77.67.96,1.06.4.81.82,1.64.95,2.5.27,1.79.4,3.61.49,5.42.06,1.16-.21,2.36-.04,3.5.07.49,1.01.83,1.39,1.3.29.35.58.83.41,1.21-.46,1-.2,1.97,1.11,2.43.52.18,1.18.22,1.88.31.09.01.18.02.27.04,0,0,0,0,0,0,.62-.09,1.24-.19,1.86-.29,0-.02,0-.04,0-.07Z"/>
  <g>
    <path class="cls-6" d="m50.15,23.48c-.85.24-1.76.23-2.64-.01l-1.32-.38c-.26-.08-.42-.35-.34-.62.08-.27.35-.42.62-.34l1.32.38c1,.28,2.06.16,2.97-.34s1.57-1.34,1.85-2.34l.38-1.32c.08-.27.35-.42.62-.34.26.08.42.35.34.62l-.38,1.32c-.36,1.26-1.18,2.3-2.33,2.94-.35.19-.71.34-1.09.45Z"/>
    <path class="cls-6" d="m60.07,26.96c-.09.02-.18.02-.27,0l-1.32-.38c-2.6-.74-4.11-3.45-3.37-6.05l.38-1.32c.08-.26.35-.42.62-.34.26.08.42.35.34.62l-.38,1.32c-.59,2.07.62,4.23,2.69,4.82l1.32.38c.26.08.42.35.34.62-.05.17-.19.3-.35.34Z"/>
    <path class="cls-6" d="m49.97,31.86c-.09.02-.18.02-.27,0-.26-.08-.42-.35-.34-.62l.38-1.32c.59-2.07-.62-4.23-2.68-4.82l-1.32-.38c-.26-.08-.42-.35-.34-.62.08-.27.35-.42.62-.34l1.32.38c2.6.74,4.11,3.45,3.37,6.05l-.38,1.32c-.05.17-.19.3-.35.34Z"/>
    <path class="cls-6" d="m52.47,32.57c-.09.02-.18.02-.27,0-.26-.08-.42-.35-.34-.62l.38-1.32c.36-1.26,1.18-2.3,2.33-2.94,1.14-.64,2.47-.79,3.72-.43l1.32.38c.26.08.42.35.34.62s-.35.42-.62.34l-1.32-.38c-1-.28-2.06-.16-2.97.34-.91.51-1.57,1.34-1.85,2.34l-.38,1.32c-.05.17-.19.3-.35.34Z"/>
  </g>
  <g>
    <path class="cls-4" d="m65.05,79.13c-7.21-.08-7.27,4.03-15.68,3.94-8.41-.09-8.35-4.2-15.56-4.27-2.4-.03-3.62.99-3.63,2.02-.05,3.08,5.83,12.38,19.04,12.53,13.21.14,19.36-9.04,19.4-12.12.02-1.03-1.17-2.07-3.58-2.09Z"/>
    <path class="cls-4" d="m68.74,79.81c-2.39-1.05-7.12-6.24-11.93-6.29-4.81-.05-4.82.98-7.22.95-2.4-.03-2.39-1.05-7.19-1.1-4.8-.05-9.69,5.03-12.1,6.03,0,0-2.42,1.06-2.45,3.05-.03,1.99,2.37,2.08,2.37,2.08,8.41.09,12.04-1.93,12.04-1.93,0,0,3.57,2.09,7.18,2.13,3.6.04,7.24-1.98,7.24-1.98,0,0,3.58,2.09,11.98,2.18,0,0,2.4-.04,2.43-2.03.03-1.99-2.36-3.1-2.36-3.1Z"/>
  </g>
  <circle class="cls-1" cx="16.06" cy="62.58" r="9.06"/>
  <circle class="cls-1" cx="83.25" cy="62.58" r="9.06"/>
  <path class="cls-3" d="m99.47,40.34c-.5-.49-3.74.81-7.01-.86-6.75-3.44-23.81-6.76-34.91,1.11-1.19.84-6.16.98-7.55.92-1.39.06-6.36-.08-7.55-.92-11.1-7.87-28.16-4.55-34.91-1.11-3.27,1.67-6.5.37-7.01.86-.73.71-.73,3.53,0,4.24.73.71,4.36,1.52,5.08,3.63.73,2.12.73,14.63,6.53,18.95,5.43,4.05,18.08,5.27,26.1.7,7-3.98,6.75-12.36,8.04-17.35.46-1.78,1.75-2.68,3.72-2.68s3.26.9,3.72,2.68c1.28,4.99,1.04,13.37,8.04,17.35,8.02,4.56,20.68,3.34,26.1-.7,5.8-4.32,5.8-16.83,6.53-18.95.72-2.12,4.35-2.93,5.08-3.63.73-.71.73-3.53,0-4.24Zm-59.57,10.77c-.23,3.26-.81,9.52-4.71,11.74-2.39,1.36-5.51,2.19-8.77,2.19h0c-3.61,0-8.62-1.02-10.58-2.48-2.45-1.83-3.38-9.34-3.73-12.15-.22-1.79-.83-6.17,1.14-6.84,3.13-1.06,7.49-1.9,11.95-1.9,2.04,0,8.91.13,12.26,2.19,2.96,1.82,2.57,5.46,2.45,7.25Zm48.02-.75c-.35,2.81-1.28,10.37-3.73,12.2-1.96,1.46-6.97,2.48-10.58,2.48h0c-3.27,0-6.38-.83-8.78-2.19-3.9-2.22-4.48-8.44-4.71-11.7-.12-1.79-.52-5.46,2.45-7.28,3.35-2.06,10.21-2.2,12.26-2.2,4.46,0,8.82.82,11.95,1.88,1.97.67,1.37,5.02,1.15,6.81Z"/>
  <g>
    <circle class="cls-2" cx="25.77" cy="52.62" r="9.42"/>
    <circle class="cls-3" cx="25.77" cy="52.62" r="4.28"/>
  </g>
  <g>
    <circle class="cls-2" cx="74.46" cy="52.62" r="8.8"/>
    <circle class="cls-3" cx="74.46" cy="52.62" r="4"/>
  </g>
</svg>