<?xml version="1.0" encoding="UTF-8"?>
<svg id="Layer_1" data-name="Layer 1" xmlns="http://www.w3.org/2000/svg" viewBox="0 0 94.6201231826 100">
  <defs>
    <style>
      .cls-1 {
        fill: #fff;
      }

      .cls-2 {
        fill: #2a2f33;
      }

      .cls-3 {
        fill: #66471b;
      }

      .cls-4 {
        fill: #e95a6f;
      }

      .cls-5 {
        fill: #de3045;
      }

      .cls-6 {
        fill: #f4abba;
      }

      .cls-7 {
        fill: #f18f25;
      }

      .cls-8 {
        fill: #ffcc4d;
      }

      .cls-9 {
        fill: #65abde;
      }

      .cls-10 {
        fill: #231f20;
      }

      .cls-11 {
        fill: #5caade;
        opacity: .28;
      }
    </style>
  </defs>
  <g>
    <g>
      <path class="cls-8" d="m29.6932296846,7.8369816528C23.0055581065,3.4235839466,10.1596778913-1.9028421968,8.765076514.6753661231c-4.3607743912,8.0675161527,1.7768304083,27.2611603113,2.2361289293,28.668068305,3.2522879267-9.3356545158,10.0068941341-17.029740033,18.6920242413-21.5064527754Z"/>
      <path class="cls-8" d="m83.5056645717,29.3434344282c.4594098931-1.4069079938,6.5969033205-20.6005521523,2.2361289293-28.668068305-1.3947127493-2.57820832-14.2404815925,2.7482178234-20.9281531706,7.1616155296,8.6851301072,4.4767127424,15.4396249425,12.1707982596,18.6920242413,21.5064527754Z"/>
      <path class="cls-2" d="m83.6662631331,29.8110301703c-.0522335127-.1564777939-.106360351-.312008925-.1605985614-.4675957421-.0175967911.0539597802-.0279543959.0849769087-.0279543959.0849769087.0641503269.1281892817.1267414444.2555432726.1885529573.3826188334Z"/>
      <path class="cls-2" d="m11.0012054433,29.3434344282c-.0541268383.1555868171-.1083650487.3111179482-.1605985614.4675957421.0618115129-.1270755607.1244026304-.2544295517.1885529573-.3826188334,0,0-.0103576049-.0310171285-.0279543959-.0849769087Z"/>
    </g>
    <path class="cls-7" d="m11.0291350383,6.7882346659c1.0120166737-3.0383138764,12.7690683755,2.2640192691,15.0330865651,4.5280385382.0000021591,0-10.5050480268,6.7920578073-12.769067296,13.5841156147,0,0-4.5280385382-11.3200963456-2.2640192691-18.1121541529Zm72.4486166117,0c-1.012013435-3.0383138764-12.769067296,2.2640192691-15.0330865651,4.5280385382,0,0,10.5050480268,6.7920578073,12.769067296,13.5841156147,0,0,4.5280385382-11.3200963456,2.2640192691-18.1121541529Z"/>
  </g>
  <path class="cls-8" d="m93.8497381731,51.0044442809c0,25.7340981213-20.8621967076,46.5962948289-46.5962948289,46.5962948289C21.5219349527,97.6007391098.6571485152,76.7385424022.6571485152,51.0044442809.6571485152,25.2729358894,21.5219349527,4.408149452,47.2534433441,4.408149452c25.7340981213,0,46.5962948289,20.8647864374,46.5962948289,46.5962948289"/>
  <g>
    <ellipse class="cls-3" cx="50.858250761" cy="64.7607718583" rx="2.8521865321" ry="2.0594062063"/>
    <ellipse class="cls-3" cx="43.7618724217" cy="64.7607718583" rx="2.8521865321" ry="2.0594062063"/>
  </g>
  <g>
    <path class="cls-3" d="m73.7989098886,84.3395408193c-.1400315076,0-.2824191009-.0232941302-.4220505185-.0721940217-.664238345-.2331191193-1.0137392062-.9605716878-.7806645413-1.6247211239,1.3150959015-3.7475098704.8008913146-6.5074197493-1.6672640295-8.9486801531-.5004681628-.4950447202-.5049136074-1.3019818397-.0098688872-1.8025389113.4950002658-.5003792539,1.3019818397-.5048246986,1.8025389113-.0097799783,3.1731584169,3.1384839484,3.9189706719,6.9345380747,2.280024125,11.6049222619-.1841303189.5247402907-.6765522268.8529919264-1.2027150598.8529919264Z"/>
    <path class="cls-3" d="m20.8212119313,84.3669247586c-.5261183786,0-1.0185847409-.3282516356-1.2026706054-.8528141086-1.6389910013-4.670562005-.8932009735-8.4666161313,2.2800018978-11.6051000797.5004681628-.495222538,1.3074497366-.4905992756,1.8025166841.0097799783.4950447202.5005570717.4905992756,1.3074941911-.0098911144,1.8025389113-2.4681331169,2.4412604038-2.9823377038,5.2011702827-1.6672418023,8.9485023353.2330968921.6643272539-.1164039691,1.3917798223-.7806423141,1.6248989417-.1396091904.0488998915-.2820412381.0721940217-.4220727457.0721940217Z"/>
  </g>
  <path class="cls-2" d="m32.319900554,63.3983319709c.6753964112,0,1.3271430566-.1394980542,1.9430149634-.3954667593-.6164053602.2557464328-1.2688188223.3951555781-1.9447931413.3954223048.0006223623,0,.0012002701.0000444544.0017781779.0000444544Z"/>
  <path class="cls-2" d="m34.4093040109,62.9399177149c-.0215604067.0096910694-.0425873601.0209380445-.0642366757.0303179328.0216048612-.0094243427.042676269-.0205824089.0642366757-.0303179328Z"/>
  <path class="cls-2" d="m39.1336114421,53.8591634002c0-.0279173926-.0017337234-.0550790597-.002089359-.0828186345.0003111811.0330741085.0017781779.0657481269.0018226323.0989111443,0-.0054234425.0002667267-.0107135217.0002667267-.0160925098Z"/>
  <path class="cls-2" d="m27.8619641683,46.6977742832c.0160480553-.0193376844.0319182928-.0389865499.0480997115-.058101962-.0161369642.0192487755-.0321405651.0386309143-.0480997115.058101962Z"/>
  <path class="cls-11" d="m34.3450673352,62.9702356476c-.0271172126.0117804284-.0549012419.02129368-.0821518178.032629564.0272950304-.0112914295.0550346052-.0208491356.0821518178-.032629564Z"/>
  <path class="cls-11" d="m39.1315220831,53.7763447657c-.0037341735-.4391654805-.0278729382-.8713516129-.0729497473-1.2942467659-.0085352538-.0017781779-.0168926898-.0047566258-.0257835792-.0047566258.0461437158.42836305.0931765206.8550368309.0987333265,1.2990033917Z"/>
  <path class="cls-11" d="m34.4093040109,62.9399177149c2.7408389212-1.2320549947,4.7243074312-4.8165504085,4.7243074312-9.0486137496,0-.0053789881-.0002667267-.0106690672-.0002667267-.0160480553-.0050233525,4.2429991351-1.986446958,7.8318066301-4.7240407045,9.0646618049Z"/>
  <path class="cls-11" d="m27.9100638798,46.6396723211c.0566794197-.067748577.1151370174-.1325631605.1733278883-.1978222885-.0585020521.0647701291-.1163817419.1304738015-.1733278883.1978222885Z"/>
  <path class="cls-11" d="m25.5061896658,53.8591634002c0-2.8682453659.9217629557-5.4159741699,2.3557745025-7.161389117-1.4463254286,1.7433255881-2.3628427595,4.3183494225-2.3628427595,7.1935296821,0,5.2505591732,3.052197867,9.5070280056,6.8172672439,9.5070280056.0005779078,0,.0011558156-.0000444544.0017337234-.0000444544-3.7630244723-.0013336334-6.8119327103-4.2688716231-6.8119327103-9.5391241163Z"/>
  <path class="cls-2" d="m55.4957374259,53.8913039653c0-.2077356302.0064458948-.413248538.0158702375-.6176500847-.0143143319.1927100271-.025072308.3869315055-.025072308.5855095196,0,5.2710526732,3.0497973269,9.5391685707,6.8137108881,9.5391685707.0021338134,0,.0042231725-.0002222722.0063569859-.0002222722-3.7621353834-.0048455347-6.8108658035-4.2591805537-6.8108658035-9.5068057334Z"/>
  <path class="cls-11" d="m55.57095435,52.4800530952c-.0278729382.2610809664-.0470328048.5260294697-.0593466866.7936007854.0198711377-.2675713157.0476996215-.5317196389.0730386562-.7963125066-.0046677169,0-.0091131616.0020449046-.0136919696.0027117213Z"/>
  <path class="cls-11" d="m69.1139571316,53.8591634002c0,5.2680742252-3.0464187889,9.5341007638-6.8073539022,9.5389462985.0021338134,0,.0042231725.0002222722.0063569859.0002222722,3.7650693769,0,6.8172672439-4.2564688325,6.8172672439-9.5070280056,0-3.0859387922-1.0550818418-5.8271778034-2.6887827639-7.5639685878-.0013336334.0004445445-.0026228124.0008446345-.0039119913.001289179,1.6161858701,1.7443480404,2.6764244277,4.4534464865,2.6764244277,7.5305388438Z"/>
  <g>
    <circle class="cls-1" cx="24.1471586298" cy="52.477341374" r="15.0370885967"/>
    <path class="cls-10" d="m24.1471602821,67.6054644787c-8.3416769084,0-15.1281372206-6.7864158578-15.1281372206-15.1282039023,0-8.3416102267,6.7864603122-15.1280260845,15.1281372206-15.1280260845,8.3416546812,0,15.1281149934,6.7864158578,15.1281149934,15.1280260845,0,8.3417880445-6.7864603122,15.1282039023-15.1281149934,15.1282039023Zm0-30.0741445724c-8.2412765402,0-14.9460518063,6.7047974933-14.9460518063,14.9459406701,0,8.2413209946,6.7047752661,14.9461184879,14.9460518063,14.9461184879s14.946029579-6.7047974933,14.946029579-14.9461184879c0-8.2411431768-6.7047530389-14.9459406701-14.946029579-14.9459406701Z"/>
  </g>
  <g>
    <circle class="cls-1" cx="69.5962881606" cy="52.477341374" r="15.0370885967"/>
    <path class="cls-10" d="m69.5962753913,67.6054644787c-8.3416546812,0-15.1281149934-6.7864158578-15.1281149934-15.1282039023,0-8.3416102267,6.7864603122-15.1280260845,15.1281149934-15.1280260845,8.3416991356,0,15.1281594478,6.7864158578,15.1281594478,15.1280260845,0,8.3417880445-6.7864603122,15.1282039023-15.1281594478,15.1282039023Zm0-30.0741445724c-8.2412765402,0-14.946029579,6.7047974933-14.946029579,14.9459406701,0,8.2413209946,6.7047530389,14.9461184879,14.946029579,14.9461184879s14.9460740335-6.7047974933,14.9460740335-14.9461184879c0-8.2411431768-6.7047974933-14.9459406701-14.9460740335-14.9459406701Z"/>
  </g>
  <path class="cls-2" d="m94.1024448609,41.660549602c-.477212134-.4632556991-3.5358005072.7646497547-6.6306798695-.8120920523-6.3851009079-3.253946525-22.5208741138-6.3934723735-33.0250342124,1.049300879-1.1246480622.7953464596-5.8241714557.929300556-7.1385887084.873485462-1.3144172527.0586042519-6.0139379847-.0753498446-7.1385887084-.873485462-10.5013709407-7.4427719218-26.6371441467-4.3032447426-33.0222450545-1.049300879-3.0948760355,1.5767391456-6.1534730583.3488363532-6.6306812002.8120920523-.6893005755.6669760016-.6893005755,3.3376665046.0027908212,4.0074316641.6865100869.6669760016,4.1218506773,1.4372067335,4.8055696103,3.438132077.6893005755,2.0037171628.6948822179,13.8362456261,6.1757996282,17.9273972698,5.1320797263,3.8288270893,17.1041459246,4.9813826985,24.6920312358.6641868438,6.6195205767-3.7646391989,6.3878927271-11.6902042319,7.601841746-16.4120541953.4325589942-1.6827856951,1.6520863288-2.5311554294,3.5162710794-2.5311554294s3.0837120852.8483697343,3.5162710794,2.5311554294c1.2139490189,4.7190581441.9795320115,12.6474096735,7.6018390846,16.4120541953,7.5878879725,4.3144066969,19.559948848,3.1618510877,24.6892420779-.6641868438,5.4837078988-4.0883624859,5.4892862145-15.923680107,6.1758022896-17.9273972698.6837162716-2.0009253435,4.1190645135-2.7739478946,4.805569943-3.438132077.6920943908-.6697651595.6948835486-3.3404583239.0027891579-4.0074316641Zm-56.3552112207,10.1860231116c-.2148822568,3.0837120852-.7646497547,9.005557294-4.4567335897,11.1069482098-2.2632498979,1.2892988635-5.2130105481,2.0734833688-8.2995144525,2.0734833688h-.0027918193c-3.4185973264,0-8.1571902211-.9683700573-10.0102076946-2.3497590353-2.3162731726-1.7274361735-3.1981314311-8.8381173348-3.5302235222-11.4976458836-.2120930989-1.6939503108-.7813940168-5.8325442521,1.0827880724-6.4688208875,2.9581321158-1.0074395585,7.0855654336-1.7944132217,11.3078793545-1.7944132217,1.9339482953,0,8.4306767297.120000323,11.5953196367,2.0679023917,2.8046445995,1.7218551963,2.4334816763,5.1655682504,2.3134840148,6.8623050576Zm45.4268649243-.7060455029c-.3320907605,2.662320368-1.2139490189,9.8092765499-3.5302221915,11.5367180462-1.8530174735,1.3813943009-6.5916103683,2.3497590353-10.0102076946,2.3497590353h-.0027891579c-3.0892957237,0-6.0362645546-.7841845053-8.3023062718-2.0734833688-3.692083835-2.098601758-4.2418513329-7.9841666234-4.4567335897-11.0678787086-.1172085037-1.6967394686-.4911632461-5.1655682504,2.3134840148-6.8874261082,3.1674347262-1.9479020688,9.6613713414-2.0818561652,11.5953222981-2.0818561652,4.2223165823,0,8.3469540887.7730225511,11.3078793545,1.7804621096,1.8641794278.6362766354,1.2976716599,4.749754849,1.0855732381,6.4437051597Z"/>
  <path class="cls-3" d="m73.7132721411,36.3558035805c-12.9798049738,0-18.2334215735-10.2057617819-18.4507652941-10.6404469944-.5772430624-1.1544872391-.1098419566-2.5590352064,1.0446486256-3.1362793831,1.1521503896-.5772441767,2.5520268866-.1121765774,3.1316056841,1.0352989988.1752737431.3412045456,4.255709422,8.0673895765,14.2745109844,8.0673895765,1.2923702755,0,2.3370189011,1.0469843607,2.3370189011,2.3370189011s-1.0446486256,2.3370189011-2.3370189011,2.3370189011Zm-51.4144158245,0c-1.2900345404,0-2.3370189011-1.0469843607-2.3370189011-2.3370189011s1.0469843607-2.3370189011,2.3370189011-2.3370189011c11.8790675023,0,14.0127660086-7.291498704,14.0992350126-7.6023230916.3388688105-1.2339456945,1.6172179889-1.981792144,2.8488257195-1.6569466594,1.2386193935.3248454846,1.9888026926,1.5728133906,1.6779805338,2.8161075975-.1145156557.4533822374-2.9586654474,11.1171999557-18.6260412659,11.1171999557Z"/>
  <g>
    <path class="cls-2" d="m66.1462912771,88.292964124c-.062513737,0-.1272588908-.0066985087-.187541211-.022326943-18.8077858229-4.33579183-35.7133612422-.0491167195-35.8830426022-.004467092-.2478235312.062513737-.5157404595.0111613423-.7233771967-.147354417-.2031696453-.1607514345-.3237342857-.4041078738-.3237342857-.6630970057,0-7.095338959,8.2898048584-15.3427234774,18.9774693121-15.3427234774s18.9774671829,8.2473845184,18.9774671829,15.3427234774c0,.25452204-.1160975485.4978784793-.317035777.656398497-.1495858338.1160975485-.3326642112.1808427023-.5202054223.1808469607Z"/>
    <path class="cls-6" d="m49.4103972177,74.4907656456v1.8463951752l-2.4358128432.0022314168v-1.8687221182c-5.0837295157.2835474917-9.3570076087,2.594332861-12.1790684747,5.6173319554l.0178619802,1.0292495022c.192008303,6.546108085,4.6438976815,12.9537959369,13.3779972077,12.9537959369,8.7050762037,0,13.1547341654-6.3652653827,13.3757679201-12.8890507831l.0200955262-.634071554c-2.7439186947-3.1591921692-7.0216638797-5.6642172582-12.1768413163-6.0571595312Z"/>
    <path class="cls-4" d="m48.0060652935,74.4237848166c-.3505240623,0-.6876553655.0312568685-1.031480919.0491167195v9.9285654257c0,.6720269312.544763782,1.2167907132,1.2167907132,1.2167907132s1.2167907132-.544763782,1.2167907132-1.2167907132v-9.9084698994c-.4621587772-.0379553772-.924313296-.0692122457-1.4021005075-.0692122457Z"/>
  </g>
  <path class="cls-2" d="m93.8676927874,40.0803537214c-.0223605868-.8393666384-.0524117928-1.6773774162-.0989333715-2.5136100161-.0873307609-1.5686640664-.408869775-3.1025203009-1.2441243771-4.542133108-.3409433802-.5882212409-.2462554084-1.3130509969-.3499454057-1.975511164-.1132477034-.7234738954-.1926877999-1.452926914-.3502343596-2.1685101451-.1217162755-.5527465923-.3455888699-1.0869556802-.513626679-1.631500427-.6025133455-1.9512390361-1.27764303-3.8894973736-1.7534834292-5.8654530821-.333563942-1.388267921-.4479896882-2.7996076999-1.394135908-4.0613138107-.4291187755-.573706864-.3851088732-1.3347225398-.5755072691-2.0909815898-.1446547701-.051833885-.4387653905-.155590564-.7288751107-.2637482332-2.9972966251-1.1205187876-5.401659838-2.8412615167-8.7228960175-3.6285497706-1.6217426759-.3859535076-3.2930965145-.7122491476-4.9776088694-.98208764-.1826410949-.0292065716-.3662824149-.0561015119-.5505238699-.0817961822C52.6050974386-1.2904215239,32.8869274435,4.7806333749,25.3872844403,7.8959787837c-2.159552574.2985782923-4.1860529886.83783296-6.1517397199,1.5549054151-1.9122524862.697267999-3.9273725624,1.2910015913-6.0046399553,1.7559951054-.8490354806.189909397-1.3515485479.4276073244-1.735457151.9591491455-1.1468358201,1.5885796586-2.5066973496,3.0956298616-3.6209925146,4.6926114106-1.2002256108,1.7204760024-2.2897151945,3.4870957206-3.2911849733,5.2751202551-.8107157474,1.446858882-1.3891570099,2.9671120557-2.0860249189,4.4505347202-.2954887083.6295638764-.8228962658,1.2274761867-.8732186997,1.8856464997-.1523453894,1.9962491635-.0528563373,4.0228829414-.1678599913,6.0238887308-.0735276551,1.2776652572-.4079140044,2.5242124016-.5567474925,3.7941425851-.0387198232.3300075863-.0763282853.6601263087-.1128698406.9907118027-.0127584262.1131587945-.0236053113.2262509073-.0356524664.3395208379.8575262799.1383644659,1.7154081955.2730169854,2.5737791099.4039797858-.1810629621-.14305441-.2541460727-.2969112506-.2328968471-.4729064057.011735974-.0961549686.0477440759-.1980890152.1121585694-.3093362685,2.3370147259-.0120916095,2.9721798627-.384797692,3.5281271751-2.0233219216.0292065716-.0865305808-.0118693373-.1952661578.0483219837-.2668600445,1.6623740404-1.9941820317.1462106757-4.3080359908.3088694968-6.453074188.154790384-2.1744003593.4502346378-4.2785182381,2.3004731706-6.0955492991.9836435457-.9692403049,1.3509261856-2.2222777986,2.1108305003-3.3055882141.5262072875-.7515024242,1.2571273028-1.4300995555,1.8964711575-2.1515507736,1.466463293.7095818808,2.047038369,1.432633459,2.0171205263,2.3872260236-.0233385846.7286972929.5602593938,1.1977806162,1.7796004167,1.2405013397.5046024263.0176261882,1.0130723895.1003114593,1.4993151293.1492558053.3842197842,1.3195191189,1.2760648971,1.6399023175,3.2433075341,1.4703086027,1.0730858928-.0929987028,2.26837706.2190270597,3.3835168595.1870865396.8540143786-.024072083,1.807384446-.166726403,2.4646878973-.4777963949,1.3401682095-.6322533705,2.899096752-1.1930906721,3.2632675807-2.5033188116.7234072138.62385148,1.5507044698,1.0131390712,2.5345702878.5649715652.7158055034-.326495685,1.2769984405-.7940231026,1.9559512074-1.2362114855.119182372.2745951183.2328079382.5838202506.3888430467.8843767658.6025355728,1.1646620533,2.1074964168,1.6527274254,3.7168807565,1.6725763359,2.2217887996.0284286188,4.4440665982-.2098916709,6.6471845302-.4233174702.4236508786-.0409425456.787199345-.3265179122,1.1841775555-.4933999057.3323414447-.1398536898.6859321151-.3960891215,1.0083602181-.3839752848,1.8024944569.0668817153,3.0837605243-.6174944941,4.408725313-1.25794971.276862295-.1340746117.6429002105-.2918878981.947857716-.2799963336,2.4313915166.0948213352,4.8642944844.1795515109,7.2943079131.2747284816.3256732777.0130029257.8149833743.2639482782.8817761807.4639710619.7088928369,2.193871407,6.1734557172,3.1970749093,8.6060919583,1.65517242.3022680114-.1899760787.8210514063-.2426990526,1.2488810029-.3344752582.9948238391-.2137147533,1.9867803663-.4455002392,2.9937847238-.6161830879.3562357099-.0602135483.84767962-.0216715428,1.128320543.1046679951,1.4980481775.6753297295,3.1350387287.1179154203,4.6682503737-.13280766.4007790657-.0653258097.6510131471-.8004689974.9939347501-1.2647734676,1.7007160008.7017578981,3.2892956593,1.4320555512,3.4140348372,3.0135447255.0277395748.3624593325.7251409372.6298972848.9092934833.9983135132.3828639236.7671726167.7803755874,1.5514824227.9032254513,2.3668214325.2554130244,1.6956704211.3801966568,3.411523161.4640155163,5.1290873971.054212198,1.0985138364-.2010452359,2.2344138626-.0351634675,3.3126120167.0705936616.4604147061.9549704275.7837763526,1.3175853505,1.2263203711.272483532.333763987.5496125538.7856878938.3863091432,1.1432572371-.4328751763.9472798082-.1891758986,1.8665977692,1.0534370273,2.3012288962.4891322788.1708606665,1.1175403396.2082913108,1.7810451863.292576942.0855303558.0107135217.1712829838.0223161323.2579024735.0350523313.000200045.0007334984.0000222272.0014003151.0003556356.0019559957.5873543791-.0887310759,1.1744642588-.1791958753,1.7614407752-.2714166253-.0005334534-.021093635-.0010224523-.0422094973-.0015336784-.0636365407Z"/>
  <path class="cls-9" d="m61.0130922955,94.5715546422c0,2.9980882152-2.4303571427,5.4284453578-5.4284459759,5.4284453578-2.9980885242,0-5.4284459759-2.4303571426-5.4284459759-5.4284453578s4.3422385893-10.8555948798,5.428446594-10.8555948798,5.4284453578,7.8575066647,5.4284453578,10.8555948798Z"/>
  <path class="cls-5" d="m35.9936617655,48.7083551813c-.9887019824-2.7980634315-4.0560978366-4.2667303119-6.8553125892-3.2803294623-1.6988652273.5985162508-2.9016528249,1.9693486966-3.3701069823,3.5726818569-1.3708324457-.9541730536-3.1663811983-1.2660922802-4.8629446067-.6675757549-2.796913071.9875516218-4.2678818388,4.0572495692-3.2791790331,6.8553134124.1404211014.3959413762.3268819408.7631083708.5432686887,1.1026513441,2.2455869873,4.1228560707,8.7337334052,7.0210556185,12.6620731625,7.0567365543,3.0351681954-2.4942012569,6.2683059812-8.8223600157,5.430384657-13.4401433555-.0437378506-.4005455627-.1300631911-.8033929443-.268183297-1.1993345949Z"/>
  <path class="cls-5" d="m58.6297654705,48.4456405748c.9887019824-2.7980634315,4.0572492948-4.2667303119,6.8553125892-3.2803294623,1.6988652273.5985162508,2.9016528249,1.9693486966,3.3712589893,3.5726818569,1.3708324457-.9541730536,3.1663806494-1.2660922802,4.8629429602-.6675757549,2.7969129338.9875518962,4.2667312724,4.0572501181,3.2803278158,6.8553134124-.1415733829.3959413762-.326882421.7631083708-.5444191179,1.1026513441-2.2455872617,4.1228560707-8.7337328564,7.0210556185-12.6632218765,7.0567365543-3.0351692931-2.4942012569-6.2671556207-8.8223600157-5.4292321011-13.4401433555.04258749-.4005455627.1289106352-.8033929443.267030741-1.1993345949Z"/>
</svg>