<?xml version="1.0" encoding="UTF-8"?>
<svg id="uuid-a8cc3e28-f7ef-4116-b197-5124e238a27f" data-name="Layer 1" xmlns="http://www.w3.org/2000/svg" viewBox="0 0 99.89 98.58">
  <defs>
    <style>
      .uuid-45216de8-361e-4de0-bcad-72702c94b6dc {
        fill: #fff;
      }

      .uuid-1fcbc85b-0539-4baa-b84b-7d7aba5c8126 {
        fill: #2a2f33;
      }

      .uuid-61a34df5-88d3-425e-83fe-0b9228e8fa42 {
        fill: #f4abba;
      }

      .uuid-00aae4f5-7720-4550-9584-6534176fe6e7 {
        fill: #231f20;
      }

      .uuid-d23891c5-eef3-412b-ae58-17e6fd90d7f0 {
        fill: #e13158;
      }

      .uuid-e58a8525-a14c-404e-8501-25c02206c8ea {
        fill: #5caade;
        opacity: .28;
      }
    </style>
  </defs>
  <path class="uuid-61a34df5-88d3-425e-83fe-0b9228e8fa42" d="m99.08,49.38c0,27.17-22.02,49.19-49.19,49.19S.69,76.55.69,49.38,22.72.19,49.89.19s49.19,22.03,49.19,49.19"/>
  <g>
    <ellipse class="uuid-1fcbc85b-0539-4baa-b84b-7d7aba5c8126" cx="53.69" cy="63.91" rx="3.01" ry="2.17"/>
    <ellipse class="uuid-1fcbc85b-0539-4baa-b84b-7d7aba5c8126" cx="46.2" cy="63.91" rx="3.01" ry="2.17"/>
  </g>
  <g>
    <path class="uuid-1fcbc85b-0539-4baa-b84b-7d7aba5c8126" d="m77.91,84.58c-.15,0-.3-.02-.45-.08-.7-.25-1.07-1.01-.82-1.72,1.39-3.96.85-6.87-1.76-9.45-.53-.52-.53-1.37-.01-1.9.52-.53,1.37-.53,1.9-.01,3.35,3.31,4.14,7.32,2.41,12.25-.19.55-.71.9-1.27.9Z"/>
    <path class="uuid-1fcbc85b-0539-4baa-b84b-7d7aba5c8126" d="m21.98,84.61c-.56,0-1.08-.35-1.27-.9-1.73-4.93-.94-8.94,2.41-12.25.53-.52,1.38-.52,1.9.01.52.53.52,1.38-.01,1.9-2.61,2.58-3.15,5.49-1.76,9.45.25.7-.12,1.47-.82,1.72-.15.05-.3.08-.45.08Z"/>
  </g>
  <path class="uuid-1fcbc85b-0539-4baa-b84b-7d7aba5c8126" d="m34.12,62.47c.71,0,1.4-.15,2.05-.42-.65.27-1.34.42-2.05.42,0,0,0,0,0,0Z"/>
  <path class="uuid-1fcbc85b-0539-4baa-b84b-7d7aba5c8126" d="m36.33,61.99s-.04.02-.07.03c.02,0,.05-.02.07-.03Z"/>
  <path class="uuid-1fcbc85b-0539-4baa-b84b-7d7aba5c8126" d="m41.31,52.4s0-.06,0-.09c0,.03,0,.07,0,.1,0,0,0-.01,0-.02Z"/>
  <path class="uuid-1fcbc85b-0539-4baa-b84b-7d7aba5c8126" d="m29.41,44.84s.03-.04.05-.06c-.02.02-.03.04-.05.06Z"/>
  <path class="uuid-1fcbc85b-0539-4baa-b84b-7d7aba5c8126" d="m43.35,33.67c-9.37-9.37-24.42-9.48-25.05-9.48-1.59,0-2.87,1.29-2.87,2.87,0,1.59,1.28,2.88,2.87,2.88.08,0,11.39,2.2,11.36,2.24l11.59,6.38s.05.02.08.02c.74,0,1.47-.28,2.03-.84,1.13-1.13,1.13-2.94,0-4.07Z"/>
  <path class="uuid-e58a8525-a14c-404e-8501-25c02206c8ea" d="m36.26,62.02s-.06.02-.09.03c.03-.01.06-.02.09-.03Z"/>
  <path class="uuid-e58a8525-a14c-404e-8501-25c02206c8ea" d="m41.31,52.31c0-.46-.03-.92-.08-1.37,0,0-.02,0-.03,0,.05.45.1.9.1,1.37Z"/>
  <path class="uuid-e58a8525-a14c-404e-8501-25c02206c8ea" d="m36.33,61.99c2.89-1.3,4.99-5.08,4.99-9.55,0,0,0-.01,0-.02,0,4.48-2.1,8.27-4.99,9.57Z"/>
  <path class="uuid-e58a8525-a14c-404e-8501-25c02206c8ea" d="m29.47,44.78c.06-.07.12-.14.18-.21-.06.07-.12.14-.18.21Z"/>
  <path class="uuid-e58a8525-a14c-404e-8501-25c02206c8ea" d="m26.93,52.4c0-3.03.97-5.72,2.49-7.56-1.53,1.84-2.49,4.56-2.49,7.59,0,5.54,3.22,10.04,7.2,10.04,0,0,0,0,0,0-3.97,0-7.19-4.51-7.19-10.07Z"/>
  <path class="uuid-1fcbc85b-0539-4baa-b84b-7d7aba5c8126" d="m81.6,24.19c-.64,0-15.68.11-25.05,9.48-1.13,1.13-1.13,2.94,0,4.07.56.56,1.3.84,2.03.84.03,0,.06-.01.09-.02l11.48-6.5c5.92-2.06,11.37-2.12,11.46-2.12,1.59,0,2.87-1.29,2.87-2.88,0-1.59-1.29-2.87-2.87-2.87Z"/>
  <path class="uuid-1fcbc85b-0539-4baa-b84b-7d7aba5c8126" d="m58.59,52.43c0-.22,0-.44.02-.65-.02.2-.03.41-.03.62,0,5.56,3.22,10.07,7.19,10.07,0,0,0,0,0,0-3.97,0-7.19-4.5-7.19-10.04Z"/>
  <path class="uuid-e58a8525-a14c-404e-8501-25c02206c8ea" d="m58.67,50.94c-.03.28-.05.56-.06.84.02-.28.05-.56.08-.84,0,0,0,0-.01,0Z"/>
  <path class="uuid-e58a8525-a14c-404e-8501-25c02206c8ea" d="m72.96,52.4c0,5.56-3.22,10.07-7.19,10.07,0,0,0,0,0,0,3.97,0,7.2-4.49,7.2-10.04,0-3.26-1.11-6.15-2.84-7.99,0,0,0,0,0,0,1.71,1.84,2.83,4.7,2.83,7.95Z"/>
  <path class="uuid-1fcbc85b-0539-4baa-b84b-7d7aba5c8126" d="m99.1,38.62c-.02-.89-.06-1.77-.1-2.65-.09-1.66-.43-3.28-1.31-4.8-.36-.62-.26-1.39-.37-2.09-.12-.76-.2-1.53-.37-2.29-.13-.58-.36-1.15-.54-1.72-.64-2.06-1.35-4.11-1.85-6.19-.35-1.47-.47-2.96-1.47-4.29-.45-.61-.41-1.41-.61-2.21-.15-.05-.46-.16-.77-.28-3.16-1.18-5.7-3-9.21-3.83-1.71-.41-3.48-.75-5.25-1.04-.19-.03-.39-.06-.58-.09C55.54-5.05,34.72,1.35,26.8,4.64c-2.28.32-4.42.88-6.49,1.64-2.02.74-4.15,1.36-6.34,1.85-.9.2-1.43.45-1.83,1.01-1.21,1.68-2.65,3.27-3.82,4.95-1.27,1.82-2.42,3.68-3.47,5.57-.86,1.53-1.47,3.13-2.2,4.7-.31.66-.87,1.3-.92,1.99-.16,2.11-.06,4.25-.18,6.36-.08,1.35-.43,2.66-.59,4.01-.04.35-.08.7-.12,1.05-.01.12-.02.24-.04.36.91.15,1.81.29,2.72.43-.19-.15-.27-.31-.25-.5.01-.1.05-.21.12-.33,2.47-.01,3.14-.41,3.72-2.14.03-.09-.01-.21.05-.28,1.75-2.11.15-4.55.33-6.81.16-2.3.48-4.52,2.43-6.44,1.04-1.02,1.43-2.35,2.23-3.49.56-.79,1.33-1.51,2-2.27,1.55.75,2.16,1.51,2.13,2.52-.02.77.59,1.26,1.88,1.31.53.02,1.07.11,1.58.16.41,1.39,1.35,1.73,3.42,1.55,1.13-.1,2.39.23,3.57.2.9-.03,1.91-.18,2.6-.5,1.41-.67,3.06-1.26,3.45-2.64.76.66,1.64,1.07,2.68.6.76-.34,1.35-.84,2.06-1.31.13.29.25.62.41.93.64,1.23,2.22,1.74,3.92,1.77,2.35.03,4.69-.22,7.02-.45.45-.04.83-.34,1.25-.52.35-.15.72-.42,1.06-.41,1.9.07,3.26-.65,4.65-1.33.29-.14.68-.31,1-.3,2.57.1,5.14.19,7.7.29.34.01.86.28.93.49.75,2.32,6.52,3.38,9.09,1.75.32-.2.87-.26,1.32-.35,1.05-.23,2.1-.47,3.16-.65.38-.06.89-.02,1.19.11,1.58.71,3.31.12,4.93-.14.42-.07.69-.85,1.05-1.34,1.8.74,3.47,1.51,3.6,3.18.03.38.77.66.96,1.05.4.81.82,1.64.95,2.5.27,1.79.4,3.6.49,5.41.06,1.16-.21,2.36-.04,3.5.07.49,1.01.83,1.39,1.29.29.35.58.83.41,1.21-.46,1-.2,1.97,1.11,2.43.52.18,1.18.22,1.88.31.09.01.18.02.27.04,0,0,0,0,0,0,.62-.09,1.24-.19,1.86-.29,0-.02,0-.04,0-.07Z"/>
  <path class="uuid-1fcbc85b-0539-4baa-b84b-7d7aba5c8126" d="m72.22,88.27c-.13-.52-3.36-12.6-21.54-12.6-18.18,0-21.41,12.08-21.54,12.6-.16.62.12,1.27.68,1.59.56.31,1.26.23,1.73-.22.05-.05,5.62-5.34,19.13-5.34,13.51,0,19.08,5.29,19.13,5.34.28.27.64.42,1.01.42.24,0,.49-.06.71-.18.56-.32.85-.98.69-1.6Z"/>
  <g>
    <path class="uuid-d23891c5-eef3-412b-ae58-17e6fd90d7f0" d="m56.02,21.53c-.87.16-1.77.09-2.62-.24l-1.29-.49c-.26-.1-.39-.38-.29-.64.1-.26.38-.39.64-.29l1.29.49c.97.37,2.03.34,2.98-.09s1.67-1.2,2.04-2.17l.49-1.29c.1-.26.38-.39.64-.29.26.1.39.38.29.64l-.49,1.29c-.46,1.22-1.37,2.19-2.56,2.73-.36.16-.74.28-1.12.35Z"/>
    <path class="uuid-d23891c5-eef3-412b-ae58-17e6fd90d7f0" d="m65.61,25.84c-.09.02-.18,0-.27-.02l-1.29-.49c-2.52-.95-3.8-3.78-2.84-6.31l.49-1.29c.1-.26.38-.39.64-.29.26.1.39.38.29.64l-.49,1.29c-.76,2.01.26,4.26,2.27,5.02l1.29.49c.26.1.39.38.29.64-.06.17-.21.28-.37.31Z"/>
    <path class="uuid-d23891c5-eef3-412b-ae58-17e6fd90d7f0" d="m55.14,29.86c-.09.02-.18,0-.27-.02-.26-.1-.39-.38-.29-.64l.49-1.29c.76-2.01-.26-4.26-2.27-5.02l-1.29-.49c-.26-.1-.39-.38-.29-.64.1-.26.38-.39.64-.29l1.29.49c2.52.95,3.8,3.78,2.84,6.31l-.49,1.29c-.06.17-.21.28-.37.31Z"/>
    <path class="uuid-d23891c5-eef3-412b-ae58-17e6fd90d7f0" d="m57.57,30.78c-.09.02-.18,0-.27-.02-.26-.1-.39-.38-.29-.64l.49-1.29c.46-1.22,1.37-2.19,2.56-2.73,1.19-.54,2.52-.58,3.74-.12l1.29.49c.26.1.39.38.29.64s-.38.39-.64.29l-1.29-.49c-.97-.37-2.03-.34-2.98.09-.95.43-1.67,1.2-2.04,2.17l-.49,1.29c-.06.17-.21.28-.37.31Z"/>
  </g>
  <g>
    <circle class="uuid-45216de8-361e-4de0-bcad-72702c94b6dc" cx="25.88" cy="50.94" r="15.87"/>
    <path class="uuid-00aae4f5-7720-4550-9584-6534176fe6e7" d="m25.88,66.91c-8.81,0-15.97-7.16-15.97-15.97s7.16-15.97,15.97-15.97,15.97,7.16,15.97,15.97-7.16,15.97-15.97,15.97Zm0-31.75c-8.7,0-15.78,7.08-15.78,15.78s7.08,15.78,15.78,15.78,15.78-7.08,15.78-15.78-7.08-15.78-15.78-15.78Z"/>
  </g>
  <g>
    <circle class="uuid-45216de8-361e-4de0-bcad-72702c94b6dc" cx="74.01" cy="50.94" r="15.87"/>
    <path class="uuid-00aae4f5-7720-4550-9584-6534176fe6e7" d="m74.01,66.91c-8.81,0-15.97-7.16-15.97-15.97s7.16-15.97,15.97-15.97,15.97,7.16,15.97,15.97-7.16,15.97-15.97,15.97Zm0-31.75c-8.7,0-15.78,7.08-15.78,15.78s7.08,15.78,15.78,15.78,15.78-7.08,15.78-15.78-7.08-15.78-15.78-15.78Z"/>
  </g>
  <path class="uuid-1fcbc85b-0539-4baa-b84b-7d7aba5c8126" d="m28.35,42.4c-1.69,0-3.24.81-4.47,2.17-.06.07-.12.14-.18.21-.02.02-.03.04-.05.06-1.51,1.84-2.49,4.53-2.49,7.56,0,5.56,3.22,10.07,7.19,10.07.71,0,1.4-.15,2.05-.42.03-.01.06-.02.09-.03.02,0,.05-.02.07-.03,2.89-1.3,4.98-5.09,4.99-9.57,0-.04,0-.07,0-.1,0-.47-.06-.92-.1-1.37,0,0,.02,0,.03,0-.52-4.84-3.51-8.55-7.12-8.55Z"/>
  <path class="uuid-1fcbc85b-0539-4baa-b84b-7d7aba5c8126" d="m71.55,42.4c-3.61,0-6.6,3.71-7.12,8.55,0,0,0,0,.01,0-.03.28-.06.56-.08.84,0,.22-.02.43-.02.65,0,5.54,3.22,10.03,7.19,10.04,3.97,0,7.19-4.51,7.19-10.07,0-3.25-1.12-6.11-2.83-7.95,0,0,0,0,0,0-1.21-1.29-2.72-2.05-4.36-2.05Z"/>
  <path class="uuid-1fcbc85b-0539-4baa-b84b-7d7aba5c8126" d="m99.35,39.52c-.5-.49-3.73.81-7-.86-6.74-3.44-23.78-6.75-34.87,1.11-1.19.84-6.15.98-7.54.92-1.39.06-6.35-.08-7.54-.92-11.09-7.86-28.12-4.54-34.86-1.11-3.27,1.66-6.5.37-7,.86-.73.7-.73,3.52,0,4.23.72.7,4.35,1.52,5.07,3.63.73,2.12.73,14.61,6.52,18.93,5.42,4.04,18.06,5.26,26.07.7,6.99-3.97,6.74-12.34,8.03-17.33.46-1.78,1.74-2.67,3.71-2.67s3.26.9,3.71,2.67c1.28,4.98,1.03,13.35,8.03,17.33,8.01,4.55,20.65,3.34,26.06-.7,5.79-4.32,5.8-16.81,6.52-18.93.72-2.11,4.35-2.93,5.07-3.63.73-.71.73-3.53,0-4.23Zm-59.5,10.75c-.23,3.26-.81,9.51-4.71,11.73-2.39,1.36-5.5,2.19-8.76,2.19h0c-3.61,0-8.61-1.02-10.57-2.48-2.45-1.82-3.38-9.33-3.73-12.14-.22-1.79-.82-6.16,1.14-6.83,3.12-1.06,7.48-1.89,11.94-1.89,2.04,0,8.9.13,12.24,2.18,2.96,1.82,2.57,5.45,2.44,7.24Zm47.96-.75c-.35,2.81-1.28,10.36-3.73,12.18-1.96,1.46-6.96,2.48-10.57,2.48h0c-3.26,0-6.37-.83-8.76-2.19-3.9-2.22-4.48-8.43-4.71-11.68-.12-1.79-.52-5.45,2.44-7.27,3.34-2.06,10.2-2.2,12.24-2.2,4.46,0,8.81.82,11.94,1.88,1.97.67,1.37,5.01,1.15,6.8Z"/>
</svg>