<?xml version="1.0" encoding="UTF-8"?>
<svg id="uuid-04bd3585-5952-4c84-9cd8-abceec9b9af2" data-name="Layer 1" xmlns="http://www.w3.org/2000/svg" viewBox="0 0 100 98.68">
  <defs>
    <style>
      .uuid-fb71358e-5f7a-4caf-afb8-72051a99edb0 {
        fill: #fff;
      }

      .uuid-2db3536f-3d5e-47df-a8d2-e6362aca3250 {
        fill: #2a2f33;
      }

      .uuid-fe5751f5-61e6-42a8-a9cd-0cfcd1efab77 {
        fill: #66471b;
      }

      .uuid-07cc9e88-f13a-4769-922a-814491740ba1 {
        fill: #ffcc4d;
      }

      .uuid-c6153bbb-8d8b-49b9-adb2-4b461aafab3d {
        fill: #231f20;
      }

      .uuid-dc6b56bc-d6da-4a6c-b700-d680682ed673 {
        fill: #e13158;
      }

      .uuid-9157da20-2e87-443a-8d40-19c6c798dba2 {
        fill: #5caade;
        opacity: .28;
      }
    </style>
  </defs>
  <path class="uuid-07cc9e88-f13a-4769-922a-814491740ba1" d="m99.19,49.44c0,27.2-22.05,49.25-49.25,49.25S.69,76.64.69,49.44,22.75.19,49.94.19s49.25,22.05,49.25,49.25"/>
  <g>
    <ellipse class="uuid-fe5751f5-61e6-42a8-a9cd-0cfcd1efab77" cx="53.75" cy="63.98" rx="3.01" ry="2.18"/>
    <ellipse class="uuid-fe5751f5-61e6-42a8-a9cd-0cfcd1efab77" cx="46.25" cy="63.98" rx="3.01" ry="2.18"/>
  </g>
  <g>
    <path class="uuid-fe5751f5-61e6-42a8-a9cd-0cfcd1efab77" d="m77.99,84.67c-.15,0-.3-.02-.45-.08-.7-.25-1.07-1.02-.83-1.72,1.39-3.96.85-6.88-1.76-9.46-.53-.52-.53-1.38-.01-1.91.52-.53,1.38-.53,1.91-.01,3.35,3.32,4.14,7.33,2.41,12.26-.19.55-.72.9-1.27.9Z"/>
    <path class="uuid-fe5751f5-61e6-42a8-a9cd-0cfcd1efab77" d="m22.01,84.7c-.56,0-1.08-.35-1.27-.9-1.73-4.94-.94-8.95,2.41-12.26.53-.52,1.38-.52,1.91.01.52.53.52,1.38-.01,1.91-2.61,2.58-3.15,5.5-1.76,9.46.25.7-.12,1.47-.83,1.72-.15.05-.3.08-.45.08Z"/>
  </g>
  <path class="uuid-2db3536f-3d5e-47df-a8d2-e6362aca3250" d="m34.16,62.54c.71,0,1.4-.15,2.05-.42-.65.27-1.34.42-2.06.42,0,0,0,0,0,0Z"/>
  <path class="uuid-2db3536f-3d5e-47df-a8d2-e6362aca3250" d="m36.37,62.05s-.05.02-.07.03c.02,0,.05-.02.07-.03Z"/>
  <path class="uuid-2db3536f-3d5e-47df-a8d2-e6362aca3250" d="m41.36,52.46s0-.06,0-.09c0,.03,0,.07,0,.1,0,0,0-.01,0-.02Z"/>
  <path class="uuid-2db3536f-3d5e-47df-a8d2-e6362aca3250" d="m29.45,44.89s.03-.04.05-.06c-.02.02-.03.04-.05.06Z"/>
  <path class="uuid-2db3536f-3d5e-47df-a8d2-e6362aca3250" d="m43.4,33.71c-9.38-9.38-24.44-9.49-25.08-9.49-1.59,0-2.88,1.29-2.88,2.87,0,1.59,1.28,2.88,2.87,2.89.08,0,11.4,2.2,11.37,2.24l11.6,6.38s.05.02.08.02c.74,0,1.47-.28,2.04-.84,1.13-1.13,1.13-2.95,0-4.07Z"/>
  <path class="uuid-9157da20-2e87-443a-8d40-19c6c798dba2" d="m36.3,62.08s-.06.02-.09.03c.03-.01.06-.02.09-.03Z"/>
  <path class="uuid-9157da20-2e87-443a-8d40-19c6c798dba2" d="m41.36,52.37c0-.46-.03-.92-.08-1.37,0,0-.02,0-.03,0,.05.45.1.9.1,1.37Z"/>
  <path class="uuid-9157da20-2e87-443a-8d40-19c6c798dba2" d="m36.37,62.05c2.9-1.3,4.99-5.09,4.99-9.56,0,0,0-.01,0-.02,0,4.48-2.1,8.28-4.99,9.58Z"/>
  <path class="uuid-9157da20-2e87-443a-8d40-19c6c798dba2" d="m29.5,44.83c.06-.07.12-.14.18-.21-.06.07-.12.14-.18.21Z"/>
  <path class="uuid-9157da20-2e87-443a-8d40-19c6c798dba2" d="m26.96,52.46c0-3.03.97-5.72,2.49-7.57-1.53,1.84-2.5,4.56-2.5,7.6,0,5.55,3.23,10.05,7.2,10.05,0,0,0,0,0,0-3.98,0-7.2-4.51-7.2-10.08Z"/>
  <path class="uuid-2db3536f-3d5e-47df-a8d2-e6362aca3250" d="m81.68,24.22c-.64,0-15.7.11-25.08,9.49-1.13,1.13-1.13,2.95,0,4.07.56.56,1.3.84,2.04.84.03,0,.06-.01.09-.02l11.49-6.5c5.93-2.06,11.39-2.12,11.47-2.12,1.59,0,2.87-1.3,2.87-2.89,0-1.59-1.29-2.87-2.88-2.87Z"/>
  <path class="uuid-2db3536f-3d5e-47df-a8d2-e6362aca3250" d="m58.65,52.49c0-.22,0-.44.02-.65-.02.2-.03.41-.03.62,0,5.57,3.22,10.08,7.2,10.08,0,0,0,0,0,0-3.98,0-7.2-4.5-7.2-10.05Z"/>
  <path class="uuid-9157da20-2e87-443a-8d40-19c6c798dba2" d="m58.73,51c-.03.28-.05.56-.06.84.02-.28.05-.56.08-.84,0,0,0,0-.01,0Z"/>
  <path class="uuid-9157da20-2e87-443a-8d40-19c6c798dba2" d="m73.04,52.46c0,5.57-3.22,10.08-7.19,10.08,0,0,0,0,0,0,3.98,0,7.2-4.5,7.2-10.05,0-3.26-1.12-6.16-2.84-7.99,0,0,0,0,0,0,1.71,1.84,2.83,4.71,2.83,7.96Z"/>
  <path class="uuid-2db3536f-3d5e-47df-a8d2-e6362aca3250" d="m99.2,38.66c-.02-.89-.06-1.77-.1-2.66-.09-1.66-.43-3.28-1.31-4.8-.36-.62-.26-1.39-.37-2.09-.12-.76-.2-1.54-.37-2.29-.13-.58-.37-1.15-.54-1.72-.64-2.06-1.35-4.11-1.85-6.2-.35-1.47-.47-2.96-1.47-4.29-.45-.61-.41-1.41-.61-2.21-.15-.05-.46-.16-.77-.28-3.17-1.18-5.71-3-9.22-3.83-1.71-.41-3.48-.75-5.26-1.04-.19-.03-.39-.06-.58-.09C55.6-5.06,34.76,1.36,26.83,4.65c-2.28.32-4.42.89-6.5,1.64-2.02.74-4.15,1.36-6.35,1.86-.9.2-1.43.45-1.83,1.01-1.21,1.68-2.65,3.27-3.83,4.96-1.27,1.82-2.42,3.69-3.48,5.58-.86,1.53-1.47,3.14-2.2,4.7-.31.67-.87,1.3-.92,1.99-.16,2.11-.06,4.25-.18,6.37-.08,1.35-.43,2.67-.59,4.01-.04.35-.08.7-.12,1.05-.01.12-.02.24-.04.36.91.15,1.81.29,2.72.43-.19-.15-.27-.31-.25-.5.01-.1.05-.21.12-.33,2.47-.01,3.14-.41,3.73-2.14.03-.09-.01-.21.05-.28,1.76-2.11.15-4.55.33-6.82.16-2.3.48-4.52,2.43-6.44,1.04-1.02,1.43-2.35,2.23-3.49.56-.79,1.33-1.51,2-2.27,1.55.75,2.16,1.51,2.13,2.52-.02.77.59,1.27,1.88,1.31.53.02,1.07.11,1.58.16.41,1.39,1.35,1.73,3.43,1.55,1.13-.1,2.4.23,3.58.2.9-.03,1.91-.18,2.6-.5,1.42-.67,3.06-1.26,3.45-2.65.76.66,1.64,1.07,2.68.6.76-.35,1.35-.84,2.07-1.31.13.29.25.62.41.93.64,1.23,2.23,1.75,3.93,1.77,2.35.03,4.7-.22,7.03-.45.45-.04.83-.35,1.25-.52.35-.15.72-.42,1.07-.41,1.9.07,3.26-.65,4.66-1.33.29-.14.68-.31,1-.3,2.57.1,5.14.19,7.71.29.34.01.86.28.93.49.75,2.32,6.52,3.38,9.1,1.75.32-.2.87-.26,1.32-.35,1.05-.23,2.1-.47,3.16-.65.38-.06.9-.02,1.19.11,1.58.71,3.31.12,4.93-.14.42-.07.69-.85,1.05-1.34,1.8.74,3.48,1.51,3.61,3.18.03.38.77.67.96,1.06.4.81.82,1.64.95,2.5.27,1.79.4,3.61.49,5.42.06,1.16-.21,2.36-.04,3.5.07.49,1.01.83,1.39,1.3.29.35.58.83.41,1.21-.46,1-.2,1.97,1.11,2.43.52.18,1.18.22,1.88.31.09.01.18.02.27.04,0,0,0,0,0,0,.62-.09,1.24-.19,1.86-.29,0-.02,0-.04,0-.07Z"/>
  <g>
    <path class="uuid-dc6b56bc-d6da-4a6c-b700-d680682ed673" d="m50.14,22.7c-.85.24-1.76.23-2.63-.01l-1.32-.38c-.26-.08-.42-.35-.34-.62.08-.27.35-.42.62-.34l1.32.38c1,.28,2.05.16,2.96-.34s1.57-1.34,1.85-2.34l.38-1.32c.08-.27.35-.42.62-.34.26.08.42.35.34.62l-.38,1.32c-.36,1.26-1.18,2.3-2.33,2.94-.35.19-.71.34-1.09.45Z"/>
    <path class="uuid-dc6b56bc-d6da-4a6c-b700-d680682ed673" d="m60.06,26.18c-.09.02-.18.02-.27,0l-1.32-.38c-2.6-.74-4.11-3.45-3.37-6.05l.38-1.32c.08-.26.35-.42.62-.34.26.08.42.35.34.62l-.38,1.32c-.59,2.07.62,4.23,2.68,4.82l1.32.38c.26.08.42.35.34.62-.05.17-.19.3-.35.34Z"/>
    <path class="uuid-dc6b56bc-d6da-4a6c-b700-d680682ed673" d="m49.96,31.08c-.09.02-.18.02-.27,0-.26-.08-.42-.35-.34-.62l.38-1.32c.59-2.07-.62-4.23-2.68-4.82l-1.32-.38c-.26-.08-.42-.35-.34-.62.08-.27.35-.42.62-.34l1.32.38c2.6.74,4.11,3.45,3.37,6.05l-.38,1.32c-.05.17-.19.3-.35.34Z"/>
    <path class="uuid-dc6b56bc-d6da-4a6c-b700-d680682ed673" d="m52.46,31.8c-.09.02-.18.02-.27,0-.26-.08-.42-.35-.34-.62l.38-1.32c.36-1.26,1.18-2.3,2.33-2.94,1.14-.64,2.46-.79,3.72-.43l1.32.38c.26.08.42.35.34.62s-.35.42-.62.34l-1.32-.38c-1-.28-2.05-.16-2.96.34-.91.51-1.57,1.34-1.85,2.34l-.38,1.32c-.05.17-.19.3-.35.34Z"/>
  </g>
  <g>
    <path class="uuid-fe5751f5-61e6-42a8-a9cd-0cfcd1efab77" d="m65.04,78.34c-7.21-.08-7.26,4.03-15.67,3.94-8.41-.09-8.35-4.2-15.55-4.27-2.4-.03-3.62.99-3.63,2.02-.05,3.08,5.83,12.38,19.04,12.52,13.21.14,19.35-9.03,19.4-12.11.02-1.03-1.17-2.07-3.58-2.09Z"/>
    <path class="uuid-fe5751f5-61e6-42a8-a9cd-0cfcd1efab77" d="m68.72,79.03c-2.39-1.05-7.12-6.24-11.92-6.29-4.8-.05-4.82.98-7.22.95-2.4-.03-2.39-1.05-7.19-1.1-4.8-.05-9.68,5.03-12.1,6.03,0,0-2.42,1.06-2.45,3.05-.03,1.99,2.37,2.08,2.37,2.08,8.41.09,12.04-1.93,12.04-1.93,0,0,3.57,2.09,7.18,2.13s7.24-1.98,7.24-1.98c0,0,3.57,2.09,11.98,2.18,0,0,2.4-.04,2.43-2.03.03-1.99-2.36-3.1-2.36-3.1Z"/>
  </g>
  <g>
    <circle class="uuid-fb71358e-5f7a-4caf-afb8-72051a99edb0" cx="25.91" cy="51.42" r="15.89"/>
    <path class="uuid-c6153bbb-8d8b-49b9-adb2-4b461aafab3d" d="m25.91,67.4c-8.82,0-15.99-7.17-15.99-15.99s7.17-15.99,15.99-15.99,15.99,7.17,15.99,15.99-7.17,15.99-15.99,15.99Zm0-31.78c-8.71,0-15.8,7.09-15.8,15.8s7.09,15.8,15.8,15.8,15.8-7.09,15.8-15.8-7.09-15.8-15.8-15.8Z"/>
  </g>
  <g>
    <circle class="uuid-fb71358e-5f7a-4caf-afb8-72051a99edb0" cx="74.09" cy="51.42" r="15.89"/>
    <path class="uuid-c6153bbb-8d8b-49b9-adb2-4b461aafab3d" d="m74.09,67.4c-8.82,0-15.99-7.17-15.99-15.99s7.17-15.99,15.99-15.99,15.99,7.17,15.99,15.99-7.17,15.99-15.99,15.99Zm0-31.78c-8.71,0-15.8,7.09-15.8,15.8s7.09,15.8,15.8,15.8,15.8-7.09,15.8-15.8-7.09-15.8-15.8-15.8Z"/>
  </g>
  <g>
    <path class="uuid-2db3536f-3d5e-47df-a8d2-e6362aca3250" d="m80.35,49.37c-1.24,3.04-4.59,4.93-7.86,4.67-2.84-.21-5.53-2.1-6.69-4.67.69.24,1.3.53,1.97.78,1.43.57,2.93,1.05,4.46,1.19,2.87.24,5.42-.76,8.12-1.97h0Z"/>
    <path class="uuid-2db3536f-3d5e-47df-a8d2-e6362aca3250" d="m35.55,49.65c-1.24,3.04-4.59,4.93-7.86,4.67-2.84-.21-5.53-2.1-6.69-4.67.69.24,1.3.53,1.97.78,1.43.57,2.93,1.05,4.46,1.19,2.87.24,5.42-.76,8.12-1.97h0Z"/>
  </g>
  <path class="uuid-2db3536f-3d5e-47df-a8d2-e6362aca3250" d="m99.45,39.56c-.5-.49-3.74.81-7.01-.86-6.75-3.44-23.8-6.76-34.9,1.11-1.19.84-6.16.98-7.54.92-1.39.06-6.36-.08-7.54-.92-11.1-7.87-28.15-4.55-34.9-1.11-3.27,1.67-6.5.37-7.01.86-.73.7-.73,3.53,0,4.24.73.7,4.36,1.52,5.08,3.63.73,2.12.73,14.62,6.53,18.95,5.42,4.05,18.08,5.26,26.1.7,7-3.98,6.75-12.35,8.03-17.35.46-1.78,1.75-2.68,3.72-2.68s3.26.9,3.72,2.68c1.28,4.99,1.04,13.37,8.03,17.35,8.02,4.56,20.67,3.34,26.09-.7,5.8-4.32,5.8-16.83,6.53-18.95.72-2.11,4.35-2.93,5.08-3.63.73-.71.73-3.53,0-4.24Zm-59.56,10.77c-.23,3.26-.81,9.52-4.71,11.74-2.39,1.36-5.51,2.19-8.77,2.19h0c-3.61,0-8.62-1.02-10.58-2.48-2.45-1.83-3.38-9.34-3.73-12.15-.22-1.79-.83-6.16,1.14-6.84,3.13-1.06,7.49-1.9,11.95-1.9,2.04,0,8.91.13,12.25,2.19,2.96,1.82,2.57,5.46,2.45,7.25Zm48.01-.75c-.35,2.81-1.28,10.37-3.73,12.19-1.96,1.46-6.97,2.48-10.58,2.48h0c-3.26,0-6.38-.83-8.77-2.19-3.9-2.22-4.48-8.44-4.71-11.7-.12-1.79-.52-5.46,2.45-7.28,3.35-2.06,10.21-2.2,12.25-2.2,4.46,0,8.82.82,11.95,1.88,1.97.67,1.37,5.02,1.15,6.81Z"/>
</svg>