<?xml version="1.0" encoding="UTF-8"?>
<svg id="Layer_1" data-name="Layer 1" xmlns="http://www.w3.org/2000/svg" viewBox="0 0 99.98 94">
  <defs>
    <style>
      .cls-1 {
        fill: #fff;
      }

      .cls-2 {
        fill: #991b1e;
      }

      .cls-3 {
        fill: #2a2f33;
      }

      .cls-4 {
        fill: #19733a;
      }

      .cls-5 {
        fill: #fffef1;
      }

      .cls-6 {
        fill: #f0e0d6;
      }

      .cls-7 {
        fill: #991d20;
      }

      .cls-8 {
        fill: #231f20;
      }

      .cls-9 {
        fill: #5caade;
        opacity: .28;
      }
    </style>
  </defs>
  <g>
    <path class="cls-4" d="m87.6,90.27c2.64-2.78,3.36-6.34,1.49-10.08-.66-1.31-.17-2.29,1.15-3.03,1.18-.66,2.37-1.43,3.29-2.39,4.23-4.43,3.83-12.42-3.23-14.82-3.6-1.22-7.33-1.87-11.17-1.82-3.34.04-6.68-.21-10.01,0-5.26.34-10.51.96-15.79,1.46-.13,1.12-.42,1.91-.25,2.58.65,2.58,1.48,5.12,2.17,7.7,1.1,4.12,2.27,8.25,4.69,11.79,1.78,2.6,3.31,5.43,5.94,7.39,4.28,3.18,8.69,5.55,14.38,4.79,2.98-.39,5.5-1.66,7.33-3.58Z"/>
    <path class="cls-4" d="m62.89,46.4c2.54.06,5.11.17,7.63-.06,1.76-.16,3.49-.79,5.22-1.26,3.21-.87,6.45-1.62,9.59-2.69,6.18-2.1,11.38-5.77,13.63-11.99,1.67-4.62,1.48-9.51-2.09-13.78-2.01-2.41-4.81-2.34-7.31-3.12-1.12-.35-2.59.39-3.58.58-1.69-2.61-2.27-5.46-4.6-7.26-2.55-1.97-5.52-2.94-8.49-1.75-2.69,1.08-4.72,3.34-5.73,6.16-1.01,2.82-1.87,5.71-2.58,8.62-.72,2.96-1.33,5.96-1.73,8.98-.55,4.22-.91,8.47-1.24,12.71-.1,1.31.08,2.66.28,3.97.05.35.63.89.98.89Z"/>
    <path class="cls-4" d="m41,12.63C37.13,4.81,31.46-.46,22.12.03c-3.61.19-9.27,2.82-9.32,7.87-.02,2.15.01,4.3.03,6.7-.86.44-2.2,1.05-3.49,1.77-3.08,1.73-4.97,4.38-5.17,7.88-.19,3.36,1.52,5.83,4.38,7.67,5.65,3.63,12.17,3.64,18.43,4.5,4.27.59,8.67.28,13.01.29,2.14,0,4.28-.17,6.57-.27-.13-.74-.26-1.22-.28-1.7-.45-7.68-1.83-15.15-5.28-22.11Z"/>
    <path class="cls-4" d="m34.59,81.47c.82-5.33,1.45-10.7,1.8-16.08.33-5.11.21-10.25.29-15.82-4.01.58-7.6.96-11.12,1.64-7.38,1.43-14.45,3.59-20.11,8.96-4.54,4.32-6.84,11.65-4.56,17.42,1.6,4.05,5.85,7.08,9.38,6.37,1.37-.27,3.02-1.3,3.99-.83,1.02.49,1.32,2.38,2.02,3.62,3.52,6.19,10.28,7,14.67,2.27,2.03-2.19,3.2-4.78,3.63-7.56Z"/>
  </g>
  <path class="cls-5" d="m96.04,50c0,24.26-19.67,43.93-43.93,43.93S8.18,74.26,8.18,50,27.85,6.07,52.11,6.07s43.93,19.67,43.93,43.93"/>
  <g>
    <ellipse class="cls-6" cx="55.51" cy="62.97" rx="2.69" ry="1.94"/>
    <ellipse class="cls-6" cx="48.82" cy="62.97" rx="2.69" ry="1.94"/>
  </g>
  <g>
    <path class="cls-6" d="m77.14,81.43c-.13,0-.27-.02-.4-.07-.63-.22-.96-.91-.74-1.53,1.24-3.53.76-6.13-1.57-8.44-.47-.47-.48-1.23,0-1.7.47-.47,1.23-.48,1.7,0,2.99,2.96,3.69,6.54,2.15,10.94-.17.49-.64.8-1.13.8Z"/>
    <path class="cls-6" d="m27.19,81.45c-.5,0-.96-.31-1.13-.8-1.55-4.4-.84-7.98,2.15-10.94.47-.47,1.23-.46,1.7,0,.47.47.46,1.23,0,1.7-2.33,2.3-2.81,4.9-1.57,8.44.22.63-.11,1.31-.74,1.53-.13.05-.27.07-.4.07Z"/>
  </g>
  <path class="cls-3" d="m38.03,61.69c.64,0,1.25-.13,1.83-.37-.58.24-1.2.37-1.83.37,0,0,0,0,0,0Z"/>
  <path class="cls-3" d="m40,61.25s-.04.02-.06.03c.02,0,.04-.02.06-.03Z"/>
  <path class="cls-3" d="m44.46,52.69s0-.05,0-.08c0,.03,0,.06,0,.09,0,0,0-.01,0-.02Z"/>
  <path class="cls-3" d="m33.83,45.94s.03-.04.05-.05c-.02.02-.03.04-.05.05Z"/>
  <path class="cls-6" d="m46.27,35.97c-8.36-8.36-21.8-8.46-22.37-8.46-1.42,0-2.57,1.15-2.57,2.56,0,1.42,1.15,2.57,2.56,2.57.07,0,10.17,1.97,10.14,2l10.35,5.69s.05.01.07.01c.66,0,1.32-.25,1.82-.75,1-1,1-2.63,0-3.63Z"/>
  <path class="cls-9" d="m39.94,61.28s-.05.02-.08.03c.03-.01.05-.02.08-.03Z"/>
  <path class="cls-9" d="m44.46,52.61c0-.41-.03-.82-.07-1.22,0,0-.02,0-.02,0,.04.4.09.81.09,1.22Z"/>
  <path class="cls-9" d="m40,61.25c2.58-1.16,4.45-4.54,4.45-8.53,0,0,0-.01,0-.02,0,4-1.87,7.38-4.45,8.55Z"/>
  <path class="cls-9" d="m33.88,45.89c.05-.06.11-.12.16-.19-.06.06-.11.12-.16.19Z"/>
  <path class="cls-9" d="m31.61,52.69c0-2.7.87-5.11,2.22-6.75-1.36,1.64-2.23,4.07-2.23,6.78,0,4.95,2.88,8.96,6.43,8.96,0,0,0,0,0,0-3.55,0-6.42-4.02-6.42-8.99Z"/>
  <path class="cls-6" d="m80.43,27.51c-.57,0-14.01.1-22.37,8.46-1,1-1,2.63,0,3.63.5.5,1.16.75,1.82.75.03,0,.05-.01.08-.02l10.25-5.8c5.29-1.84,10.16-1.89,10.23-1.89,1.42,0,2.56-1.16,2.56-2.57,0-1.42-1.15-2.56-2.57-2.56Z"/>
  <path class="cls-3" d="m59.88,52.72c0-.2,0-.39.01-.58-.01.18-.02.36-.02.55,0,4.97,2.88,8.99,6.42,8.99,0,0,0,0,0,0-3.55,0-6.42-4.02-6.42-8.96Z"/>
  <path class="cls-9" d="m59.95,51.39c-.03.25-.04.5-.06.75.02-.25.04-.5.07-.75,0,0,0,0-.01,0Z"/>
  <path class="cls-9" d="m72.72,52.69c0,4.97-2.87,8.99-6.42,8.99,0,0,0,0,0,0,3.55,0,6.43-4.01,6.43-8.96,0-2.91-.99-5.49-2.53-7.13,0,0,0,0,0,0,1.52,1.64,2.52,4.2,2.52,7.1Z"/>
  <g>
    <path class="cls-7" d="m66.07,76.15c-6.43-.07-6.48,3.59-13.98,3.51-7.5-.08-7.45-3.74-13.88-3.81-2.14-.02-3.23.88-3.24,1.8-.04,2.75,5.2,11.04,16.98,11.17,11.79.13,17.26-8.06,17.3-10.81.01-.92-1.05-1.85-3.19-1.87Z"/>
    <path class="cls-2" d="m69.35,76.76c-2.13-.94-6.35-5.56-10.64-5.61-4.29-.05-4.3.87-6.44.85-2.14-.02-2.13-.94-6.42-.98-4.28-.05-8.64,4.49-10.79,5.38,0,0-2.16.95-2.18,2.72-.02,1.77,2.12,1.85,2.12,1.85,7.5.08,10.74-1.72,10.74-1.72,0,0,3.19,1.87,6.4,1.9s6.46-1.76,6.46-1.76c0,0,3.19,1.87,10.69,1.95,0,0,2.14-.03,2.17-1.81.02-1.78-2.1-2.77-2.1-2.77Z"/>
  </g>
  <path class="cls-2" d="m96.06,39.7c-.02-.79-.05-1.58-.09-2.37-.08-1.48-.39-2.92-1.17-4.28-.32-.55-.23-1.24-.33-1.86-.11-.68-.18-1.37-.33-2.04-.11-.52-.33-1.02-.48-1.54-.57-1.84-1.2-3.67-1.65-5.53-.31-1.31-.42-2.64-1.31-3.83-.4-.54-.36-1.26-.54-1.97-.14-.05-.41-.15-.69-.25-2.83-1.06-5.09-2.68-8.22-3.42-1.53-.36-3.1-.67-4.69-.93-.17-.03-.35-.05-.52-.08C57.16.7,38.57,6.42,31.5,9.36c-2.04.28-3.95.79-5.8,1.47-1.8.66-3.7,1.22-5.66,1.66-.8.18-1.27.4-1.64.9-1.08,1.5-2.36,2.92-3.41,4.42-1.13,1.62-2.16,3.29-3.1,4.97-.76,1.36-1.31,2.8-1.97,4.2-.28.59-.78,1.16-.82,1.78-.14,1.88-.05,3.79-.16,5.68-.07,1.2-.38,2.38-.52,3.58-.04.31-.07.62-.11.93-.01.11-.02.21-.03.32.81.13,1.62.26,2.43.38-.17-.13-.24-.28-.22-.45.01-.09.05-.19.11-.29,2.2-.01,2.8-.36,3.33-1.91.03-.08-.01-.18.05-.25,1.57-1.88.14-4.06.29-6.08.15-2.05.42-4.03,2.17-5.75.93-.91,1.27-2.1,1.99-3.12.5-.71,1.19-1.35,1.79-2.03,1.38.67,1.93,1.35,1.9,2.25-.02.69.53,1.13,1.68,1.17.48.02.96.09,1.41.14.36,1.24,1.2,1.55,3.06,1.39,1.01-.09,2.14.21,3.19.18.81-.02,1.7-.16,2.32-.45,1.26-.6,2.73-1.12,3.08-2.36.68.59,1.46.96,2.39.53.67-.31,1.2-.75,1.84-1.17.11.26.22.55.37.83.57,1.1,1.99,1.56,3.5,1.58,2.09.03,4.19-.2,6.27-.4.4-.04.74-.31,1.12-.47.31-.13.65-.37.95-.36,1.7.06,2.91-.58,4.16-1.19.26-.13.61-.28.89-.26,2.29.09,4.59.17,6.88.26.31.01.77.25.83.44.67,2.07,5.82,3.01,8.11,1.56.28-.18.77-.23,1.18-.32.94-.2,1.87-.42,2.82-.58.34-.06.8-.02,1.06.1,1.41.64,2.96.11,4.4-.13.38-.06.61-.75.94-1.19,1.6.66,3.1,1.35,3.22,2.84.03.34.68.59.86.94.36.72.74,1.46.85,2.23.24,1.6.36,3.22.44,4.84.05,1.04-.19,2.11-.03,3.12.07.43.9.74,1.24,1.16.26.31.52.74.36,1.08-.41.89-.18,1.76.99,2.17.46.16,1.05.2,1.68.28.08.01.16.02.24.03,0,0,0,0,0,0,.55-.08,1.11-.17,1.66-.26,0-.02,0-.04,0-.06Z"/>
  <g>
    <circle class="cls-1" cx="30.33" cy="51.39" r="14.18"/>
    <path class="cls-8" d="m30.33,65.65c-7.86,0-14.26-6.4-14.26-14.26s6.4-14.26,14.26-14.26,14.26,6.4,14.26,14.26-6.4,14.26-14.26,14.26Zm0-28.35c-7.77,0-14.09,6.32-14.09,14.09s6.32,14.09,14.09,14.09,14.09-6.32,14.09-14.09-6.32-14.09-14.09-14.09Z"/>
  </g>
  <g>
    <circle class="cls-1" cx="73.18" cy="51.39" r="14.18"/>
    <path class="cls-8" d="m73.18,65.65c-7.86,0-14.26-6.4-14.26-14.26s6.4-14.26,14.26-14.26,14.26,6.4,14.26,14.26-6.4,14.26-14.26,14.26Zm0-28.35c-7.77,0-14.09,6.32-14.09,14.09s6.32,14.09,14.09,14.09,14.09-6.32,14.09-14.09-6.32-14.09-14.09-14.09Z"/>
  </g>
  <path class="cls-4" d="m32.88,43.76c-1.51,0-2.89.73-3.99,1.94-.05.06-.11.12-.16.19-.02.02-.03.04-.05.05-1.35,1.65-2.22,4.05-2.22,6.75,0,4.97,2.87,8.99,6.42,8.99.64,0,1.25-.13,1.83-.37.03-.01.05-.02.08-.03.02,0,.04-.02.06-.03,2.58-1.16,4.45-4.55,4.45-8.55,0-.03,0-.06,0-.09,0-.42-.05-.82-.09-1.22,0,0,.02,0,.02,0-.46-4.32-3.13-7.63-6.36-7.63Z"/>
  <path class="cls-3" d="m96.28,41.19c-.45-.44-3.33.72-6.25-.77-6.02-3.07-21.23-6.03-31.13.99-1.06.75-5.49.88-6.73.82-1.24.06-5.67-.07-6.73-.82-9.9-7.02-25.11-4.06-31.13-.99-2.92,1.49-5.8.33-6.25.77-.65.63-.65,3.15,0,3.78.65.63,3.89,1.35,4.53,3.24.65,1.89.66,13.04,5.82,16.9,4.84,3.61,16.12,4.7,23.28.63,6.24-3.55,6.02-11.02,7.17-15.47.41-1.59,1.56-2.39,3.31-2.39s2.91.8,3.31,2.39c1.14,4.45.92,11.92,7.17,15.47,7.15,4.07,18.44,2.98,23.28-.63,5.17-3.85,5.17-15.01,5.82-16.9.64-1.89,3.88-2.62,4.53-3.24.65-.63.66-3.15,0-3.78Zm-53.13,9.6c-.2,2.91-.72,8.49-4.2,10.47-2.13,1.22-4.91,1.95-7.82,1.95h0c-3.22,0-7.69-.91-9.44-2.22-2.18-1.63-3.02-8.33-3.33-10.84-.2-1.6-.74-5.5,1.02-6.1,2.79-.95,6.68-1.69,10.66-1.69,1.82,0,7.95.11,10.93,1.95,2.64,1.62,2.29,4.87,2.18,6.47Zm42.83-.67c-.31,2.51-1.14,9.25-3.33,10.88-1.75,1.3-6.21,2.22-9.44,2.22h0c-2.91,0-5.69-.74-7.83-1.95-3.48-1.98-4-7.53-4.2-10.43-.11-1.6-.46-4.87,2.18-6.49,2.99-1.84,9.11-1.96,10.93-1.96,3.98,0,7.87.73,10.66,1.68,1.76.6,1.22,4.48,1.02,6.07Z"/>
  <path class="cls-4" d="m71.46,43.76c-3.23,0-5.9,3.31-6.36,7.63,0,0,0,0,.01,0-.02.25-.05.5-.07.75,0,.19-.01.39-.01.58,0,4.95,2.87,8.96,6.42,8.96,3.55,0,6.42-4.03,6.42-8.99,0-2.9-1-5.45-2.52-7.1,0,0,0,0,0,0-1.08-1.15-2.43-1.83-3.89-1.83Z"/>
</svg>