<?xml version="1.0" encoding="UTF-8"?>
<svg id="uuid-03ca8c5a-e07c-451c-ab40-a896dcc34102" data-name="Layer 1" xmlns="http://www.w3.org/2000/svg" viewBox="0 0 94.62 100">
  <defs>
    <style>
      .uuid-8a3edba8-f2c9-4043-aa50-ce2f55ae2893 {
        fill: #fff;
      }

      .uuid-f7ec6e66-db1c-4e9b-9098-ccfde07016b0 {
        fill: #2a2f33;
      }

      .uuid-aeace85f-f867-4fc7-b6dd-c772c922040e {
        fill: #66471b;
      }

      .uuid-301e3dfc-c5d0-484e-b346-b93826ae0274 {
        fill: #e95a6f;
      }

      .uuid-40716917-1038-4616-b1c6-2b61891861a1 {
        fill: #de3045;
      }

      .uuid-632187ae-9b30-47f3-b93b-479c02b5d386 {
        fill: #f4abba;
      }

      .uuid-0163d900-95e8-471b-a822-f194c55304de {
        fill: #f18f25;
      }

      .uuid-46ccc4fb-8018-45ea-8079-56f7631a08b5 {
        fill: #ffcc4d;
      }

      .uuid-0f20aa88-2943-4eec-87f3-20027b146e5f {
        fill: #65abde;
      }

      .uuid-3c076e58-53cb-453b-8025-10a85d6222ed {
        fill: #231f20;
      }

      .uuid-00194845-d428-4df1-a2bc-428faecf1eb1 {
        fill: #5caade;
        opacity: .28;
      }
    </style>
  </defs>
  <g>
    <g>
      <path class="uuid-46ccc4fb-8018-45ea-8079-56f7631a08b5" d="m29.69,7.84C23.01,3.42,10.16-1.9,8.77.68c-4.36,8.07,1.78,27.26,2.24,28.67,3.25-9.34,10.01-17.03,18.69-21.51Z"/>
      <path class="uuid-46ccc4fb-8018-45ea-8079-56f7631a08b5" d="m83.51,29.34c.46-1.41,6.6-20.6,2.24-28.67-1.39-2.58-14.24,2.75-20.93,7.16,8.69,4.48,15.44,12.17,18.69,21.51Z"/>
      <path class="uuid-f7ec6e66-db1c-4e9b-9098-ccfde07016b0" d="m83.67,29.81c-.05-.16-.11-.31-.16-.47-.02.05-.03.08-.03.08.06.13.13.26.19.38Z"/>
      <path class="uuid-f7ec6e66-db1c-4e9b-9098-ccfde07016b0" d="m11,29.34c-.05.16-.11.31-.16.47.06-.13.12-.25.19-.38,0,0-.01-.03-.03-.08Z"/>
    </g>
    <path class="uuid-0163d900-95e8-471b-a822-f194c55304de" d="m11.03,6.79c1.01-3.04,12.77,2.26,15.03,4.53,0,0-10.51,6.79-12.77,13.58,0,0-4.53-11.32-2.26-18.11Zm72.45,0c-1.01-3.04-12.77,2.26-15.03,4.53,0,0,10.51,6.79,12.77,13.58,0,0,4.53-11.32,2.26-18.11Z"/>
  </g>
  <path class="uuid-46ccc4fb-8018-45ea-8079-56f7631a08b5" d="m93.85,51c0,25.73-20.86,46.6-46.6,46.6S.66,76.74.66,51,21.52,4.41,47.25,4.41s46.6,20.86,46.6,46.6"/>
  <g>
    <ellipse class="uuid-aeace85f-f867-4fc7-b6dd-c772c922040e" cx="50.86" cy="64.76" rx="2.85" ry="2.06"/>
    <ellipse class="uuid-aeace85f-f867-4fc7-b6dd-c772c922040e" cx="43.76" cy="64.76" rx="2.85" ry="2.06"/>
  </g>
  <g>
    <path class="uuid-aeace85f-f867-4fc7-b6dd-c772c922040e" d="m73.8,84.34c-.14,0-.28-.02-.42-.07-.66-.23-1.01-.96-.78-1.62,1.32-3.75.8-6.51-1.67-8.95-.5-.5-.5-1.3,0-1.8.5-.5,1.3-.5,1.8,0,3.17,3.14,3.92,6.93,2.28,11.6-.18.52-.68.85-1.2.85Z"/>
    <path class="uuid-aeace85f-f867-4fc7-b6dd-c772c922040e" d="m20.82,84.37c-.53,0-1.02-.33-1.2-.85-1.64-4.67-.89-8.47,2.28-11.61.5-.5,1.31-.49,1.8,0,.5.5.49,1.31,0,1.8-2.47,2.44-2.98,5.2-1.67,8.95.23.66-.12,1.39-.78,1.62-.14.05-.28.07-.42.07Z"/>
  </g>
  <path class="uuid-f7ec6e66-db1c-4e9b-9098-ccfde07016b0" d="m32.32,63.4c.68,0,1.33-.14,1.94-.4-.62.26-1.27.4-1.94.4,0,0,0,0,0,0Z"/>
  <path class="uuid-f7ec6e66-db1c-4e9b-9098-ccfde07016b0" d="m34.41,62.94s-.04.02-.06.03c.02,0,.04-.02.06-.03Z"/>
  <path class="uuid-f7ec6e66-db1c-4e9b-9098-ccfde07016b0" d="m39.13,53.86s0-.06,0-.08c0,.03,0,.07,0,.1,0,0,0-.01,0-.02Z"/>
  <path class="uuid-f7ec6e66-db1c-4e9b-9098-ccfde07016b0" d="m27.86,46.7s.03-.04.05-.06c-.02.02-.03.04-.05.06Z"/>
  <path class="uuid-00194845-d428-4df1-a2bc-428faecf1eb1" d="m34.35,62.97s-.05.02-.08.03c.03-.01.06-.02.08-.03Z"/>
  <path class="uuid-00194845-d428-4df1-a2bc-428faecf1eb1" d="m39.13,53.78c0-.44-.03-.87-.07-1.29,0,0-.02,0-.03,0,.05.43.09.86.1,1.3Z"/>
  <path class="uuid-00194845-d428-4df1-a2bc-428faecf1eb1" d="m34.41,62.94c2.74-1.23,4.72-4.82,4.72-9.05,0,0,0-.01,0-.02,0,4.24-1.99,7.83-4.72,9.06Z"/>
  <path class="uuid-00194845-d428-4df1-a2bc-428faecf1eb1" d="m27.91,46.64c.06-.07.12-.13.17-.2-.06.06-.12.13-.17.2Z"/>
  <path class="uuid-00194845-d428-4df1-a2bc-428faecf1eb1" d="m25.51,53.86c0-2.87.92-5.42,2.36-7.16-1.45,1.74-2.36,4.32-2.36,7.19,0,5.25,3.05,9.51,6.82,9.51,0,0,0,0,0,0-3.76,0-6.81-4.27-6.81-9.54Z"/>
  <path class="uuid-f7ec6e66-db1c-4e9b-9098-ccfde07016b0" d="m55.5,53.89c0-.21,0-.41.02-.62-.01.19-.03.39-.03.59,0,5.27,3.05,9.54,6.81,9.54,0,0,0,0,0,0-3.76,0-6.81-4.26-6.81-9.51Z"/>
  <path class="uuid-00194845-d428-4df1-a2bc-428faecf1eb1" d="m55.57,52.48c-.03.26-.05.53-.06.79.02-.27.05-.53.07-.8,0,0,0,0-.01,0Z"/>
  <path class="uuid-00194845-d428-4df1-a2bc-428faecf1eb1" d="m69.11,53.86c0,5.27-3.05,9.53-6.81,9.54,0,0,0,0,0,0,3.77,0,6.82-4.26,6.82-9.51,0-3.09-1.06-5.83-2.69-7.56,0,0,0,0,0,0,1.62,1.74,2.68,4.45,2.68,7.53Z"/>
  <g>
    <circle class="uuid-8a3edba8-f2c9-4043-aa50-ce2f55ae2893" cx="24.15" cy="52.48" r="15.04"/>
    <path class="uuid-3c076e58-53cb-453b-8025-10a85d6222ed" d="m24.15,67.61c-8.34,0-15.13-6.79-15.13-15.13s6.79-15.13,15.13-15.13,15.13,6.79,15.13,15.13-6.79,15.13-15.13,15.13Zm0-30.07c-8.24,0-14.95,6.7-14.95,14.95s6.7,14.95,14.95,14.95,14.95-6.7,14.95-14.95-6.7-14.95-14.95-14.95Z"/>
  </g>
  <g>
    <circle class="uuid-8a3edba8-f2c9-4043-aa50-ce2f55ae2893" cx="69.6" cy="52.48" r="15.04"/>
    <path class="uuid-3c076e58-53cb-453b-8025-10a85d6222ed" d="m69.6,67.61c-8.34,0-15.13-6.79-15.13-15.13s6.79-15.13,15.13-15.13,15.13,6.79,15.13,15.13-6.79,15.13-15.13,15.13Zm0-30.07c-8.24,0-14.95,6.7-14.95,14.95s6.7,14.95,14.95,14.95,14.95-6.7,14.95-14.95-6.7-14.95-14.95-14.95Z"/>
  </g>
  <path class="uuid-f7ec6e66-db1c-4e9b-9098-ccfde07016b0" d="m94.1,41.66c-.48-.46-3.54.76-6.63-.81-6.39-3.25-22.52-6.39-33.03,1.05-1.12.8-5.82.93-7.14.87-1.31.06-6.01-.08-7.14-.87-10.5-7.44-26.64-4.3-33.02-1.05-3.09,1.58-6.15.35-6.63.81-.69.67-.69,3.34,0,4.01.69.67,4.12,1.44,4.81,3.44.69,2,.69,13.84,6.18,17.93,5.13,3.83,17.1,4.98,24.69.66,6.62-3.76,6.39-11.69,7.6-16.41.43-1.68,1.65-2.53,3.52-2.53s3.08.85,3.52,2.53c1.21,4.72.98,12.65,7.6,16.41,7.59,4.31,19.56,3.16,24.69-.66,5.48-4.09,5.49-15.92,6.18-17.93.68-2,4.12-2.77,4.81-3.44.69-.67.69-3.34,0-4.01Zm-56.36,10.19c-.21,3.08-.76,9.01-4.46,11.11-2.26,1.29-5.21,2.07-8.3,2.07h0c-3.42,0-8.16-.97-10.01-2.35-2.32-1.73-3.2-8.84-3.53-11.5-.21-1.69-.78-5.83,1.08-6.47,2.96-1.01,7.09-1.79,11.31-1.79,1.93,0,8.43.12,11.6,2.07,2.8,1.72,2.43,5.17,2.31,6.86Zm45.43-.71c-.33,2.66-1.21,9.81-3.53,11.54-1.85,1.38-6.59,2.35-10.01,2.35h0c-3.09,0-6.04-.78-8.3-2.07-3.69-2.1-4.24-7.98-4.46-11.07-.12-1.7-.49-5.17,2.31-6.89,3.17-1.95,9.66-2.08,11.6-2.08,4.22,0,8.35.77,11.31,1.78,1.86.64,1.3,4.75,1.09,6.44Z"/>
  <path class="uuid-aeace85f-f867-4fc7-b6dd-c772c922040e" d="m73.71,36.36c-12.98,0-18.23-10.21-18.45-10.64-.58-1.15-.11-2.56,1.04-3.14,1.15-.58,2.55-.11,3.13,1.04.18.34,4.26,8.07,14.27,8.07,1.29,0,2.34,1.05,2.34,2.34s-1.04,2.34-2.34,2.34Zm-51.41,0c-1.29,0-2.34-1.05-2.34-2.34s1.05-2.34,2.34-2.34c11.88,0,14.01-7.29,14.1-7.6.34-1.23,1.62-1.98,2.85-1.66,1.24.32,1.99,1.57,1.68,2.82-.11.45-2.96,11.12-18.63,11.12Z"/>
  <g>
    <path class="uuid-f7ec6e66-db1c-4e9b-9098-ccfde07016b0" d="m66.15,88.29c-.06,0-.13,0-.19-.02-18.81-4.34-35.71-.05-35.88,0-.25.06-.52.01-.72-.15-.2-.16-.32-.4-.32-.66,0-7.1,8.29-15.34,18.98-15.34s18.98,8.25,18.98,15.34c0,.25-.12.5-.32.66-.15.12-.33.18-.52.18Z"/>
    <path class="uuid-632187ae-9b30-47f3-b93b-479c02b5d386" d="m49.41,74.49v1.85h-2.44s0-1.87,0-1.87c-5.08.28-9.36,2.59-12.18,5.62l.02,1.03c.19,6.55,4.64,12.95,13.38,12.95s13.15-6.37,13.38-12.89l.02-.63c-2.74-3.16-7.02-5.66-12.18-6.06Z"/>
    <path class="uuid-301e3dfc-c5d0-484e-b346-b93826ae0274" d="m48.01,74.42c-.35,0-.69.03-1.03.05v9.93c0,.67.54,1.22,1.22,1.22s1.22-.54,1.22-1.22v-9.91c-.46-.04-.92-.07-1.4-.07Z"/>
  </g>
  <path class="uuid-f7ec6e66-db1c-4e9b-9098-ccfde07016b0" d="m93.87,40.63c-.02-.84-.05-1.68-.1-2.51-.09-1.57-.41-3.1-1.24-4.54-.34-.59-.25-1.31-.35-1.98-.11-.72-.19-1.45-.35-2.17-.12-.55-.35-1.09-.51-1.63-.6-1.95-1.28-3.89-1.75-5.87-.33-1.39-.45-2.8-1.39-4.06-.43-.57-.39-1.33-.58-2.09-.14-.05-.44-.16-.73-.26-3-1.12-5.4-2.84-8.72-3.63-1.62-.39-3.29-.71-4.98-.98-.18-.03-.37-.06-.55-.08C52.61-.74,32.89,5.33,25.39,8.44c-2.16.3-4.19.84-6.15,1.55-1.91.7-3.93,1.29-6,1.76-.85.19-1.35.43-1.74.96-1.15,1.59-2.51,3.1-3.62,4.69-1.2,1.72-2.29,3.49-3.29,5.28-.81,1.45-1.39,2.97-2.09,4.45-.3.63-.82,1.23-.87,1.89-.15,2-.05,4.02-.17,6.02-.07,1.28-.41,2.52-.56,3.79-.04.33-.08.66-.11.99-.01.11-.02.23-.04.34.86.14,1.72.27,2.57.4-.18-.14-.25-.3-.23-.47.01-.1.05-.2.11-.31,2.34-.01,2.97-.38,3.53-2.02.03-.09-.01-.2.05-.27,1.66-1.99.15-4.31.31-6.45.15-2.17.45-4.28,2.3-6.1.98-.97,1.35-2.22,2.11-3.31.53-.75,1.26-1.43,1.9-2.15,1.47.71,2.05,1.43,2.02,2.39-.02.73.56,1.2,1.78,1.24.5.02,1.01.1,1.5.15.38,1.32,1.28,1.64,3.24,1.47,1.07-.09,2.27.22,3.38.19.85-.02,1.81-.17,2.46-.48,1.34-.63,2.9-1.19,3.26-2.5.72.62,1.55,1.01,2.53.56.72-.33,1.28-.79,1.96-1.24.12.27.23.58.39.88.6,1.16,2.11,1.65,3.72,1.67,2.22.03,4.44-.21,6.65-.42.42-.04.79-.33,1.18-.49.33-.14.69-.4,1.01-.38,1.8.07,3.08-.62,4.41-1.26.28-.13.64-.29.95-.28,2.43.09,4.86.18,7.29.27.33.01.81.26.88.46.71,2.19,6.17,3.2,8.61,1.66.3-.19.82-.24,1.25-.33.99-.21,1.99-.45,2.99-.62.36-.06.85-.02,1.13.1,1.5.68,3.14.12,4.67-.13.4-.07.65-.8.99-1.26,1.7.7,3.29,1.43,3.41,3.01.03.36.73.63.91,1,.38.77.78,1.55.9,2.37.26,1.7.38,3.41.46,5.13.05,1.1-.2,2.23-.04,3.31.07.46.95.78,1.32,1.23.27.33.55.79.39,1.14-.43.95-.19,1.87,1.05,2.3.49.17,1.12.21,1.78.29.09.01.17.02.26.04,0,0,0,0,0,0,.59-.09,1.17-.18,1.76-.27,0-.02,0-.04,0-.06Z"/>
  <path class="uuid-0f20aa88-2943-4eec-87f3-20027b146e5f" d="m61.01,94.57c0,3-2.43,5.43-5.43,5.43s-5.43-2.43-5.43-5.43,4.34-10.86,5.43-10.86,5.43,7.86,5.43,10.86Z"/>
  <path class="uuid-40716917-1038-4616-b1c6-2b61891861a1" d="m35.99,48.71c-.99-2.8-4.06-4.27-6.86-3.28-1.7.6-2.9,1.97-3.37,3.57-1.37-.95-3.17-1.27-4.86-.67-2.8.99-4.27,4.06-3.28,6.86.14.4.33.76.54,1.1,2.25,4.12,8.73,7.02,12.66,7.06,3.04-2.49,6.27-8.82,5.43-13.44-.04-.4-.13-.8-.27-1.2Z"/>
  <path class="uuid-40716917-1038-4616-b1c6-2b61891861a1" d="m58.63,48.45c.99-2.8,4.06-4.27,6.86-3.28,1.7.6,2.9,1.97,3.37,3.57,1.37-.95,3.17-1.27,4.86-.67,2.8.99,4.27,4.06,3.28,6.86-.14.4-.33.76-.54,1.1-2.25,4.12-8.73,7.02-12.66,7.06-3.04-2.49-6.27-8.82-5.43-13.44.04-.4.13-.8.27-1.2Z"/>
</svg>