<?xml version="1.0" encoding="UTF-8"?>
<svg id="uuid-d6df2fd5-bb91-40b2-9a08-11d53a1ccf64" data-name="Layer 1" xmlns="http://www.w3.org/2000/svg" viewBox="0 0 96.58 100">
  <defs>
    <style>
      .uuid-5ba37a9b-f103-4d40-b183-b8a0a49f062f {
        fill: #fff;
      }

      .uuid-845489e0-ada2-452c-b5d9-f18cd01b23ec {
        fill: #2a2f33;
      }

      .uuid-cf1c7605-b0d0-4804-b245-15c07acf2f76 {
        fill: #3a6933;
      }

      .uuid-f187d9b0-5f04-4360-ad79-94df56bf382d {
        fill: #a45a3b;
      }

      .uuid-94f08c3e-7b4b-4f24-9069-59f7f9072318 {
        fill: #5b8e3e;
      }

      .uuid-bc4a99f4-50f3-4a3e-978d-c01f15125bc5 {
        fill: #64aadd;
      }

      .uuid-b52f1ac9-66ee-4899-a133-145e95063155 {
        fill: #484848;
      }

      .uuid-c27be131-4d13-499e-8a57-b8b103c2d700 {
        fill: #3a6833;
      }
    </style>
  </defs>
  <path class="uuid-94f08c3e-7b4b-4f24-9069-59f7f9072318" d="m85.45,20.87c-.44-11.6-9.98-20.87-21.68-20.87-4.39,0-8.48,1.31-11.89,3.55-1.18-.09-2.38-.13-3.58-.13-1.67,0-3.32.08-4.94.25-3.12-1.73-6.71-2.72-10.53-2.72C21.46.94,12.14,9.67,11.2,20.79,4.21,29.17,0,39.95,0,51.71c0,26.67,21.62,48.29,48.29,48.29s48.29-21.62,48.29-48.29c0-11.73-4.18-22.48-11.13-30.84Z"/>
  <path class="uuid-cf1c7605-b0d0-4804-b245-15c07acf2f76" d="m74.49,42.13c7.77-2.62,12.56-9.88,12.82-10.28.53-.82.43-1.88-.22-2.6-.65-.72-1.71-.91-2.58-.47-.06.03-5.95,2.98-16.3,1.36-10.29-1.62-14.99-6.18-15.1-6.29-.33-.34-.76-.55-1.2-.62-.47-.07-.96,0-1.4.25-.85.48-1.26,1.48-1.01,2.42.16.59,3.85,13.88,15.27,16.66,0,0,1.83.55,4.61.55s5.1-.98,5.1-.98Z"/>
  <path class="uuid-cf1c7605-b0d0-4804-b245-15c07acf2f76" d="m37.87,39.68c6.67-4.77,9.14-13.1,9.27-13.57.27-.93-.13-1.93-.96-2.43-.83-.5-1.9-.37-2.6.3-.05.05-4.83,4.59-15.2,6.04-10.31,1.44-16.14-1.56-16.27-1.62-.41-.23-.88-.31-1.33-.24-.47.07-.92.29-1.26.65-.67.71-.78,1.78-.26,2.61.32.52,7.72,12.16,19.46,11.5,0,0,1.91-.01,4.57-.82s4.59-2.43,4.59-2.43Z"/>
  <path class="uuid-cf1c7605-b0d0-4804-b245-15c07acf2f76" d="m73.44,50.65c-7.39,0-12.73-2.38-13.09-2.54-.86-.39-1.24-1.41-.85-2.27.39-.86,1.41-1.24,2.27-.85.15.07,13.06,5.75,25.94-1.47.83-.46,1.87-.17,2.33.66.46.82.17,1.87-.66,2.33-5.64,3.16-11.21,4.14-15.95,4.14Z"/>
  <g>
    <path class="uuid-c27be131-4d13-499e-8a57-b8b103c2d700" d="m59.94,16.99c8.35,4.5,17.44,2.49,17.82,2.4,1.12-.26,2.38.17,2.8.97.42.8-.15,1.65-1.28,1.92-.47.11-11.63,2.64-21.93-2.91-.97-.52-1.18-1.48-.47-2.14.17-.16.37-.28.6-.37.73-.3,1.7-.27,2.44.13Z"/>
    <path class="uuid-c27be131-4d13-499e-8a57-b8b103c2d700" d="m39.09,16.9c.23.09.43.22.6.37.71.66.5,1.61-.47,2.14-10.3,5.55-21.46,3.02-21.93,2.91-1.13-.27-1.7-1.13-1.28-1.92.42-.79,1.68-1.23,2.8-.97.39.09,9.47,2.1,17.82-2.4.74-.4,1.71-.43,2.44-.13Z"/>
  </g>
  <path class="uuid-cf1c7605-b0d0-4804-b245-15c07acf2f76" d="m23.15,50.69c-4.73,0-10.3-.98-15.95-4.14-.82-.46-1.12-1.51-.66-2.33.46-.82,1.51-1.12,2.33-.66,12.89,7.22,25.81,1.52,25.94,1.47.86-.39,1.87,0,2.27.85.39.86.01,1.87-.85,2.27-.36.16-5.7,2.54-13.09,2.54Z"/>
  <path class="uuid-845489e0-ada2-452c-b5d9-f18cd01b23ec" d="m77.83,34.35c-1.21,2.98-4.5,4.83-7.71,4.58-2.79-.2-5.43-2.05-6.56-4.58.68.23,1.27.52,1.93.76,1.4.56,2.87,1.03,4.38,1.17,2.81.24,5.31-.74,7.97-1.93h0Z"/>
  <path class="uuid-845489e0-ada2-452c-b5d9-f18cd01b23ec" d="m33.89,34.62c-1.21,2.98-4.5,4.83-7.71,4.58-2.79-.2-5.43-2.05-6.56-4.58.68.23,1.27.52,1.93.76,1.4.56,2.87,1.03,4.38,1.17,2.81.24,5.31-.74,7.97-1.93h0Z"/>
  <path class="uuid-cf1c7605-b0d0-4804-b245-15c07acf2f76" d="m81.26,84.93c-.15,0-.31-.03-.46-.08-.72-.25-1.1-1.04-.85-1.77,1.67-4.75,1.01-8.25-2.12-11.35-.54-.54-.55-1.42-.01-1.96.54-.54,1.42-.55,1.96-.01,3.89,3.85,4.8,8.5,2.79,14.23-.2.57-.74.93-1.31.93Z"/>
  <path class="uuid-cf1c7605-b0d0-4804-b245-15c07acf2f76" d="m15.33,84.96c-.57,0-1.11-.36-1.31-.93-2.01-5.73-1.1-10.39,2.79-14.23.54-.54,1.42-.53,1.96.01.54.54.53,1.42-.01,1.96-3.13,3.1-3.79,6.6-2.12,11.35.25.72-.13,1.51-.85,1.77-.15.05-.31.08-.46.08Z"/>
  <path class="uuid-bc4a99f4-50f3-4a3e-978d-c01f15125bc5" d="m70.95,63.02c1.31,5.15,6.54,8.26,11.69,6.95,5.15-1.31,8.26-6.54,6.96-11.69-1.31-5.15-12.19-16.75-14.06-16.28-1.86.48-5.89,15.86-4.59,21.01Z"/>
  <path class="uuid-f187d9b0-5f04-4360-ad79-94df56bf382d" d="m48.29,85.73c9.71,0,16.16,1.4,24.13,3.31,1.82.43,5.36,0,5.36-6.62,0-13.24-12.32-29.79-29.49-29.79s-29.49,16.55-29.49,29.79c0,6.62,3.54,7.06,5.36,6.62,7.97-1.91,14.42-3.31,24.13-3.31Z"/>
  <path class="uuid-845489e0-ada2-452c-b5d9-f18cd01b23ec" d="m64.91,67.21c0-2.75-3.47-7.2-7.76-7.2h-.07c-.55-10.25-4.67-25.48-8.8-25.48s-8.1,15.17-8.77,25.49c-.03,0-.07,0-.1,0-4.28,0-7.76,4.45-7.76,7.2,0,2.58,5.82,3.73,10.2,5.68,1.4,1.21,3.47,1.52,6.42,1.52,2.5,0,4.37-.3,5.73-1.2,4.43-2.16,10.89-3.29,10.89-6Z"/>
  <rect class="uuid-845489e0-ada2-452c-b5d9-f18cd01b23ec" x="23.26" y="63.58" width="50.07" height="24.15" rx="8.37" ry="8.37"/>
  <path class="uuid-5ba37a9b-f103-4d40-b183-b8a0a49f062f" d="m35.9,77.06c-.04.86-.27,1.62-.69,2.27-.42.66-1.02,1.17-1.78,1.53-.77.36-1.64.54-2.62.54-1.62,0-2.9-.53-3.83-1.58s-1.4-2.55-1.4-4.47v-.61c0-1.21.21-2.27.63-3.17.42-.91,1.03-1.61,1.82-2.1.79-.49,1.71-.74,2.74-.74,1.5,0,2.7.39,3.61,1.18.91.79,1.43,1.87,1.55,3.26h-2.97c-.02-.75-.21-1.29-.57-1.62-.36-.33-.9-.49-1.63-.49s-1.28.28-1.63.83c-.34.55-.53,1.44-.54,2.65v.87c0,1.32.17,2.26.5,2.82.33.56.9.85,1.71.85.68,0,1.21-.16,1.57-.48.36-.32.55-.83.58-1.53h2.96Z"/>
  <path class="uuid-5ba37a9b-f103-4d40-b183-b8a0a49f062f" d="m47.76,75.32c0,1.2-.22,2.27-.67,3.19-.45.93-1.08,1.64-1.9,2.14-.82.5-1.76.75-2.81.75s-1.98-.24-2.8-.72c-.81-.48-1.45-1.17-1.9-2.07-.45-.9-.69-1.93-.72-3.09v-.69c0-1.21.22-2.27.67-3.2.44-.92,1.08-1.64,1.91-2.14.83-.5,1.77-.75,2.83-.75s1.98.25,2.8.75c.82.5,1.46,1.2,1.91,2.12.45.92.68,1.97.69,3.16v.57Zm-3.02-.52c0-1.23-.2-2.16-.61-2.79-.41-.64-1-.95-1.76-.95-1.49,0-2.28,1.12-2.36,3.35v.91c0,1.21.19,2.14.59,2.79.4.65,1,.97,1.79.97s1.33-.32,1.74-.96c.41-.64.61-1.56.62-2.75v-.57Z"/>
  <path class="uuid-5ba37a9b-f103-4d40-b183-b8a0a49f062f" d="m52.26,77.05v4.18h-2.97v-12.33h4.92c.94,0,1.78.17,2.5.52.73.35,1.29.84,1.69,1.48.4.64.6,1.37.6,2.18,0,1.2-.43,2.16-1.29,2.88-.86.72-2.04,1.08-3.55,1.08h-1.9Zm0-2.3h1.95c.58,0,1.02-.14,1.32-.43.3-.29.45-.69.45-1.22,0-.58-.16-1.04-.47-1.38-.31-.34-.73-.52-1.27-.53h-1.98v3.56Z"/>
  <path class="uuid-5ba37a9b-f103-4d40-b183-b8a0a49f062f" d="m68.23,76h-4.68v2.95h5.52v2.29h-8.5v-12.33h8.51v2.3h-5.54v2.6h4.68v2.2Z"/>
  <path class="uuid-b52f1ac9-66ee-4899-a133-145e95063155" d="m57.34,67.77c.6-.11,2.33-2.68,2.33-4.52,0-2.28-.61-2.96-1.36-3.15-.32-.05-.64-.09-.98-.09,0,1.11.15,2.22.15,3.63,0,3.02-.75,4.23-.15,4.12Zm-20.18-4.52c0,1.83,1.73,4.41,2.33,4.52.6.11-.15-1.11-.15-4.12,0-1.41.15-2.52.15-3.62-.39,0-.77.06-1.14.13-.67.25-1.19.99-1.19,3.1Z"/>
</svg>