<?xml version="1.0" encoding="UTF-8"?>
<svg id="uuid-6e0d0126-c4d0-4e04-9ce2-dd4231f51103" data-name="Layer 1" xmlns="http://www.w3.org/2000/svg" viewBox="0 0 100 100">
  <defs>
    <style>
      .uuid-5c3e3e3d-35fc-4cfd-b9d1-e51518c1ccfe {
        fill: #f6f7f7;
      }

      .uuid-28361393-952f-4ae6-a98c-dcd2bd8b73ff {
        fill: #2a2f33;
      }
    </style>
  </defs>
  <path class="uuid-5c3e3e3d-35fc-4cfd-b9d1-e51518c1ccfe" d="m100,50c0,27.61-22.39,50-50,50S0,77.61,0,50,22.39,0,50,0s50,22.39,50,50"/>
  <path class="uuid-28361393-952f-4ae6-a98c-dcd2bd8b73ff" d="m86.65,26.76c-.84,0-1.66-.38-2.2-1.1-7.24-9.66-16.62-9.87-17.02-9.87-1.51-.02-2.73-1.25-2.72-2.76,0-1.51,1.23-2.73,2.73-2.73.5,0,12.44.14,21.39,12.07.91,1.21.66,2.93-.55,3.84-.49.37-1.07.55-1.64.55Zm-71.32,0c-.57,0-1.15-.18-1.64-.55-1.21-.91-1.46-2.63-.55-3.84,8.95-11.93,20.89-12.07,21.39-12.07,1.51,0,2.74,1.23,2.74,2.74s-1.22,2.74-2.73,2.74c-.43,0-9.79.24-17.02,9.87-.53.72-1.36,1.1-2.19,1.1Z"/>
  <path class="uuid-28361393-952f-4ae6-a98c-dcd2bd8b73ff" d="m32.62,79.44c.53.46,1.27.55,1.91.24l13.84-6.92c6.47-3.23,23.27-3.28,23.44-3.28.95,0,1.73-.77,1.73-1.73,0-.64-.35-1.2-.86-1.5h0s0,0,0,0h0c-.25-.14-.53-.22-.83-.23h-24.25c-9.2,0-14.15,7.56-15.48,11.56-.22.66-.02,1.39.51,1.85Z"/>
  <g>
    <path class="uuid-28361393-952f-4ae6-a98c-dcd2bd8b73ff" d="m95.48,33.53c-.46-.45-3.44.74-6.44-.79-6.21-3.16-21.89-6.21-32.1,1.02-1.09.77-5.66.9-6.94.85-1.28.06-5.85-.07-6.94-.85-10.21-7.23-25.89-4.18-32.1-1.02-3.01,1.53-5.98.34-6.44.79-.67.65-.67,3.24,0,3.9.67.65,4.01,1.4,4.67,3.34.67,1.95.68,13.45,6,17.42,4.99,3.72,16.62,4.84,24,.65,6.43-3.66,6.21-11.36,7.39-15.95.42-1.64,1.61-2.46,3.42-2.46s3,.82,3.42,2.46c1.18,4.59.95,12.29,7.39,15.95,7.38,4.19,19.01,3.07,24-.65,5.33-3.97,5.34-15.48,6-17.42.66-1.94,4-2.7,4.67-3.34.67-.65.68-3.25,0-3.9Zm-54.77,9.9c-.21,3-.74,8.75-4.33,10.8-2.2,1.25-5.07,2.02-8.07,2.02h0c-3.32,0-7.93-.94-9.73-2.28-2.25-1.68-3.11-8.59-3.43-11.18-.21-1.65-.76-5.67,1.05-6.29,2.88-.98,6.89-1.74,10.99-1.74,1.88,0,8.19.12,11.27,2.01,2.73,1.67,2.37,5.02,2.25,6.67Zm44.15-.69c-.32,2.59-1.18,9.53-3.43,11.21-1.8,1.34-6.41,2.28-9.73,2.28h0c-3,0-5.87-.76-8.07-2.02-3.59-2.04-4.12-7.76-4.33-10.76-.11-1.65-.48-5.02,2.25-6.69,3.08-1.89,9.39-2.02,11.27-2.02,4.1,0,8.11.75,10.99,1.73,1.81.62,1.26,4.62,1.06,6.26Z"/>
    <path class="uuid-28361393-952f-4ae6-a98c-dcd2bd8b73ff" d="m40.13,44.27c.06-.14.16-.26.2-.42.37-1.47-.53-2.96-1.99-3.33-.49-.12-12.25-2.96-21.39,3.12-1.26.84-1.6,2.54-.76,3.8.53.8,1.4,1.22,2.28,1.22.52,0,1.05-.15,1.52-.46,3-2,6.48-2.73,9.51-2.91-.02.21-.06.41-.06.63,0,3.03,2.46,5.49,5.49,5.49s5.49-2.46,5.49-5.49c0-.58-.12-1.13-.28-1.66Z"/>
    <path class="uuid-28361393-952f-4ae6-a98c-dcd2bd8b73ff" d="m83.94,44.31c.06-.14.16-.26.2-.42.37-1.47-.52-2.96-1.99-3.33-.49-.12-12.25-2.96-21.39,3.12-1.26.84-1.6,2.54-.76,3.8.53.79,1.4,1.22,2.28,1.22.52,0,1.05-.15,1.52-.46,3-2,6.48-2.73,9.51-2.91-.02.21-.07.41-.07.63,0,3.03,2.46,5.49,5.49,5.49s5.49-2.46,5.49-5.49c0-.58-.12-1.13-.29-1.66Z"/>
  </g>
  <rect class="uuid-28361393-952f-4ae6-a98c-dcd2bd8b73ff" x="50.76" y="69.93" width="4.05" height="6.02" rx="1.62" ry="1.62"/>
</svg>