<?xml version="1.0" encoding="UTF-8"?>
<svg id="uuid-e389d6fd-b080-4e14-bdc8-bda55ac0a702" data-name="Layer 1" xmlns="http://www.w3.org/2000/svg" viewBox="0 0 100 100">
  <defs>
    <style>
      .uuid-04ee00b5-29f8-48f1-9572-d9e06078aa86 {
        fill: #fed429;
      }

      .uuid-4398ca5e-09c7-4957-8f21-8ad2d06b679c {
        fill: #662314;
      }

      .uuid-4010ac92-37fa-4da8-a983-76f1edf95933 {
        fill: #2a2f33;
      }

      .uuid-ea88db8c-343c-4838-86f1-5082ba016fb0 {
        fill: #ffcd05;
      }

      .uuid-4628c06d-e881-453b-8112-a974176889d9 {
        fill: #e95a6f;
      }

      .uuid-050071f9-fe13-409b-a72e-c68e15046cca {
        fill: #243e90;
      }
    </style>
  </defs>
  <path class="uuid-4628c06d-e881-453b-8112-a974176889d9" d="m20.15,9.88c-6.1-3.57-12.39-5.86-13.51-5.19-1.6.95-3.05,14.07-.99,23.27,3.58-6.99,8.56-13.18,14.5-18.07Zm74.19,18.07c2.06-9.2.62-22.32-.99-23.27-1.12-.66-7.42,1.63-13.52,5.19,5.95,4.9,10.92,11.09,14.5,18.07Z"/>
  <path class="uuid-04ee00b5-29f8-48f1-9572-d9e06078aa86" d="m50,0c-.15,0-.31,0-.46,0h.92c-.15,0-.3,0-.46,0Z"/>
  <path class="uuid-04ee00b5-29f8-48f1-9572-d9e06078aa86" d="m50,100c.15,0,.3,0,.46,0h-.91c.15,0,.3,0,.46,0Z"/>
  <path class="uuid-050071f9-fe13-409b-a72e-c68e15046cca" d="m100,50C100,22.54,77.86.25,50.46,0h-.92C22.14.25,0,22.54,0,50s22.14,49.75,49.54,49.99h.91c27.4-.25,49.54-22.54,49.54-49.99Zm-11.5-.95l-3.26,2.37,1.25,3.84-3.27-2.37-3.26,2.37,1.25-3.84-3.26-2.37h4.04l1.25-3.84,1.25,3.84h4.03Zm-10.79-16.48l1.25-3.84,1.25,3.84h4.04l-3.27,2.37,1.25,3.84-3.26-2.37-3.27,2.37,1.25-3.84-3.27-2.37h4.04ZM13.41,55.26l1.25-3.84-3.27-2.37h4.03l1.25-3.84,1.25,3.84h4.04l-3.27,2.37,1.25,3.84-3.26-2.37-3.27,2.37Zm10.79,16.67l-3.26-2.37-3.26,2.37,1.25-3.84-3.27-2.37h4.04l1.25-3.84,1.25,3.84h4.04l-3.26,2.37,1.25,3.84Zm-1.25-36.98l1.25,3.84-3.26-2.37-3.26,2.37,1.25-3.84-3.27-2.37h4.04l1.25-3.84,1.25,3.84h4.04l-3.26,2.37Zm13.65,49.4l-3.26-2.37-3.26,2.37,1.25-3.84-3.27-2.37h4.04l1.25-3.84,1.25,3.84h4.04l-3.27,2.37,1.25,3.84Zm-1.25-61.78l1.25,3.84-3.26-2.37-3.26,2.37,1.25-3.84-3.27-2.37h4.04l1.25-3.84,1.25,3.84h4.04l-3.27,2.37Zm17.91,66.03l-3.27-2.37-3.26,2.37,1.25-3.84-3.27-2.37h4.03l1.25-3.84,1.25,3.84h4.03l-3.26,2.37,1.25,3.84Zm-1.25-70.5l1.25,3.84-3.27-2.37-3.26,2.37,1.25-3.84-3.27-2.37h4.03l1.25-3.84,1.25,3.84h4.03l-3.26,2.37Zm17.8,66.25l-3.26-2.37-3.26,2.37,1.25-3.84-3.27-2.37h4.04l1.25-3.84,1.25,3.84h4.04l-3.27,2.37,1.25,3.84Zm-1.25-61.78l1.25,3.84-3.26-2.37-3.26,2.37,1.25-3.84-3.27-2.37h4.04l1.25-3.84,1.25,3.84h4.04l-3.27,2.37Zm13.65,49.37l-3.26-2.37-3.27,2.37,1.25-3.84-3.27-2.37h4.04l1.25-3.84,1.25,3.84h4.04l-3.27,2.37,1.25,3.84Z"/>
  <polygon class="uuid-ea88db8c-343c-4838-86f1-5082ba016fb0" points="19.94 55.26 18.69 51.43 21.96 49.05 17.92 49.05 16.67 45.22 15.42 49.05 11.39 49.05 14.65 51.43 13.41 55.26 16.67 52.89 19.94 55.26"/>
  <polygon class="uuid-ea88db8c-343c-4838-86f1-5082ba016fb0" points="75.7 38.79 78.96 36.41 82.23 38.79 80.98 34.95 84.25 32.58 80.21 32.58 78.96 28.74 77.72 32.58 73.68 32.58 76.94 34.95 75.7 38.79"/>
  <polygon class="uuid-ea88db8c-343c-4838-86f1-5082ba016fb0" points="22.18 65.72 20.93 61.88 19.68 65.72 15.65 65.72 18.91 68.09 17.67 71.93 20.93 69.56 24.2 71.93 22.95 68.09 26.21 65.72 22.18 65.72"/>
  <polygon class="uuid-ea88db8c-343c-4838-86f1-5082ba016fb0" points="66.56 16.35 65.31 20.19 61.27 20.19 64.54 22.56 63.29 26.4 66.56 24.03 69.82 26.4 68.57 22.56 71.84 20.19 67.8 20.19 66.56 16.35"/>
  <polygon class="uuid-ea88db8c-343c-4838-86f1-5082ba016fb0" points="80.21 65.72 78.96 61.88 77.72 65.72 73.68 65.72 76.94 68.09 75.7 71.93 78.96 69.56 82.23 71.93 80.98 68.09 84.25 65.72 80.21 65.72"/>
  <polygon class="uuid-ea88db8c-343c-4838-86f1-5082ba016fb0" points="81.97 49.05 77.93 49.05 81.2 51.43 79.95 55.26 83.22 52.89 86.48 55.26 85.24 51.43 88.5 49.05 84.47 49.05 83.22 45.22 81.97 49.05"/>
  <polygon class="uuid-ea88db8c-343c-4838-86f1-5082ba016fb0" points="20.93 28.74 19.68 32.58 15.65 32.58 18.91 34.95 17.67 38.79 20.93 36.41 24.2 38.79 22.95 34.95 26.21 32.58 22.18 32.58 20.93 28.74"/>
  <polygon class="uuid-ea88db8c-343c-4838-86f1-5082ba016fb0" points="51.25 82.38 50 78.55 48.75 82.38 44.72 82.38 47.98 84.76 46.73 88.6 50 86.22 53.26 88.6 52.02 84.76 55.28 82.38 51.25 82.38"/>
  <polygon class="uuid-ea88db8c-343c-4838-86f1-5082ba016fb0" points="67.8 78.14 66.56 74.3 65.31 78.14 61.27 78.14 64.54 80.51 63.29 84.35 66.56 81.98 69.82 84.35 68.57 80.51 71.84 78.14 67.8 78.14"/>
  <polygon class="uuid-ea88db8c-343c-4838-86f1-5082ba016fb0" points="50 11.89 48.75 15.73 44.72 15.73 47.98 18.1 46.73 21.94 50 19.57 53.26 21.94 52.02 18.1 55.28 15.73 51.25 15.73 50 11.89"/>
  <polygon class="uuid-ea88db8c-343c-4838-86f1-5082ba016fb0" points="33.34 16.35 32.09 20.19 28.05 20.19 31.32 22.56 30.07 26.4 33.34 24.03 36.6 26.4 35.36 22.56 38.62 20.19 34.58 20.19 33.34 16.35"/>
  <polygon class="uuid-ea88db8c-343c-4838-86f1-5082ba016fb0" points="34.58 78.14 33.34 74.3 32.09 78.14 28.05 78.14 31.32 80.51 30.07 84.35 33.34 81.98 36.6 84.35 35.36 80.51 38.62 78.14 34.58 78.14"/>
  <path class="uuid-4628c06d-e881-453b-8112-a974176889d9" d="m78.1,57.8c0,12.63-8.72,26.39-28.15,26.39s-28.15-13.76-28.15-26.39,8.72-15.83,28.15-15.83,28.15,3.2,28.15,15.83Z"/>
  <path class="uuid-4398ca5e-09c7-4957-8f21-8ad2d06b679c" d="m41.5,61.95c0,5.23-.96,6.76-4.22,6.76s-4.22-1.53-4.22-6.76.96-6.75,4.22-6.75,4.22,1.53,4.22,6.75Zm25.34,0c0,5.23-.96,6.76-4.22,6.76s-4.22-1.53-4.22-6.76.96-6.75,4.22-6.75,4.22,1.53,4.22,6.75Z"/>
  <circle class="uuid-4010ac92-37fa-4da8-a983-76f1edf95933" cx="18.98" cy="40.55" r="5.63"/>
  <circle class="uuid-4010ac92-37fa-4da8-a983-76f1edf95933" cx="80.91" cy="40.55" r="5.63"/>
</svg>