<?xml version="1.0" encoding="UTF-8"?>
<svg id="uuid-66876494-14ad-446b-92e7-b1f3998c4fe5" data-name="Layer 1" xmlns="http://www.w3.org/2000/svg" viewBox="0 0 100 85.23">
  <defs>
    <style>
      .uuid-bb285132-0818-4a7f-ae29-08d347f26db1 {
        fill: #2a2f33;
      }

      .uuid-e306b6fb-88c5-4872-b525-bde507a99e94 {
        fill: #642217;
      }

      .uuid-ef0b85a8-eca7-4135-8757-8883632e3f88 {
        fill: #7c553f;
      }
    </style>
  </defs>
  <g>
    <ellipse class="uuid-ef0b85a8-eca7-4135-8757-8883632e3f88" cx="11.65" cy="30.1" rx="11.26" ry="16.09" transform="translate(-7.39 4.04) rotate(-15)"/>
    <ellipse class="uuid-ef0b85a8-eca7-4135-8757-8883632e3f88" cx="88.35" cy="30.1" rx="16.09" ry="11.26" transform="translate(36.41 107.65) rotate(-75)"/>
  </g>
  <path class="uuid-ef0b85a8-eca7-4135-8757-8883632e3f88" d="m92.61,42.61c0,23.53-19.08,42.61-42.61,42.61S7.39,66.15,7.39,42.61,26.47,0,50,0s42.61,19.08,42.61,42.61"/>
  <g>
    <ellipse class="uuid-bb285132-0818-4a7f-ae29-08d347f26db1" cx="55.69" cy="50.54" rx="4.53" ry="3.27"/>
    <ellipse class="uuid-bb285132-0818-4a7f-ae29-08d347f26db1" cx="44.41" cy="50.54" rx="4.53" ry="3.27"/>
  </g>
  <path class="uuid-bb285132-0818-4a7f-ae29-08d347f26db1" d="m32.27,38.67s.03-.04.04-.05c-.01.02-.03.04-.04.05Z"/>
  <g>
    <path class="uuid-bb285132-0818-4a7f-ae29-08d347f26db1" d="m31.34,27.18c-1.46,0-2.81.7-3.87,1.88-.05.06-.11.12-.16.18-.01.02-.03.04-.04.05-1.31,1.6-2.15,3.93-2.15,6.55,0,4.82,2.79,8.72,6.23,8.72.62,0,1.21-.13,1.78-.36.02-.01.05-.02.08-.03.02,0,.04-.02.06-.03,2.5-1.13,4.32-4.41,4.32-8.29,0-.03,0-.06,0-.09,0-.41-.05-.8-.09-1.19,0,0,.02,0,.02,0-.45-4.19-3.04-7.41-6.17-7.41Z"/>
    <path class="uuid-bb285132-0818-4a7f-ae29-08d347f26db1" d="m68.77,27.18c-3.13,0-5.72,3.21-6.17,7.4,0,0,0,0,.01,0-.02.24-.05.48-.07.73,0,.19-.01.37-.01.56,0,4.8,2.79,8.69,6.23,8.69,3.44,0,6.23-3.91,6.23-8.72,0-2.81-.97-5.29-2.45-6.89,0,0,0,0,0,0-1.05-1.11-2.36-1.78-3.78-1.78Z"/>
  </g>
  <g>
    <path class="uuid-e306b6fb-88c5-4872-b525-bde507a99e94" d="m63.54,62.99c-6.24-.07-6.29,3.49-13.56,3.41-7.28-.08-7.22-3.63-13.46-3.7-2.08-.02-3.13.85-3.14,1.74-.04,2.66,5.04,10.71,16.48,10.84,11.43.12,16.75-7.82,16.79-10.48.01-.89-1.02-1.79-3.09-1.81Z"/>
    <path class="uuid-e306b6fb-88c5-4872-b525-bde507a99e94" d="m66.72,63.59c-2.07-.91-6.16-5.4-10.32-5.44-4.16-.04-4.17.84-6.25.82-2.08-.02-2.07-.91-6.22-.95-4.16-.04-8.38,4.35-10.47,5.22,0,0-2.09.92-2.12,2.64-.02,1.72,2.05,1.8,2.05,1.8,7.28.08,10.42-1.67,10.42-1.67,0,0,3.09,1.81,6.21,1.84,3.12.03,6.26-1.71,6.26-1.71,0,0,3.09,1.81,10.37,1.89,0,0,2.08-.03,2.1-1.75.02-1.72-2.04-2.69-2.04-2.69Z"/>
  </g>
  <path class="uuid-bb285132-0818-4a7f-ae29-08d347f26db1" d="m80.49,30.74c-.71,0-1.41-.32-1.87-.94-6.17-8.23-14.17-8.41-14.51-8.42-1.29-.01-2.32-1.07-2.32-2.35,0-1.29,1.04-2.33,2.33-2.33.43,0,10.61.12,18.23,10.29.78,1.03.57,2.5-.47,3.27-.42.32-.91.47-1.4.47Zm-60.78,0c-.49,0-.98-.15-1.4-.47-1.03-.77-1.24-2.24-.47-3.27,7.63-10.17,17.8-10.29,18.23-10.29,1.29,0,2.34,1.05,2.34,2.34s-1.04,2.33-2.33,2.34c-.36,0-8.34.2-14.5,8.42-.46.61-1.16.94-1.87.94Z"/>
</svg>