<?xml version="1.0" encoding="UTF-8"?>
<svg id="uuid-63aefd3d-3d68-40c2-bf6a-fa7ebc7c8ae3" data-name="Layer 1" xmlns="http://www.w3.org/2000/svg" viewBox="0 0 100 89.15">
  <defs>
    <style>
      .uuid-d4ef79b6-d04b-4835-95c8-e4d6b729e308 {
        fill: #9c5029;
      }

      .uuid-740a99fa-6c4f-40f9-bb3d-12403c73dbce {
        fill: #d93348;
      }

      .uuid-213f7bc9-3c33-41e2-8967-e607945c2534 {
        fill: #2a2f33;
      }

      .uuid-698dc93b-9734-44bf-a0b7-a22f83158353 {
        fill: #642217;
      }
    </style>
  </defs>
  <g>
    <g>
      <ellipse class="uuid-d4ef79b6-d04b-4835-95c8-e4d6b729e308" cx="11.65" cy="34.02" rx="11.26" ry="16.09" transform="translate(-8.41 4.17) rotate(-15)"/>
      <ellipse class="uuid-d4ef79b6-d04b-4835-95c8-e4d6b729e308" cx="88.35" cy="34.02" rx="16.09" ry="11.26" transform="translate(32.62 110.56) rotate(-75)"/>
    </g>
    <path class="uuid-d4ef79b6-d04b-4835-95c8-e4d6b729e308" d="m92.61,46.53c0,23.53-19.08,42.61-42.61,42.61S7.39,70.07,7.39,46.53,26.47,3.92,50,3.92s42.61,19.08,42.61,42.61"/>
    <g>
      <ellipse class="uuid-213f7bc9-3c33-41e2-8967-e607945c2534" cx="55.69" cy="54.46" rx="4.53" ry="3.27"/>
      <ellipse class="uuid-213f7bc9-3c33-41e2-8967-e607945c2534" cx="44.41" cy="54.46" rx="4.53" ry="3.27"/>
    </g>
    <path class="uuid-213f7bc9-3c33-41e2-8967-e607945c2534" d="m32.27,42.6s.03-.04.04-.05c-.01.02-.03.04-.04.05Z"/>
    <g>
      <path class="uuid-213f7bc9-3c33-41e2-8967-e607945c2534" d="m31.34,34.43c-1.46,0-2.81.7-3.87,1.88-.05.06-.11.12-.16.18-.01.02-.03.04-.04.05-1.31,1.6-2.15,3.93-2.15,6.55,0,4.82,2.79,8.72,6.23,8.72.62,0,1.21-.13,1.78-.36.02-.01.05-.02.08-.03.02,0,.04-.02.06-.03,2.5-1.13,4.32-4.41,4.32-8.29,0-.03,0-.06,0-.09,0-.41-.05-.8-.09-1.19,0,0,.02,0,.02,0-.45-4.19-3.04-7.41-6.17-7.41Z"/>
      <path class="uuid-213f7bc9-3c33-41e2-8967-e607945c2534" d="m68.77,34.43c-3.13,0-5.72,3.21-6.17,7.4,0,0,0,0,.01,0-.02.24-.05.48-.07.73,0,.19-.01.37-.01.56,0,4.8,2.79,8.69,6.23,8.69,3.44,0,6.23-3.91,6.23-8.72,0-2.81-.97-5.29-2.45-6.89,0,0,0,0,0,0-1.05-1.11-2.36-1.78-3.78-1.78Z"/>
    </g>
    <path class="uuid-213f7bc9-3c33-41e2-8967-e607945c2534" d="m80.49,37.99c-.71,0-1.41-.32-1.87-.94-6.17-8.23-14.17-8.41-14.51-8.42-1.29-.01-2.32-1.07-2.32-2.35,0-1.29,1.04-2.33,2.33-2.33.43,0,10.61.12,18.23,10.29.78,1.03.57,2.5-.47,3.27-.42.32-.91.47-1.4.47Zm-60.78,0c-.49,0-.98-.15-1.4-.47-1.03-.77-1.24-2.24-.47-3.27,7.63-10.17,17.8-10.29,18.23-10.29,1.29,0,2.34,1.05,2.34,2.34s-1.04,2.33-2.33,2.34c-.36,0-8.34.2-14.5,8.42-.46.61-1.16.94-1.87.94Z"/>
    <g>
      <path class="uuid-698dc93b-9734-44bf-a0b7-a22f83158353" d="m64.12,67.61c-6.24-.07-6.29,3.49-13.56,3.41-7.28-.08-7.22-3.63-13.46-3.7-2.08-.02-3.13.85-3.14,1.74-.04,2.66,5.04,10.71,16.48,10.84,11.43.12,16.75-7.82,16.79-10.48.01-.89-1.02-1.79-3.09-1.81Z"/>
      <path class="uuid-698dc93b-9734-44bf-a0b7-a22f83158353" d="m67.3,68.21c-2.07-.91-6.16-5.4-10.32-5.44-4.16-.04-4.17.84-6.25.82-2.08-.02-2.07-.91-6.22-.95-4.16-.04-8.38,4.35-10.47,5.22,0,0-2.09.92-2.12,2.64-.02,1.72,2.05,1.8,2.05,1.8,7.28.08,10.42-1.67,10.42-1.67,0,0,3.09,1.81,6.21,1.84s6.26-1.71,6.26-1.71c0,0,3.09,1.81,10.37,1.89,0,0,2.08-.03,2.1-1.75.02-1.72-2.04-2.69-2.04-2.69Z"/>
    </g>
    <path class="uuid-213f7bc9-3c33-41e2-8967-e607945c2534" d="m27.21,73.79c.45.4,1.11.43,1.59.07.1-.07,9.84-7.27,21.82-7.27,11.95,0,21.73,7.2,21.82,7.27.48.36,1.15.33,1.59-.07.44-.4.54-1.06.24-1.58-.32-.54-8.07-13.15-23.65-13.15s-23.33,12.61-23.65,13.15c-.31.51-.21,1.17.24,1.58Z"/>
    <path class="uuid-213f7bc9-3c33-41e2-8967-e607945c2534" d="m92.51,42.89c-.02-.98-.05-1.97-.09-2.95-.08-1.84-.37-3.64-1.14-5.33-.31-.69-.22-1.54-.32-2.32-.1-.85-.18-1.7-.32-2.54-.11-.65-.32-1.27-.47-1.91-.55-2.29-1.17-4.56-1.6-6.88-.3-1.63-.41-3.28-1.27-4.76-.39-.67-.35-1.56-.53-2.45-.13-.06-.4-.18-.67-.31-2.74-1.31-4.93-3.33-7.96-4.25-1.48-.45-3.01-.84-4.55-1.15-.17-.03-.33-.07-.5-.1C54.83-5.61,36.83,1.5,29.98,5.16c-1.97.35-3.82.98-5.62,1.82-1.75.82-3.59,1.51-5.48,2.06-.78.22-1.23.5-1.58,1.12-1.05,1.86-2.29,3.63-3.31,5.5-1.1,2.02-2.09,4.09-3.01,6.18-.74,1.7-1.27,3.48-1.9,5.22-.27.74-.75,1.44-.8,2.21-.14,2.34-.05,4.72-.15,7.06-.07,1.5-.37,2.96-.51,4.45-.04.39-.07.77-.1,1.16-.01.13-.02.27-.03.4.78.16,1.57.32,2.35.47-.17-.17-.23-.35-.21-.55.01-.11.04-.23.1-.36,2.13-.01,2.71-.45,3.22-2.37.03-.1-.01-.23.04-.31,1.52-2.34.13-5.05.28-7.57.14-2.55.41-5.02,2.1-7.15.9-1.14,1.23-2.61,1.93-3.88.48-.88,1.15-1.68,1.73-2.52,1.34.83,1.87,1.68,1.84,2.8-.02.85.51,1.4,1.62,1.45.46.02.93.12,1.37.17.35,1.55,1.17,1.92,2.96,1.72.98-.11,2.07.26,3.09.22.78-.03,1.65-.2,2.25-.56,1.22-.74,2.65-1.4,2.98-2.94.66.73,1.42,1.19,2.31.66.65-.38,1.17-.93,1.79-1.45.11.32.21.68.36,1.04.55,1.37,1.92,1.94,3.39,1.96,2.03.03,4.06-.25,6.07-.5.39-.05.72-.38,1.08-.58.3-.16.63-.46.92-.45,1.65.08,2.82-.72,4.03-1.47.25-.16.59-.34.87-.33,2.22.11,4.44.21,6.66.32.3.02.74.31.81.54.65,2.57,5.64,3.75,7.86,1.94.28-.22.75-.28,1.14-.39.91-.25,1.81-.52,2.73-.72.33-.07.77-.03,1.03.12,1.37.79,2.86.14,4.26-.16.37-.08.59-.94.91-1.48,1.55.82,3,1.68,3.12,3.53.03.42.66.74.83,1.17.35.9.71,1.82.82,2.78.23,1.99.35,4,.42,6.01.05,1.29-.18,2.62-.03,3.88.06.54.87.92,1.2,1.44.25.39.5.92.35,1.34-.4,1.11-.17,2.19.96,2.7.45.2,1.02.24,1.63.34.08.01.16.03.24.04,0,0,0,0,0,0,.54-.1,1.07-.21,1.61-.32,0-.02,0-.05,0-.07Z"/>
    <path class="uuid-213f7bc9-3c33-41e2-8967-e607945c2534" d="m77.24,7.26s0-.05,0-.08c0,.03,0,.06,0,.09,0,0,0,0,0-.01Z"/>
  </g>
  <circle class="uuid-740a99fa-6c4f-40f9-bb3d-12403c73dbce" cx="50" cy="29.38" r="2.29"/>
</svg>