<?xml version="1.0" encoding="UTF-8"?>
<svg id="uuid-1b47d6dd-8916-46e2-98dc-dadd6d7dac09" data-name="Layer 1" xmlns="http://www.w3.org/2000/svg" viewBox="0 0 100 100">
  <defs>
    <style>
      .uuid-32b5bfda-78d4-447f-930b-a2efe80f26f6 {
        fill: #f7f8f8;
      }

      .uuid-6cead389-3015-4035-b23f-10b1cfd36a5d {
        fill: #1e8943;
      }

      .uuid-4a86d91e-1dd6-475a-90ee-28fb0118487a {
        fill: #662314;
      }

      .uuid-65deff94-eabf-4611-adf0-6a211d6b8adf {
        fill: #2a2f33;
      }

      .uuid-60560f35-4d97-437d-87d5-b0ad2806539b {
        fill: #f8993a;
      }

      .uuid-c7ef3e3f-5a41-4d60-a987-17264b37f49d {
        fill: #e95a6f;
      }

      .uuid-4f2333d9-46d3-4237-9c69-0cb3118db5b3 {
        fill: #282a74;
      }

      .uuid-7ec5578b-880c-466a-8b2a-48a8ca9d2f8c {
        fill: #6767af;
      }
    </style>
  </defs>
  <path class="uuid-c7ef3e3f-5a41-4d60-a987-17264b37f49d" d="m20.15,9.88c-6.1-3.57-12.39-5.86-13.51-5.19-1.6.95-3.05,14.07-.99,23.27,3.58-6.99,8.56-13.18,14.5-18.07Zm74.19,18.07c2.06-9.2.62-22.32-.99-23.27-1.12-.66-7.42,1.63-13.52,5.19,5.95,4.9,10.92,11.09,14.5,18.07Z"/>
  <path class="uuid-60560f35-4d97-437d-87d5-b0ad2806539b" d="m50,0C28.23,0,9.71,13.92,2.85,33.33h94.3C90.29,13.92,71.77,0,50,0Z"/>
  <path class="uuid-32b5bfda-78d4-447f-930b-a2efe80f26f6" d="m2.85,66.67h94.3c1.84-5.21,2.85-10.82,2.85-16.67s-1.01-11.45-2.85-16.67H2.85c-1.84,5.21-2.85,10.82-2.85,16.67s1.01,11.45,2.85,16.67Z"/>
  <path class="uuid-6cead389-3015-4035-b23f-10b1cfd36a5d" d="m50,100c21.77,0,40.28-13.91,47.15-33.33H2.85c6.87,19.42,25.38,33.33,47.15,33.33Z"/>
  <circle class="uuid-4f2333d9-46d3-4237-9c69-0cb3118db5b3" cx="50" cy="50" r="15.38"/>
  <circle class="uuid-32b5bfda-78d4-447f-930b-a2efe80f26f6" cx="50" cy="50" r="12.98"/>
  <path class="uuid-7ec5578b-880c-466a-8b2a-48a8ca9d2f8c" d="m50.38,45.19l-.38,2.5-.38-2.5.38-7.5.38,7.5Zm-3.57-7.08l1.57,7.34,1.02,2.32-.28-2.51-2.31-7.15Zm-2.97,1.23l3.42,6.68,1.58,1.97-.92-2.36-4.08-6.3Zm-2.55,1.95l5.03,5.58,2.04,1.5-1.5-2.04-5.58-5.03Zm-1.95,2.55l6.3,4.08,2.36.92-1.97-1.58-6.68-3.42Zm-1.23,2.97l7.15,2.31,2.51.28-2.32-1.02-7.34-1.57Zm-.42,3.18l7.5.38,2.5-.38-2.5-.38-7.5.38Zm.42,3.18l7.34-1.57,2.32-1.02-2.51.28-7.15,2.31Zm1.23,2.97l6.68-3.42,1.97-1.58-2.36.92-6.3,4.08Zm1.95,2.55l5.58-5.03,1.5-2.04-2.04,1.5-5.03,5.58Zm2.55,1.95l4.08-6.3.92-2.36-1.58,1.97-3.42,6.68Zm2.97,1.23l2.31-7.15.28-2.51-1.02,2.32-1.57,7.34Zm3.18.42l.38-7.5-.38-2.5-.38,2.5.38,7.5Zm3.18-.42l-1.57-7.34-1.02-2.32.28,2.51,2.31,7.15Zm2.97-1.23l-3.42-6.68-1.58-1.97.92,2.36,4.08,6.3Zm2.55-1.95l-5.03-5.58-2.04-1.5,1.5,2.04,5.58,5.03Zm1.95-2.55l-6.3-4.08-2.36-.92,1.97,1.58,6.68,3.42Zm1.23-2.97l-7.15-2.31-2.51-.28,2.32,1.02,7.34,1.57Zm.42-3.18l-7.5-.38-2.5.38,2.5.38,7.5-.38Zm-.42-3.18l-7.34,1.57-2.32,1.02,2.51-.28,7.15-2.31Zm-1.23-2.97l-6.68,3.42-1.97,1.58,2.36-.92,6.3-4.08Zm-1.95-2.55l-5.58,5.03-1.5,2.04,2.04-1.5,5.03-5.58Zm-2.55-1.95l-4.08,6.3-.92,2.36,1.58-1.97,3.42-6.68Zm-2.97-1.23l-2.31,7.15-.28,2.51,1.02-2.32,1.57-7.34Z"/>
  <circle class="uuid-4f2333d9-46d3-4237-9c69-0cb3118db5b3" cx="48.31" cy="37.15" r=".77"/>
  <circle class="uuid-4f2333d9-46d3-4237-9c69-0cb3118db5b3" cx="45.04" cy="38.03" r=".77"/>
  <circle class="uuid-4f2333d9-46d3-4237-9c69-0cb3118db5b3" cx="42.11" cy="39.72" r=".77"/>
  <circle class="uuid-4f2333d9-46d3-4237-9c69-0cb3118db5b3" cx="39.72" cy="42.11" r=".77"/>
  <circle class="uuid-4f2333d9-46d3-4237-9c69-0cb3118db5b3" cx="38.03" cy="45.04" r=".77"/>
  <circle class="uuid-4f2333d9-46d3-4237-9c69-0cb3118db5b3" cx="37.15" cy="48.31" r=".77"/>
  <circle class="uuid-4f2333d9-46d3-4237-9c69-0cb3118db5b3" cx="37.15" cy="51.69" r=".77"/>
  <circle class="uuid-4f2333d9-46d3-4237-9c69-0cb3118db5b3" cx="38.03" cy="54.96" r=".77"/>
  <circle class="uuid-4f2333d9-46d3-4237-9c69-0cb3118db5b3" cx="39.72" cy="57.89" r=".77"/>
  <circle class="uuid-4f2333d9-46d3-4237-9c69-0cb3118db5b3" cx="42.11" cy="60.28" r=".77"/>
  <circle class="uuid-4f2333d9-46d3-4237-9c69-0cb3118db5b3" cx="45.04" cy="61.97" r=".77"/>
  <circle class="uuid-4f2333d9-46d3-4237-9c69-0cb3118db5b3" cx="48.31" cy="62.85" r=".77"/>
  <circle class="uuid-4f2333d9-46d3-4237-9c69-0cb3118db5b3" cx="51.69" cy="62.85" r=".77"/>
  <circle class="uuid-4f2333d9-46d3-4237-9c69-0cb3118db5b3" cx="54.96" cy="61.97" r=".77"/>
  <circle class="uuid-4f2333d9-46d3-4237-9c69-0cb3118db5b3" cx="57.89" cy="60.28" r=".77"/>
  <circle class="uuid-4f2333d9-46d3-4237-9c69-0cb3118db5b3" cx="60.28" cy="57.89" r=".77"/>
  <circle class="uuid-4f2333d9-46d3-4237-9c69-0cb3118db5b3" cx="61.97" cy="54.96" r=".77"/>
  <circle class="uuid-4f2333d9-46d3-4237-9c69-0cb3118db5b3" cx="62.85" cy="51.69" r=".77"/>
  <circle class="uuid-4f2333d9-46d3-4237-9c69-0cb3118db5b3" cx="62.85" cy="48.31" r=".77"/>
  <circle class="uuid-4f2333d9-46d3-4237-9c69-0cb3118db5b3" cx="61.97" cy="45.04" r=".77"/>
  <circle class="uuid-4f2333d9-46d3-4237-9c69-0cb3118db5b3" cx="60.28" cy="42.11" r=".77"/>
  <circle class="uuid-4f2333d9-46d3-4237-9c69-0cb3118db5b3" cx="57.89" cy="39.72" r=".77"/>
  <circle class="uuid-4f2333d9-46d3-4237-9c69-0cb3118db5b3" cx="54.96" cy="38.03" r=".77"/>
  <circle class="uuid-4f2333d9-46d3-4237-9c69-0cb3118db5b3" cx="51.69" cy="37.15" r=".77"/>
  <circle class="uuid-4f2333d9-46d3-4237-9c69-0cb3118db5b3" cx="50" cy="50" r="3.46"/>
  <path class="uuid-c7ef3e3f-5a41-4d60-a987-17264b37f49d" d="m78.1,57.8c0,12.63-8.72,26.39-28.15,26.39s-28.15-13.76-28.15-26.39,8.72-15.83,28.15-15.83,28.15,3.2,28.15,15.83Z"/>
  <path class="uuid-4a86d91e-1dd6-475a-90ee-28fb0118487a" d="m41.5,61.95c0,5.23-.96,6.76-4.22,6.76s-4.22-1.53-4.22-6.76.96-6.75,4.22-6.75,4.22,1.53,4.22,6.75Zm25.34,0c0,5.23-.96,6.76-4.22,6.76s-4.22-1.53-4.22-6.76.96-6.75,4.22-6.75,4.22,1.53,4.22,6.75Z"/>
  <circle class="uuid-65deff94-eabf-4611-adf0-6a211d6b8adf" cx="18.98" cy="40.55" r="5.63"/>
  <circle class="uuid-65deff94-eabf-4611-adf0-6a211d6b8adf" cx="80.91" cy="40.55" r="5.63"/>
</svg>