<?xml version="1.0" encoding="UTF-8"?>
<svg id="uuid-7e9ff069-090c-40d4-81da-38ae4a5f6444" data-name="Layer 1" xmlns="http://www.w3.org/2000/svg" viewBox="0 0 100 100">
  <defs>
    <style>
      .uuid-7b839795-603b-4829-8e4a-3c6b89366000 {
        fill: #fed429;
      }

      .uuid-bb7a90ec-1b1e-47b2-9911-288deaf1cf88 {
        fill: #662314;
      }

      .uuid-9dccc157-9021-48c3-848e-5380b0731a05 {
        fill: #2a2f33;
      }

      .uuid-782a5b74-558e-4df7-ac61-299416646f37 {
        fill: #e95a6f;
      }

      .uuid-59c66b73-45a4-4ea3-a130-ea97d43e6e21 {
        fill: #2a499f;
      }

      .uuid-6f09f6f7-4d15-425a-bc76-89f6b2631dc2 {
        fill: #eeedee;
      }

      .uuid-5d57b113-5f5e-4527-b2b4-47b5af7f68e5 {
        fill: #edecec;
      }
    </style>
  </defs>
  <path class="uuid-782a5b74-558e-4df7-ac61-299416646f37" d="m20.15,9.88c-6.1-3.57-12.39-5.86-13.51-5.19-1.6.95-3.05,14.07-.99,23.27,3.58-6.99,8.56-13.18,14.5-18.07Zm74.19,18.07c2.06-9.2.62-22.32-.99-23.27-1.12-.66-7.42,1.63-13.52,5.19,5.95,4.9,10.92,11.09,14.5,18.07Z"/>
  <g>
    <path class="uuid-7b839795-603b-4829-8e4a-3c6b89366000" d="m50,0c-.15,0-.31,0-.46,0h.92c-.15,0-.3,0-.46,0Z"/>
    <path class="uuid-7b839795-603b-4829-8e4a-3c6b89366000" d="m50,100c.15,0,.31,0,.46,0h-.92c.15,0,.3,0,.46,0Z"/>
    <path class="uuid-6f09f6f7-4d15-425a-bc76-89f6b2631dc2" d="m0,50c0,9.91,2.88,19.15,7.86,26.92h84.28c4.98-7.77,7.86-17.01,7.86-26.92s-2.88-19.15-7.86-26.92H7.86C2.88,30.85,0,40.09,0,50Zm43.76-10.8l6.24-10.8,6.24,10.8h12.47l-6.24,10.8,6.23,10.8h-12.47l-6.24,10.8-6.24-10.8h-12.48l6.24-10.8-6.23-10.8h12.47Z"/>
    <polygon class="uuid-6f09f6f7-4d15-425a-bc76-89f6b2631dc2" points="62.05 56.95 60.25 53.85 62.04 56.95 62.05 56.95"/>
    <polygon class="uuid-6f09f6f7-4d15-425a-bc76-89f6b2631dc2" points="37.95 56.95 37.95 56.95 39.75 53.85 37.95 56.95"/>
    <polygon class="uuid-6f09f6f7-4d15-425a-bc76-89f6b2631dc2" points="39.75 46.15 37.95 43.05 37.95 43.05 39.75 46.15"/>
    <polygon class="uuid-6f09f6f7-4d15-425a-bc76-89f6b2631dc2" points="58.45 56.95 58.46 56.95 60.25 53.85 58.45 56.95"/>
    <polygon class="uuid-6f09f6f7-4d15-425a-bc76-89f6b2631dc2" points="41.54 56.95 39.75 53.85 41.54 56.95 41.54 56.95"/>
    <polygon class="uuid-6f09f6f7-4d15-425a-bc76-89f6b2631dc2" points="54.02 43.04 54.01 43.04 58.03 50 54.02 43.04"/>
    <polygon class="uuid-6f09f6f7-4d15-425a-bc76-89f6b2631dc2" points="54.02 56.96 58.03 50 54.01 56.96 54.02 56.96"/>
    <path class="uuid-6f09f6f7-4d15-425a-bc76-89f6b2631dc2" d="m79.49,9.62C71.33,3.66,61.31.1,50.46,0h-.92c-10.85.1-20.87,3.65-29.03,9.61h58.97Z"/>
    <polygon class="uuid-6f09f6f7-4d15-425a-bc76-89f6b2631dc2" points="60.25 46.15 58.46 43.05 58.45 43.05 60.25 46.15"/>
    <polygon class="uuid-6f09f6f7-4d15-425a-bc76-89f6b2631dc2" points="50 63.91 51.79 60.8 48.2 60.8 50 63.91"/>
    <polygon class="uuid-6f09f6f7-4d15-425a-bc76-89f6b2631dc2" points="60.25 53.85 58.46 56.95 62.04 56.95 60.25 53.85"/>
    <polygon class="uuid-5d57b113-5f5e-4527-b2b4-47b5af7f68e5" points="62.04 43.05 58.46 43.05 60.25 46.15 62.04 43.05"/>
    <polygon class="uuid-5d57b113-5f5e-4527-b2b4-47b5af7f68e5" points="54.01 56.96 58.03 50 54.01 43.04 45.98 43.04 41.96 50 45.98 56.96 54.01 56.96"/>
    <polygon class="uuid-5d57b113-5f5e-4527-b2b4-47b5af7f68e5" points="39.75 53.85 37.95 56.95 41.54 56.95 39.75 53.85"/>
    <polygon class="uuid-5d57b113-5f5e-4527-b2b4-47b5af7f68e5" points="50 36.09 48.2 39.2 51.79 39.2 50 36.09"/>
    <polygon class="uuid-5d57b113-5f5e-4527-b2b4-47b5af7f68e5" points="41.54 43.05 37.95 43.05 39.75 46.15 41.54 43.05"/>
    <path class="uuid-59c66b73-45a4-4ea3-a130-ea97d43e6e21" d="m7.86,23.08h84.28c-3.35-5.23-7.65-9.8-12.66-13.46H20.52c-5,3.66-9.31,8.23-12.66,13.46Z"/>
    <path class="uuid-6f09f6f7-4d15-425a-bc76-89f6b2631dc2" d="m20.51,90.38c8.15,5.96,18.18,9.52,29.03,9.61h.92c10.85-.1,20.87-3.65,29.03-9.61H20.51Z"/>
    <path class="uuid-59c66b73-45a4-4ea3-a130-ea97d43e6e21" d="m20.51,90.38h58.97c5-3.66,9.31-8.23,12.66-13.46H7.86c3.35,5.23,7.65,9.8,12.66,13.46Z"/>
    <polygon class="uuid-59c66b73-45a4-4ea3-a130-ea97d43e6e21" points="41.54 43.05 41.54 43.04 41.54 43.05 41.54 43.05"/>
    <path class="uuid-59c66b73-45a4-4ea3-a130-ea97d43e6e21" d="m31.28,60.8h12.48l6.24,10.8,6.24-10.8h12.47l-6.23-10.8,6.24-10.8h-12.47l-6.24-10.8-6.24,10.8h-12.47l6.23,10.8-6.24,10.8Zm18.71,3.11l-1.8-3.11h3.59l-1.8,3.11Zm8.46-20.87h3.59s0,0,0,0l-1.79,3.11-1.8-3.11h0,0Zm0,13.91l1.8-3.11,1.8,3.11h0,0s-3.59,0-3.59,0h0s0,0,0,0Zm-8.46-20.87l1.8,3.11h-3.59l1.8-3.11Zm-4.01,6.96h8.03l4.01,6.96-4.01,6.96h-8.03l-4.02-6.96,4.02-6.96Zm-8.03,0h3.59s0,0,0,0l-1.79,3.11-1.8-3.11h0,0Zm0,13.91l1.8-3.11,1.8,3.11h0,0s-3.59,0-3.59,0h0s0,0,0,0Z"/>
    <polygon class="uuid-59c66b73-45a4-4ea3-a130-ea97d43e6e21" points="62.05 43.05 62.05 43.04 62.04 43.05 62.05 43.05"/>
    <rect class="uuid-59c66b73-45a4-4ea3-a130-ea97d43e6e21" x="58.46" y="56.95" width="3.59" height="0" transform="translate(-20.41 37.77) rotate(-30.01)"/>
    <rect class="uuid-59c66b73-45a4-4ea3-a130-ea97d43e6e21" x="58.46" y="43.04" width="3.59" height="0"/>
    <rect class="uuid-59c66b73-45a4-4ea3-a130-ea97d43e6e21" x="37.95" y="56.95" width="3.59" height="0" transform="translate(-23.16 27.52) rotate(-30.01)"/>
    <rect class="uuid-59c66b73-45a4-4ea3-a130-ea97d43e6e21" x="37.95" y="43.04" width="3.59" height="0"/>
  </g>
  <path class="uuid-782a5b74-558e-4df7-ac61-299416646f37" d="m78.1,57.8c0,12.63-8.72,26.39-28.15,26.39s-28.15-13.76-28.15-26.39,8.72-15.83,28.15-15.83,28.15,3.2,28.15,15.83Z"/>
  <path class="uuid-bb7a90ec-1b1e-47b2-9911-288deaf1cf88" d="m41.5,61.95c0,5.23-.96,6.76-4.22,6.76s-4.22-1.53-4.22-6.76.96-6.75,4.22-6.75,4.22,1.53,4.22,6.75Zm25.34,0c0,5.23-.96,6.76-4.22,6.76s-4.22-1.53-4.22-6.76.96-6.75,4.22-6.75,4.22,1.53,4.22,6.75Z"/>
  <circle class="uuid-9dccc157-9021-48c3-848e-5380b0731a05" cx="18.98" cy="40.55" r="5.63"/>
  <circle class="uuid-9dccc157-9021-48c3-848e-5380b0731a05" cx="80.91" cy="40.55" r="5.63"/>
</svg>