<?xml version="1.0" encoding="UTF-8"?>
<svg id="Layer_1" data-name="Layer 1" xmlns="http://www.w3.org/2000/svg" viewBox="0 0 99.94 100.02">
  <defs>
    <style>
      .cls-1 {
        fill: #fed429;
      }

      .cls-2 {
        fill: #255fac;
      }

      .cls-3 {
        fill: #662314;
      }

      .cls-4 {
        fill: #2a2f33;
      }

      .cls-5 {
        fill: #e95a6f;
      }
    </style>
  </defs>
  <g id="ukraina_swinia">
    <path class="cls-2" d="m0,49.97C0,22.38,22.38,0,49.97,0s49.97,22.38,49.97,49.97"/>
    <path class="cls-1" d="m99.94,50.05c0,27.6-22.38,49.97-49.97,49.97S0,77.64,0,50.05"/>
    <g>
      <path class="cls-5" d="m20.09,9.48C13.99,5.92,7.7,3.63,6.58,4.29c-1.6.95-3.05,14.06-.99,23.25,3.58-6.99,8.55-13.17,14.5-18.06Zm74.15,18.06c2.06-9.19.62-22.31-.99-23.25-1.12-.66-7.41,1.63-13.51,5.19,5.95,4.89,10.92,11.08,14.5,18.06Zm-16.19,30.22c0,12.62-8.71,26.38-28.14,26.38s-28.14-13.75-28.14-26.38,8.71-15.83,28.14-15.83,28.14,3.2,28.14,15.83Z"/>
      <path class="cls-3" d="m41.48,61.91c0,5.22-.96,6.75-4.22,6.75s-4.22-1.53-4.22-6.75.96-6.75,4.22-6.75,4.22,1.52,4.22,6.75Zm25.32,0c0,5.22-.96,6.75-4.22,6.75s-4.22-1.53-4.22-6.75.96-6.75,4.22-6.75,4.22,1.52,4.22,6.75Z"/>
      <circle class="cls-4" cx="18.97" cy="40.53" r="5.63"/>
      <circle class="cls-4" cx="80.87" cy="40.53" r="5.63"/>
    </g>
  </g>
</svg>