<?xml version="1.0" encoding="UTF-8"?>
<svg id="uuid-05e1f742-ded4-447e-a98a-5e4f55aa832a" data-name="Layer 1" xmlns="http://www.w3.org/2000/svg" viewBox="0 0 100 100">
  <defs>
    <style>
      .uuid-fbf2debd-d024-4dee-bce8-a58b7a5a89bb {
        fill: #fed429;
      }

      .uuid-86a6afcf-d8c9-4fe7-b6ba-e10d6c002b47 {
        fill: #255fac;
      }

      .uuid-b1c476b4-1463-4caa-a63f-4839f9eed79c {
        fill: #662314;
      }

      .uuid-be69a800-2074-40ae-bf55-ac7c6c5e2523 {
        fill: #2a2f33;
      }

      .uuid-d96f7be7-8558-42b3-bc3b-33c9bfde776c {
        fill: #e95a6f;
      }
    </style>
  </defs>
  <path class="uuid-d96f7be7-8558-42b3-bc3b-33c9bfde776c" d="m20.15,9.88c-6.1-3.57-12.39-5.86-13.51-5.19-1.6.95-3.05,14.07-.99,23.27,3.58-6.99,8.56-13.18,14.5-18.07Zm74.19,18.07c2.06-9.2.62-22.32-.99-23.27-1.12-.66-7.42,1.63-13.52,5.19,5.95,4.9,10.92,11.09,14.5,18.07Z"/>
  <path class="uuid-86a6afcf-d8c9-4fe7-b6ba-e10d6c002b47" d="m0,50C0,22.39,22.39,0,50,0s50,22.39,50,50"/>
  <path class="uuid-fbf2debd-d024-4dee-bce8-a58b7a5a89bb" d="m100,50c0,27.61-22.39,50-50,50S0,77.61,0,50"/>
  <path class="uuid-d96f7be7-8558-42b3-bc3b-33c9bfde776c" d="m78.1,57.8c0,12.63-8.72,26.39-28.15,26.39s-28.15-13.76-28.15-26.39,8.72-15.83,28.15-15.83,28.15,3.2,28.15,15.83Z"/>
  <path class="uuid-b1c476b4-1463-4caa-a63f-4839f9eed79c" d="m41.5,61.95c0,5.23-.96,6.76-4.22,6.76s-4.22-1.53-4.22-6.76.96-6.75,4.22-6.75,4.22,1.53,4.22,6.75Zm25.34,0c0,5.23-.96,6.76-4.22,6.76s-4.22-1.53-4.22-6.76.96-6.75,4.22-6.75,4.22,1.53,4.22,6.75Z"/>
  <circle class="uuid-be69a800-2074-40ae-bf55-ac7c6c5e2523" cx="18.98" cy="40.55" r="5.63"/>
  <circle class="uuid-be69a800-2074-40ae-bf55-ac7c6c5e2523" cx="80.91" cy="40.55" r="5.63"/>
</svg>