<?xml version="1.0" encoding="UTF-8"?>
<svg id="Layer_1" data-name="Layer 1" xmlns="http://www.w3.org/2000/svg" viewBox="0 0 88.97 100.29">
  <defs>
    <style>
      .cls-1 {
        fill: #fff;
      }

      .cls-2 {
        fill: #2a2f33;
      }

      .cls-3 {
        fill: #f04923;
      }
    </style>
  </defs>
  <rect class="cls-1" x="43.44" y="4.86" width="3.6" height="9.14" rx="1.65" ry="1.65"/>
  <path class="cls-3" d="m88.97,55.81c0,24.57-19.92,44.48-44.48,44.48S0,80.38,0,55.81,19.92,11.33,44.48,11.33s44.48,19.92,44.48,44.48"/>
  <path class="cls-2" d="m65.75,69.68c0,9.54-6.59,19.93-21.26,19.93s-21.26-10.39-21.26-19.93,6.58-11.96,21.26-11.96,21.26,2.42,21.26,11.96Z"/>
  <path class="cls-1" d="m64.9,37.71c0,4.08-2.23,7.38-4.99,7.38s-4.99-3.31-4.99-7.38,2.23-7.38,4.99-7.38,4.99,3.31,4.99,7.38Zm-40.84,0c0,4.08,2.23,7.38,4.99,7.38s4.99-3.31,4.99-7.38-2.23-7.38-4.99-7.38-4.99,3.31-4.99,7.38Z"/>
  <path class="cls-2" d="m79.62,28.64c-.36-.35-2.66.57-4.98-.61-4.79-2.44-16.91-4.8-24.8.79-.84.6-4.37.7-5.36.66-.99.04-4.52-.06-5.36-.66-7.89-5.59-20-3.23-24.8-.79-2.32,1.18-4.62.26-4.98.61-.52.5-.52,2.51,0,3.01.52.5,3.1,1.08,3.61,2.58.52,1.5.52,10.39,4.64,13.46,3.85,2.88,12.84,3.74,18.54.5,4.97-2.83,4.8-8.78,5.71-12.32.32-1.26,1.24-1.9,2.64-1.9s2.32.64,2.64,1.9c.91,3.54.74,9.5,5.71,12.32,5.7,3.24,14.69,2.37,18.54-.5,4.12-3.07,4.12-11.96,4.64-13.46.51-1.5,3.09-2.08,3.61-2.58.52-.5.52-2.51,0-3.01Zm-42.32,7.65c-.16,2.32-.57,6.76-3.35,8.34-1.7.97-3.91,1.56-6.23,1.56h0c-2.57,0-6.13-.73-7.52-1.76-1.74-1.3-2.4-6.64-2.65-8.63-.16-1.27-.59-4.38.81-4.86,2.22-.76,5.32-1.35,8.49-1.35,1.45,0,6.33.09,8.71,1.55,2.11,1.29,1.83,3.88,1.74,5.15Zm34.11-.53c-.25,2-.91,7.37-2.65,8.66-1.39,1.04-4.95,1.76-7.52,1.76h0c-2.32,0-4.53-.59-6.23-1.56-2.77-1.58-3.19-6-3.35-8.31-.09-1.27-.37-3.88,1.74-5.17,2.38-1.46,7.25-1.56,8.71-1.56,3.17,0,6.27.58,8.49,1.34,1.4.48.97,3.57.82,4.84Z"/>
  <path class="cls-1" d="m52.56,59.42c-2.12-.25-4.52-.47-7.19-.51v1.67h0v9.12h3.15c2.22,0,4.04-1.82,4.04-4.04v-6.24h0s0,0,0,0Z"/>
  <path class="cls-1" d="m43.6,61.12v-2.21c-2.67.04-5.07.26-7.19.51,0,0,0,0,0,0h0v6.24c0,2.22,1.82,4.04,4.04,4.04h3.15v-8.58h0Z"/>
  <rect class="cls-2" x="42.68" y="87.28" width="3.6" height="5.36" rx="1.65" ry="1.65"/>
  <circle class="cls-1" cx="45.24" cy="4.86" r="4.86"/>
</svg>