<?xml version="1.0" encoding="UTF-8"?>
<svg id="uuid-f9d93e2b-387b-438b-b14e-ebab8184fc18" data-name="Layer 1" xmlns="http://www.w3.org/2000/svg" viewBox="0 0 99.03 100">
  <defs>
    <style>
      .uuid-bdd3ea7a-e986-469e-a332-08685eb89407 {
        fill: #fff;
      }

      .uuid-acee884f-ff2d-4a74-8dfb-513f6f7c0c98 {
        fill: #ffcc4c;
      }

      .uuid-1f873740-1855-4a82-9970-905c313e659a {
        fill: #2a2f33;
      }

      .uuid-63253ea9-6941-4285-a341-038ae8e632a3 {
        fill: #68491d;
      }

      .uuid-23998b83-553f-4704-887b-3ad7bef427e7 {
        fill: #5faadb;
        opacity: .28;
      }

      .uuid-1e271ac4-0a10-4fd7-842b-f3832bde0730 {
        fill: #64aadd;
      }

      .uuid-da9ddd26-7e56-49a8-b7d7-8666071cfdee {
        fill: #66481c;
      }
    </style>
  </defs>
  <path class="uuid-acee884f-ff2d-4a74-8dfb-513f6f7c0c98" d="m79.25,18.93c16.92,16.92,16.92,44.36,0,61.29-16.92,16.92-44.36,16.92-61.29,0-16.92-16.92-16.92-44.36,0-61.29,16.92-16.92,44.36-16.92,61.29,0"/>
  <ellipse class="uuid-da9ddd26-7e56-49a8-b7d7-8666071cfdee" cx="60.02" cy="56.25" rx="2.65" ry="1.92" transform="translate(-22.19 58.92) rotate(-45)"/>
  <ellipse class="uuid-da9ddd26-7e56-49a8-b7d7-8666071cfdee" cx="55.35" cy="60.91" rx="2.65" ry="1.92" transform="translate(-26.86 56.98) rotate(-45)"/>
  <path class="uuid-63253ea9-6941-4285-a341-038ae8e632a3" d="m87.98,54.04c-.09.09-.2.17-.33.23-.59.28-1.3.03-1.58-.56-1.6-3.33-3.75-4.81-6.98-4.79-.65,0-1.19-.52-1.19-1.18,0-.65.52-1.19,1.18-1.19,4.15-.02,7.14,1.98,9.13,6.13.22.47.12,1.01-.23,1.35Z"/>
  <path class="uuid-63253ea9-6941-4285-a341-038ae8e632a3" d="m53.16,88.89c-.35.35-.89.45-1.35.23-4.15-1.99-6.16-4.98-6.13-9.13,0-.65.54-1.18,1.19-1.18.65,0,1.18.54,1.18,1.19-.02,3.23,1.46,5.38,4.79,6.98.59.28.84.99.56,1.58-.06.12-.14.23-.23.33Z"/>
  <path class="uuid-1f873740-1855-4a82-9970-905c313e659a" d="m46.93,67.54c.44-.44.78-.96,1.02-1.54-.24.57-.57,1.09-1.02,1.54,0,0,0,0,0,0Z"/>
  <path class="uuid-1f873740-1855-4a82-9970-905c313e659a" d="m48.01,65.87s-.01.04-.02.06c0-.02.01-.04.02-.06Z"/>
  <path class="uuid-1f873740-1855-4a82-9970-905c313e659a" d="m45.14,56.79s-.04-.04-.06-.05c.02.02.04.04.07.06,0,0,0,0-.01-.01Z"/>
  <path class="uuid-1f873740-1855-4a82-9970-905c313e659a" d="m33.02,59.49s0-.05,0-.07c0,.02,0,.05,0,.07Z"/>
  <path class="uuid-23998b83-553f-4704-887b-3ad7bef427e7" d="m47.98,65.93s-.02.05-.03.08c.01-.03.02-.05.03-.08Z"/>
  <path class="uuid-23998b83-553f-4704-887b-3ad7bef427e7" d="m45.09,56.74c-.29-.29-.59-.55-.9-.8,0,0-.01,0-.02.01.31.25.62.5.92.79Z"/>
  <path class="uuid-23998b83-553f-4704-887b-3ad7bef427e7" d="m48.01,65.87c.99-2.61-.06-6.27-2.84-9.06,0,0,0,0-.01-.01,2.79,2.79,3.84,6.46,2.85,9.07Z"/>
  <path class="uuid-23998b83-553f-4704-887b-3ad7bef427e7" d="m33.01,59.42c0-.08-.01-.16-.02-.24,0,.08,0,.16.02.24Z"/>
  <path class="uuid-23998b83-553f-4704-887b-3ad7bef427e7" d="m36.18,65.75c-1.89-1.89-2.96-4.17-3.16-6.26.2,2.1,1.29,4.39,3.18,6.28,3.45,3.45,8.26,4.24,10.74,1.77,0,0,0,0,0,0-2.48,2.47-7.29,1.67-10.75-1.79Z"/>
  <path class="uuid-1f873740-1855-4a82-9970-905c313e659a" d="m55.92,46.05c-.14-.14-.27-.28-.4-.42.12.14.24.27.37.4,3.47,3.47,8.28,4.27,10.75,1.79,0,0,0,0,0,0-2.48,2.47-7.28,1.68-10.73-1.77Z"/>
  <path class="uuid-23998b83-553f-4704-887b-3ad7bef427e7" d="m55.04,45.07c.15.19.32.38.48.56-.16-.19-.32-.38-.48-.57,0,0,0,0,0,.01Z"/>
  <path class="uuid-23998b83-553f-4704-887b-3ad7bef427e7" d="m64.86,37.07c3.46,3.46,4.27,8.27,1.8,10.75,0,0,0,0,0,0,2.48-2.48,1.68-7.28-1.77-10.74-2.03-2.03-4.53-3.14-6.74-3.21,0,0,0,0,0,0,2.21.08,4.69,1.17,6.71,3.19Z"/>
  <path class="uuid-da9ddd26-7e56-49a8-b7d7-8666071cfdee" d="m76.58,58.08c-4.53,4.44-2.01,7.03-7.3,12.2-5.29,5.18-7.81,2.58-12.34,7.02-1.51,1.48-1.64,2.87-1.01,3.52,1.89,1.94,11.33,4.08,19.64-4.05,8.31-8.13,6.42-17.66,4.53-19.61-.63-.65-2.02-.56-3.53.92Z"/>
  <path class="uuid-da9ddd26-7e56-49a8-b7d7-8666071cfdee" d="m54.87,79.73c2.14-.83,8.31-.55,11.33-3.51,3.02-2.96,2.39-3.61,3.9-5.08,1.51-1.48,2.14-.83,5.16-3.79,3.02-2.96,2.9-9.16,3.78-11.28,0,0,.84-2.17-.38-3.42-1.22-1.25-2.77.18-2.77.18-5.29,5.18-6.29,8.69-6.29,8.69,0,0-3.52.92-5.79,3.14s-3.27,5.73-3.27,5.73c0,0-3.53.92-8.81,6.1,0,0-1.47,1.52-.25,2.77,1.22,1.26,3.4.47,3.4.47Z"/>
  <path class="uuid-1f873740-1855-4a82-9970-905c313e659a" d="m72.55,12.21c-.57-.54-1.14-1.07-1.72-1.59-1.09-.97-2.31-1.77-3.81-2.17-.61-.16-1.03-.7-1.53-1.07-.55-.4-1.08-.83-1.66-1.2-.44-.28-.94-.49-1.41-.74-1.68-.89-3.4-1.72-5.01-2.7-1.13-.69-2.14-1.55-3.59-1.75-.66-.1-1.13-.62-1.75-1-.13.06-.39.19-.65.31-2.71,1.23-5.42,1.68-8.12,3.35-1.32.81-2.63,1.7-3.92,2.63-.14.1-.28.2-.42.31C18.21,12.14,9.24,29.1,6.35,36.08c-1.22,1.62-2.2,3.3-3.02,5.07-.8,1.72-1.73,3.43-2.79,5.1-.43.68-.61,1.17-.51,1.77.29,1.8.39,3.68.7,5.47.34,1.92.79,3.8,1.3,5.63.42,1.48,1.04,2.86,1.55,4.3.22.61.27,1.35.67,1.81,1.21,1.41,2.61,2.68,3.85,4.07.79.89,1.39,1.93,2.13,2.86.19.24.38.48.58.73.07.08.13.16.2.25.65-.47,1.31-.95,1.96-1.43-.21.02-.36-.03-.46-.16-.06-.07-.1-.16-.13-.28,1.53-1.54,1.7-2.21.99-3.65-.04-.08-.14-.12-.14-.21-.22-2.4-2.74-2.93-4.04-4.45-1.33-1.53-2.52-3.11-2.5-5.52,0-1.28-.57-2.35-.79-3.56-.15-.84-.11-1.77-.17-2.66,1.43-.5,2.29-.4,2.9.24.46.49,1.16.42,1.99-.35.34-.32.73-.6,1.08-.89,1.12.62,1.92.24,3.1-1.17.64-.77,1.64-1.35,2.35-2.1.55-.58,1.08-1.3,1.31-1.94.47-1.3,1.12-2.69.5-3.79.89-.07,1.69-.35,2.04-1.3.26-.69.32-1.36.47-2.1.26.1.54.23.84.33,1.16.37,2.47-.3,3.54-1.34,1.48-1.44,2.78-3.06,4.09-4.65.25-.31.3-.73.45-1.1.13-.31.19-.71.41-.92,1.23-1.14,1.62-2.43,2.07-3.73.09-.27.23-.61.44-.81,1.66-1.54,3.32-3.08,4.98-4.62.22-.21.71-.36.89-.27,1.91.98,6.16-1.96,6.75-4.57.07-.32.38-.7.6-1.04.51-.79,1.01-1.6,1.56-2.37.19-.27.54-.57.81-.67,1.43-.54,2.14-1.98,2.98-3.16.22-.31-.1-.95-.18-1.49,1.58-.66,3.1-1.22,4.23-.26.26.22.89-.06,1.25.06.76.25,1.53.51,2.15.96,1.28.95,2.49,1.99,3.68,3.07.76.69,1.34,1.6,2.16,2.2.35.26,1.14-.11,1.67-.06.4.04.88.16,1.01.5.34.91,1.1,1.35,2.21.82.43-.21.87-.6,1.36-.98.06-.05.13-.1.19-.15,0,0,0,0,0,0,.33-.44.65-.89.98-1.34-.01-.01-.03-.03-.04-.04Z"/>
  <path class="uuid-bdd3ea7a-e986-469e-a332-08685eb89407" d="m57.39,76.38s4.01-2,10.01-8.01,8.01-10.01,8.01-10.01c0,0,2,6.01-5.01,13.02-7.01,7.01-13.02,5.01-13.02,5.01Z"/>
  <path class="uuid-da9ddd26-7e56-49a8-b7d7-8666071cfdee" d="m67.86,24.57c-.67.67-1.72.91-2.65.51-10.59-4.54-19.75,1.43-19.85,1.49-1.1.74-2.6.44-3.34-.67-.74-1.11-.44-2.6.67-3.34.46-.31,11.45-7.47,24.41-1.91,1.22.52,1.79,1.94,1.26,3.16-.12.29-.29.54-.51.75Zm-44.26,44.26c-.21.21-.46.38-.75.51-1.22.52-2.64-.04-3.16-1.26-5.56-12.97,1.61-23.95,1.91-24.41.74-1.1,2.23-1.4,3.34-.67,1.1.74,1.4,2.23.67,3.33-.25.38-6,9.34-1.5,19.85.4.93.16,1.98-.51,2.65Z"/>
  <path class="uuid-1f873740-1855-4a82-9970-905c313e659a" d="m73.27,12.62c-.62,0-1.82,2.83-4.89,3.83-6.34,2.06-19.01,10.61-21.03,22.41-.22,1.26-3.22,4.44-4.12,5.27-.83.9-4,3.91-5.27,4.12-11.8,2.01-20.35,14.69-22.41,21.03-1,3.07-3.82,4.28-3.83,4.89-.01.89,1.74,2.65,2.64,2.63.89-.01,3.66-1.77,5.42-.9,1.77.86,9.56,8.64,15.85,7.73,5.89-.86,14.52-7.97,16.68-15.8,1.88-6.83-3.49-11.89-5.79-15.79-.82-1.39-.58-2.75.65-3.98s2.59-1.47,3.98-.65c3.9,2.31,8.96,7.67,15.79,5.79,7.83-2.15,14.94-10.78,15.8-16.67.92-6.29-6.86-14.08-7.73-15.85-.87-1.77.88-4.53.9-5.42.01-.9-1.74-2.65-2.63-2.64Zm-30.36,43.76c1.89,2.17,5.42,6.43,4.37,10.24-.64,2.34-2.06,4.79-4.09,6.82h0c-2.25,2.25-6,4.73-8.13,5.04-2.66.39-7.92-3.71-9.88-5.24-1.25-.97-4.35-3.32-3.54-4.97,1.28-2.61,3.48-5.84,6.26-8.62,1.27-1.27,5.62-5.47,8.99-6.27,2.98-.71,5,1.8,6.03,2.99Zm29.41-30.34c1.53,1.97,5.65,7.25,5.27,9.91-.31,2.13-2.79,5.88-5.04,8.13h0c-2.03,2.03-4.49,3.46-6.82,4.1-3.81,1.05-8.04-2.46-10.21-4.35-1.19-1.04-3.72-3.07-3.01-6.05.8-3.36,4.98-7.72,6.26-8.99,2.78-2.78,6-4.98,8.61-6.27,1.64-.81,3.98,2.27,4.95,3.52Z"/>
  <g>
    <path class="uuid-da9ddd26-7e56-49a8-b7d7-8666071cfdee" d="m45.11,59.34c-.33-.13-8.16-3.06-13.2,1.97-5.03,5.03-2.1,12.87-1.97,13.2.2.51.71.82,1.25.76s.98-.48,1.06-1.01c0-.04.61-3.68,4.77-7.84s7.75-4.75,7.84-4.77c.26-.04.5-.16.68-.34.19-.19.31-.44.35-.72.06-.54-.25-1.06-.76-1.26Z"/>
    <path class="uuid-da9ddd26-7e56-49a8-b7d7-8666071cfdee" d="m45.18,59.42c-.33-.13-8.16-3.06-13.2,1.97s-2.1,12.87-1.97,13.2c.2.51.71.82,1.25.76.54-.06.98-.47,1.06-1.01,0-.04.61-3.68,4.77-7.84,4.13-4.13,7.75-4.75,7.84-4.77.26-.04.5-.16.68-.34.19-.19.31-.44.35-.72.06-.54-.25-1.06-.76-1.26Z"/>
    <path class="uuid-da9ddd26-7e56-49a8-b7d7-8666071cfdee" d="m73.63,30.98c-.33-.13-8.16-3.06-13.2,1.97-5.03,5.03-2.1,12.87-1.97,13.2.2.51.71.82,1.25.76.54-.06.98-.47,1.06-1.01,0-.04.61-3.68,4.77-7.84s7.75-4.75,7.84-4.77c.26-.04.5-.16.68-.34.19-.19.31-.44.35-.72.06-.54-.25-1.06-.76-1.26Z"/>
  </g>
  <path class="uuid-1e271ac4-0a10-4fd7-842b-f3832bde0730" d="m56.52,81.81c3.4,5.71,1.52,13.1-4.19,16.5-5.71,3.4-13.1,1.53-16.5-4.19-3.4-5.71-4.04-25.61-1.97-26.85,2.07-1.23,19.26,8.82,22.66,14.53Zm24.32-24.32c5.71,3.4,13.1,1.52,16.5-4.19,3.4-5.71,1.53-13.1-4.19-16.5-5.71-3.4-25.61-4.03-26.85-1.96-1.23,2.07,8.82,19.26,14.54,22.66Z"/>
</svg>