<?xml version="1.0" encoding="UTF-8"?>
<svg id="uuid-791aa9e2-099f-489e-94dc-5c3c00ce24f3" data-name="Layer 1" xmlns="http://www.w3.org/2000/svg" viewBox="0 0 100 100">
  <defs>
    <style>
      .uuid-9d3d159a-3554-43de-b06e-3072cd6c7f46 {
        fill: #fed429;
      }

      .uuid-779db4c9-e3eb-459b-8ac9-e515d822efb5 {
        fill: #662314;
      }

      .uuid-ee943cf3-9d43-42a6-a31e-ff6e5f7a94a5 {
        fill: #2a2f33;
      }

      .uuid-fa018b2c-92c3-4b1f-978d-a1409bea18fb {
        fill: #e95a6f;
      }

      .uuid-4b2ece7d-133e-42a4-aae8-e066283b9b27 {
        fill: #ce2029;
      }

      .uuid-d97c2db1-f328-4560-bf31-5e16f20e49e5 {
        fill: #eeedee;
      }

      .uuid-8f8265ae-9b0f-42ee-a91c-1c1e87bc1144 {
        fill: #21428c;
      }
    </style>
  </defs>
  <path class="uuid-fa018b2c-92c3-4b1f-978d-a1409bea18fb" d="m20.15,9.88c-6.1-3.57-12.39-5.86-13.51-5.19-1.6.95-3.05,14.07-.99,23.27,3.58-6.99,8.56-13.18,14.5-18.07Zm74.19,18.07c2.06-9.2.62-22.32-.99-23.27-1.12-.66-7.42,1.63-13.52,5.19,5.95,4.9,10.92,11.09,14.5,18.07Z"/>
  <path class="uuid-9d3d159a-3554-43de-b06e-3072cd6c7f46" d="m50,100c.17,0,.34,0,.5,0h-1.01c.17,0,.34,0,.5,0Z"/>
  <path class="uuid-9d3d159a-3554-43de-b06e-3072cd6c7f46" d="m50,0c-.17,0-.34,0-.5,0h1.01c-.17,0-.34,0-.5,0Z"/>
  <path class="uuid-4b2ece7d-133e-42a4-aae8-e066283b9b27" d="m96.17,69.23H3.83c7.47,17.92,25.08,30.56,45.66,30.77h1.01c20.58-.2,38.19-12.84,45.66-30.77Z"/>
  <path class="uuid-8f8265ae-9b0f-42ee-a91c-1c1e87bc1144" d="m0,50c0,6.81,1.37,13.31,3.83,19.23h92.33c2.47-5.92,3.83-12.41,3.83-19.23s-1.37-13.31-3.83-19.23H3.83c-2.47,5.92-3.83,12.41-3.83,19.23Z"/>
  <path class="uuid-d97c2db1-f328-4560-bf31-5e16f20e49e5" d="m3.83,30.77h92.33C88.69,12.85,71.09.21,50.5,0h-1.01C28.92.21,11.31,12.85,3.83,30.77Z"/>
  <path class="uuid-fa018b2c-92c3-4b1f-978d-a1409bea18fb" d="m78.1,57.8c0,12.63-8.72,26.39-28.15,26.39s-28.15-13.76-28.15-26.39,8.72-15.83,28.15-15.83,28.15,3.2,28.15,15.83Z"/>
  <path class="uuid-779db4c9-e3eb-459b-8ac9-e515d822efb5" d="m41.5,61.95c0,5.23-.96,6.76-4.22,6.76s-4.22-1.53-4.22-6.76.96-6.75,4.22-6.75,4.22,1.53,4.22,6.75Zm25.34,0c0,5.23-.96,6.76-4.22,6.76s-4.22-1.53-4.22-6.76.96-6.75,4.22-6.75,4.22,1.53,4.22,6.75Z"/>
  <circle class="uuid-ee943cf3-9d43-42a6-a31e-ff6e5f7a94a5" cx="18.98" cy="40.55" r="5.63"/>
  <circle class="uuid-ee943cf3-9d43-42a6-a31e-ff6e5f7a94a5" cx="80.91" cy="40.55" r="5.63"/>
</svg>