<?xml version="1.0" encoding="UTF-8"?>
<svg id="Layer_1" data-name="Layer 1" xmlns="http://www.w3.org/2000/svg" viewBox="0 0 96.58493 100">
  <defs>
    <style>
      .cls-1 {
        fill: #fff;
      }

      .cls-2 {
        fill: #386732;
      }

      .cls-3 {
        fill: #2a2f33;
      }

      .cls-4 {
        fill: #66471b;
      }

      .cls-5 {
        fill: #396832;
      }

      .cls-6 {
        fill: #a55a3a;
      }

      .cls-7 {
        fill: #5a8e3e;
      }
    </style>
  </defs>
  <path class="cls-7" d="m96.58493,51.70752c0-11.72618-4.18163-22.47606-11.13349-30.84228-.43994-11.59768-9.97912-20.86524-21.68446-20.86524-4.39069,0-8.47547,1.30556-11.89069,3.54755-1.1834-.08685-2.37826-.1325-3.58382-.1325-1.66935,0-3.31891.08482-4.94467.25022-3.1184-1.73392-6.70871-2.7217-10.52985-2.7217C21.45643.94357,12.13556,9.6747,11.19541,20.79305,4.20697,29.16966,0,39.94736,0,51.70752c0,26.67086,21.62429,48.29248,48.29247,48.29248,26.67085,0,48.29247-21.62162,48.29247-48.29248"/>
  <path class="cls-6" d="m48.29247,85.74222c7.80185,0,12.97868.90875,19.38081,2.15342,1.46217.2821,4.30685,0,4.30685-4.30685,0-8.61369-9.89498-19.38081-23.68766-19.38081-13.79052,0-23.68766,10.76712-23.68766,19.38081,0,4.30685,2.84467,4.5911,4.30685,4.30685,6.40213-1.24468,11.57895-2.15342,19.38081-2.15342Z"/>
  <path class="cls-4" d="m67.73913,80.43153s-6.46027-2.15342-19.38081-2.15342-19.38081,2.15342-19.38081,2.15342c0,0,4.30685-8.61369,19.38081-8.61369,15.07396,0,19.38081,8.61369,19.38081,8.61369Z"/>
  <g>
    <g>
      <path class="cls-1" d="m87.00887,29.24881c-.6516-.71939-1.7125-.9079-2.57707-.46595-.06112.02949-5.95209,2.98332-16.30193,1.3563-10.28624-1.61701-14.99054-6.1843-15.09593-6.28775-.32913-.33851-.75658-.54909-1.19753-.61841-.4664-.07332-.96172.00959-1.39554.25421-.84936.48342-1.26216,1.47866-1.01073,2.42191.15801.58849,3.85392,13.87633,15.27248,16.66214-.57116-1.02405-.82078-2.23726-.62457-3.4854.46608-2.96483,3.24737-4.99045,6.21218-4.52437s4.99045,3.24735,4.52437,6.21218c-.07565.48125-.2179.93442-.40645,1.35956,7.76765-2.62281,12.55616-9.87882,12.81736-10.28261.52805-.81637.43494-1.88243-.21664-2.60182Z"/>
      <path class="cls-3" d="m70.29022,34.56151c-2.96481-.46607-5.7461,1.55955-6.21218,4.52437-.19621,1.24814.05341,2.46135.62457,3.4854.46356.11309.93833.21096,1.42764.28788,3.02861.4761,5.80393.10942,8.27789-.72593.18854-.42514.33079-.87831.40645-1.35956.46608-2.96483-1.55955-5.7461-4.52437-6.21218Zm-3.44728,8.3207c-.65884-.10357-1.10899-.72165-1.00542-1.38048s.72165-1.10899,1.38048-1.00542,1.10899.72163,1.00542,1.38048-.72163,1.10899-1.38048,1.00542Zm1.84932-3.98779c-.65884-.10357-1.10899-.72165-1.00542-1.38048s.72165-1.10899,1.38048-1.00542,1.10899.72163,1.00542,1.38048-.72163,1.10899-1.38048,1.00542Zm4.0985,3.08915c-.65884-.10357-1.10899-.72165-1.00542-1.38048s.72165-1.10899,1.38048-1.00542,1.10899.72163,1.00542,1.38048-.72163,1.10899-1.38048,1.00542Z"/>
      <circle class="cls-1" cx="68.87979" cy="37.70147" r="1.2076"/>
      <circle class="cls-1" cx="72.97828" cy="40.79062" r="1.2076"/>
      <circle class="cls-1" cx="67.03047" cy="41.68926" r="1.2076"/>
      <path class="cls-2" d="m59.94351,16.99446c8.34892,4.49806,17.43585,2.48777,17.82221,2.39862,1.12486-.26068,2.37883.1706,2.80077.96537.42124.79684-.14904,1.65338-1.2767,1.92235-.47035.11078-11.6343,2.64198-21.92949-2.90595-.97048-.52333-1.17968-1.47979-.46577-2.13704.16949-.15663.37449-.28117.60412-.37458.73335-.29829,1.70377-.26708,2.44485.13123Z"/>
      <path class="cls-5" d="m67.6947,49.81564c-5.69937,0-9.81983-1.83526-10.09673-1.96187-.66354-.30334-.95555-1.08713-.6522-1.75058.30297-.66289,1.08556-.95518,1.74873-.65303.11629.05243,10.07517,4.43735,20.01184-1.13164.63663-.35651,1.44161-.12983,1.79822.50652.35669.63645.12992,1.44152-.50652,1.79822-4.35193,2.4389-8.6518,3.19237-12.30333,3.19237Z"/>
      <path class="cls-5" d="m79.72823,84.56594c-.14513,0-.29265-.02405-.43741-.07491-.68842-.24151-1.05064-.99545-.80904-1.68386,1.58849-4.52655.96402-7.8634-2.02471-10.81943-.51869-.51307-.52329-1.34947-.01032-1.86815.51307-.5185,1.34947-.5232,1.86815-.01032,3.70783,3.66729,4.57787,8.10694,2.65977,13.57273-.19074.54366-.70123.88395-1.24645.88395Z"/>
    </g>
    <g>
      <path class="cls-1" d="m9.57607,29.28134c.6516-.71939,1.7125-.9079,2.57707-.46595.06112.02949,5.95209,2.98332,16.30193,1.3563,10.28624-1.61701,14.99054-6.1843,15.09593-6.28775.32913-.33851.75658-.54909,1.19753-.61841.4664-.07332.96172.00959,1.39554.25421.84936.48342,1.26216,1.47866,1.01073,2.42191-.15801.58849-3.85392,13.87633-15.27248,16.66214.57116-1.02405.82078-2.23726.62457-3.4854-.46608-2.96483-3.24737-4.99045-6.21218-4.52437s-4.99045,3.24735-4.52437,6.21218c.07565.48125.2179.93442.40645,1.35956-7.76765-2.62281-12.55616-9.87882-12.81736-10.28261-.52805-.81637-.43494-1.88243.21664-2.60182Z"/>
      <path class="cls-3" d="m21.77034,40.80621c.07565.48125.2179.93442.40645,1.35956,2.47396.83535,5.24928,1.20203,8.27789.72593.48931-.07692.96409-.1748,1.42764-.28788.57116-1.02405.82078-2.23726.62457-3.4854-.46608-2.96483-3.24737-4.99045-6.21218-4.52437s-4.99045,3.24735-4.52437,6.21218Zm6.59117,1.10311c-.10357-.65886.34656-1.27691,1.00542-1.38048s1.27691.34656,1.38048,1.00542-.34658,1.27691-1.00542,1.38048-1.27691-.34658-1.38048-1.00542Zm-1.84932-3.98779c-.10357-.65886.34656-1.27691,1.00542-1.38048s1.27691.34656,1.38048,1.00542-.34658,1.27691-1.00542,1.38048-1.27691-.34658-1.38048-1.00542Zm-4.0985,3.08915c-.10357-.65886.34656-1.27691,1.00542-1.38048s1.27691.34656,1.38048,1.00542-.34658,1.27691-1.00542,1.38048-1.27691-.34658-1.38048-1.00542Z"/>
      <circle class="cls-1" cx="27.70514" cy="37.734" r="1.2076"/>
      <circle class="cls-1" cx="23.60665" cy="40.82315" r="1.2076"/>
      <circle class="cls-1" cx="29.55446" cy="41.72179" r="1.2076"/>
      <path class="cls-2" d="m39.08627,16.89576c.22963.0934.43463.21795.60412.37458.71391.65725.50471,1.61371-.46577,2.13704-10.29519,5.54792-21.45913,3.01673-21.92949,2.90595-1.12766-.26898-1.69794-1.12551-1.2767-1.92235.42194-.79477,1.67591-1.22605,2.80077-.96537.38637.08915,9.4733,2.09944,17.82221-2.39862.74108-.3983,1.7115-.42951,2.44485-.13123Z"/>
      <path class="cls-5" d="m28.89028,49.84817c-3.65199,0-7.95076-.7531-12.30343-3.19237-.63636-.35669-.86322-1.16177-.50652-1.79822.35669-.63626,1.16168-.86313,1.79822-.50652,9.94524,5.57341,19.9126,1.1766,20.01212,1.13145.66345-.30067,1.4465-.00737,1.74836.6558.30178.66326.0106,1.44502-.65211,1.748-.2769.12661-4.39819,1.96187-10.09664,1.96187Z"/>
      <path class="cls-5" d="m16.85666,84.59847c-.54532,0-1.05562-.3402-1.24645-.88395-1.9181-5.46569-1.04806-9.90534,2.65977-13.57273.51878-.51288,1.35527-.50827,1.86815.01032.51297.51869.50837,1.35509-.01032,1.86815-2.98873,2.95602-3.61311,6.29288-2.02471,10.81943.2416.68842-.12062,1.44235-.80904,1.68386-.14467.05077-.29238.07491-.43741.07491Z"/>
    </g>
  </g>
</svg>