<?xml version="1.0" encoding="UTF-8"?>
<svg id="uuid-9ef470ae-f359-4089-bea9-5a864370d6c6" data-name="Layer 1" xmlns="http://www.w3.org/2000/svg" viewBox="0 0 100 100">
  <defs>
    <style>
      .uuid-9c7f034c-0eab-4348-81de-42944457722d {
        fill: #f6f7f7;
      }

      .uuid-d58761a0-0d12-40ce-bae3-454da8e658d3 {
        fill: #2a2f33;
      }
    </style>
  </defs>
  <path class="uuid-9c7f034c-0eab-4348-81de-42944457722d" d="m98.84,60.68c-5.9,26.97-32.54,44.06-59.51,38.16C12.36,92.94-4.73,66.29,1.16,39.32,7.06,12.36,33.71-4.73,60.68,1.16c26.97,5.9,44.06,32.54,38.16,59.51"/>
  <path class="uuid-d58761a0-0d12-40ce-bae3-454da8e658d3" d="m90.76,35.13c-.82-.18-1.54-.72-1.91-1.54-5.01-10.98-14.13-13.19-14.52-13.28-1.47-.34-2.4-1.8-2.07-3.27.33-1.47,1.78-2.4,3.25-2.08.49.11,12.13,2.79,18.32,16.36.63,1.38.02,3.01-1.36,3.63-.56.26-1.16.31-1.72.18ZM21.1,19.9c-.56-.12-1.08-.42-1.49-.89-.99-1.15-.86-2.88.28-3.87,11.29-9.74,22.98-7.33,23.47-7.22,1.48.32,2.42,1.79,2.09,3.26s-1.78,2.41-3.25,2.1c-.42-.09-9.61-1.86-18.73,6.01-.68.59-1.56.78-2.38.6Z"/>
  <path class="uuid-d58761a0-0d12-40ce-bae3-454da8e658d3" d="m68.9,70.96c-.42-.56-1.13-.81-1.81-.64l-14.99,3.8c-7.01,1.78-23.43-1.77-23.6-1.81-.93-.2-1.86.39-2.06,1.32-.14.63.08,1.25.52,1.65h0s0,0,0,0h0c.21.19.47.33.76.4l23.68,5.18c8.98,1.96,15.43-4.36,17.59-7.99.36-.6.32-1.36-.1-1.92Z"/>
  <g>
    <path class="uuid-d58761a0-0d12-40ce-bae3-454da8e658d3" d="m97.94,43.63c-.36-.54-3.52,0-6.13-2.15-5.39-4.41-20.05-10.74-31.57-5.86-1.23.52-5.72-.33-6.96-.65-1.26-.22-5.69-1.32-6.6-2.31-8.42-9.25-24.39-9.61-31.13-7.85-3.27.85-5.91-.95-6.46-.61-.79.49-1.35,3.03-.83,3.8.51.78,3.61,2.22,3.85,4.26.24,2.05-2.21,13.28,2.14,18.3,4.08,4.7,15.2,8.28,23.3,5.75,7.07-2.2,8.49-9.77,10.62-14,.76-1.51,2.09-2.06,3.86-1.67s2.75,1.45,2.81,3.13c.17,4.73-1.69,12.21,3.81,17.16,6.31,5.67,17.91,7.06,23.58,4.49,6.05-2.74,8.52-13.98,9.58-15.74,1.06-1.76,4.49-1.78,5.28-2.27.8-.49,1.35-3.03.83-3.8Zm-55.61-2.03c-.84,2.88-2.59,8.39-6.54,9.62-2.42.75-5.38.89-8.31.25h0c-3.25-.71-7.54-2.61-9.02-4.31-1.84-2.12-1.2-9.05-.97-11.65.15-1.65.47-5.7,2.37-5.92,3.02-.34,7.1-.23,11.11.64,1.84.4,7.98,1.86,10.58,4.37,2.31,2.22,1.24,5.41.77,6.99Zm43.27,8.76c-.87,2.46-3.19,9.06-5.75,10.22-2.05.93-6.75.86-9.99.15h0c-2.93-.64-5.57-2-7.45-3.69-3.07-2.76-2.37-8.46-1.93-11.43.24-1.64.61-5.01,3.63-6.06,3.41-1.19,9.6.03,11.44.43,4.01.88,7.76,2.47,10.37,4.04,1.64.99.25,4.78-.31,6.34Z"/>
    <path class="uuid-d58761a0-0d12-40ce-bae3-454da8e658d3" d="m41.58,42.3c.09-.13.21-.22.29-.37.67-1.36.12-3-1.24-3.68-.46-.23-11.33-5.51-21.55-1.52-1.41.55-2.1,2.14-1.55,3.55.34.89,1.1,1.49,1.97,1.68.51.11,1.06.08,1.58-.13,3.35-1.31,6.91-1.28,9.91-.81-.07.2-.15.39-.2.6-.65,2.96,1.23,5.88,4.19,6.53s5.88-1.23,6.53-4.19c.12-.57.13-1.13.08-1.68Z"/>
    <path class="uuid-d58761a0-0d12-40ce-bae3-454da8e658d3" d="m84.37,51.69c.09-.13.21-.22.28-.36.68-1.36.12-3-1.24-3.68-.46-.23-11.33-5.51-21.55-1.52-1.41.55-2.11,2.14-1.55,3.55.35.89,1.11,1.49,1.97,1.68.51.11,1.06.08,1.58-.13,3.35-1.31,6.91-1.28,9.91-.81-.07.2-.15.39-.2.6-.65,2.96,1.23,5.88,4.19,6.53,2.96.65,5.88-1.23,6.53-4.19.12-.57.13-1.13.08-1.68Z"/>
  </g>
  <rect class="uuid-d58761a0-0d12-40ce-bae3-454da8e658d3" x="44.05" y="78" width="4.05" height="6.02" rx="1.42" ry="1.42" transform="translate(18.36 -7.97) rotate(12.33)"/>
</svg>