<?xml version="1.0" encoding="UTF-8"?>
<svg id="Layer_1" data-name="Layer 1" xmlns="http://www.w3.org/2000/svg" viewBox="0 0 100 100">
  <defs>
    <style>
      .cls-1 {
        fill: #fff;
      }

      .cls-2 {
        fill: #2a2f33;
      }

      .cls-3 {
        fill: #f7f7f7;
      }
    </style>
  </defs>
  <polygon class="cls-1" points="100 71.51 100 71.51 100 71.51 100 71.51"/>
  <g>
    <path class="cls-3" d="m100,50c0,27.61-22.39,50-50,50S0,77.61,0,50,22.39,0,50,0s50,22.39,50,50"/>
    <g id="ukraina_swinia">
      <path class="cls-2" d="m73.9,65.59c0,10.72-7.4,22.41-23.9,22.41s-23.9-11.68-23.9-22.41,7.4-13.44,23.9-13.44,23.9,2.72,23.9,13.44Z"/>
    </g>
    <path class="cls-2" d="m72.95,29.66c0,4.58-2.51,8.3-5.6,8.3s-5.6-3.72-5.6-8.3,2.51-8.3,5.6-8.3,5.6,3.72,5.6,8.3Zm-45.91,0c0,4.58,2.51,8.3,5.6,8.3s5.6-3.72,5.6-8.3-2.51-8.3-5.6-8.3-5.6,3.72-5.6,8.3Z"/>
    <path class="cls-2" d="m89.49,19.46c-.4-.39-2.98.65-5.6-.69-5.39-2.75-19.01-5.4-27.87.89-.95.67-4.92.78-6.03.74-1.11.05-5.08-.06-6.03-.74-8.86-6.28-22.48-3.63-27.87-.89-2.61,1.33-5.19.29-5.6.69-.58.56-.58,2.82,0,3.38.58.56,3.48,1.21,4.06,2.9.58,1.69.59,11.68,5.21,15.13,4.33,3.23,14.44,4.2,20.84.56,5.59-3.18,5.39-9.87,6.42-13.85.37-1.42,1.39-2.14,2.97-2.14s2.6.72,2.97,2.14c1.02,3.98.83,10.67,6.42,13.85,6.4,3.64,16.51,2.67,20.84-.56,4.63-3.45,4.63-13.44,5.21-15.13.58-1.69,3.48-2.34,4.06-2.9.58-.57.59-2.82,0-3.38Zm-47.57,8.6c-.18,2.6-.65,7.6-3.76,9.37-1.91,1.09-4.4,1.75-7,1.75h0c-2.89,0-6.88-.82-8.45-1.98-1.95-1.46-2.7-7.46-2.98-9.7-.18-1.43-.66-4.92.91-5.46,2.5-.85,5.98-1.51,9.54-1.51,1.63,0,7.12.1,9.79,1.75,2.37,1.45,2.05,4.36,1.95,5.79Zm38.34-.6c-.28,2.25-1.02,8.28-2.98,9.74-1.56,1.17-5.56,1.98-8.45,1.98h0c-2.61,0-5.09-.66-7.01-1.75-3.12-1.77-3.58-6.74-3.76-9.34-.1-1.43-.41-4.36,1.95-5.81,2.67-1.64,8.15-1.76,9.79-1.76,3.56,0,7.05.65,9.54,1.5,1.57.54,1.1,4.01.92,5.44Z"/>
    <g>
      <path class="cls-1" d="m59.07,54.06c-2.39-.28-5.08-.53-8.08-.57v1.88h0v10.25h3.54c2.49,0,4.54-2.04,4.54-4.54v-7.01h0s0,0,0,0Z"/>
      <path class="cls-1" d="m49.01,55.96v-2.48c-3,.05-5.7.29-8.08.57,0,0,0,0,0,0h0v7.02c0,2.49,2.04,4.54,4.54,4.54h3.55v-9.65h0Z"/>
    </g>
    <rect class="cls-2" x="47.98" y="85.37" width="4.05" height="6.02" rx="1.88" ry="1.88"/>
  </g>
</svg>