<?xml version="1.0" encoding="UTF-8"?>
<svg id="uuid-2f8924e0-d3f0-4e47-b883-70db624b857d" data-name="Layer 1" xmlns="http://www.w3.org/2000/svg" viewBox="0 0 95.6 100">
  <defs>
    <style>
      .uuid-b064aa6f-9d14-4bb0-87df-88eeafcf83ad {
        fill: #fff;
      }

      .uuid-b33507a6-7a86-4772-b99d-1abe6eefac98 {
        fill: #2a2f33;
      }

      .uuid-f563b604-22ef-4f93-922c-c15a5036e8a9 {
        fill: #f26d6e;
      }

      .uuid-7d262c7e-7b57-45fa-898f-4e17007df26c {
        fill: #f79675;
      }

      .uuid-dd87d84c-f36d-4993-96c6-ab520eca734c {
        fill: #de7153;
      }

      .uuid-e6289c45-5753-4e14-ae37-c5f63a0a9148 {
        fill: #fdf16a;
      }

      .uuid-7a140c58-0d8e-403b-ad58-70a0ebb6c010 {
        fill: #64aadd;
      }
    </style>
  </defs>
  <path class="uuid-7d262c7e-7b57-45fa-898f-4e17007df26c" d="m95.6,52.2c0,26.4-21.4,47.8-47.8,47.8S0,78.6,0,52.2,21.4,4.4,47.8,4.4s47.8,21.4,47.8,47.8"/>
  <g>
    <ellipse class="uuid-dd87d84c-f36d-4993-96c6-ab520eca734c" cx="51.2" cy="61.09" rx="2.68" ry="1.94"/>
    <ellipse class="uuid-dd87d84c-f36d-4993-96c6-ab520eca734c" cx="44.52" cy="61.09" rx="2.68" ry="1.94"/>
  </g>
  <path class="uuid-b33507a6-7a86-4772-b99d-1abe6eefac98" d="m27.91,47.78s.03-.04.05-.06c-.02.02-.03.04-.05.06Z"/>
  <g>
    <path class="uuid-b064aa6f-9d14-4bb0-87df-88eeafcf83ad" d="m26.87,38.62c-1.64,0-3.15.79-4.34,2.11-.06.07-.12.13-.18.2-.02.02-.03.04-.05.06-1.47,1.79-2.42,4.4-2.42,7.35,0,5.41,3.13,9.78,6.99,9.79.69,0,1.36-.14,2-.41.03-.01.06-.02.08-.03.02,0,.04-.02.07-.03,2.81-1.26,4.84-4.95,4.85-9.3,0-.03,0-.07,0-.1,0-.46-.05-.89-.1-1.33,0,0,.02,0,.03,0-.5-4.7-3.41-8.31-6.92-8.31Z"/>
    <path class="uuid-b064aa6f-9d14-4bb0-87df-88eeafcf83ad" d="m68.85,38.62c-3.51,0-6.41,3.61-6.92,8.31,0,0,0,0,.01,0-.03.27-.05.54-.07.82,0,.21-.02.42-.02.63,0,5.38,3.13,9.75,6.99,9.75,3.86,0,6.98-4.38,6.98-9.79,0-3.16-1.09-5.94-2.75-7.73,0,0,0,0,0,0-1.18-1.25-2.64-1.99-4.24-1.99Z"/>
  </g>
  <path class="uuid-e6289c45-5753-4e14-ae37-c5f63a0a9148" d="m82,44.48c-.8,0-1.58-.36-2.1-1.05-6.93-9.23-15.89-9.44-16.27-9.44-1.44-.02-2.61-1.2-2.6-2.64,0-1.44,1.17-2.61,2.61-2.61.48,0,11.9.13,20.45,11.54.87,1.16.63,2.8-.52,3.67-.47.35-1.02.52-1.57.52Zm-68.18,0c-.55,0-1.1-.17-1.57-.52-1.16-.87-1.39-2.51-.52-3.67,8.55-11.41,19.97-11.54,20.45-11.54,1.45,0,2.62,1.17,2.62,2.62s-1.17,2.62-2.61,2.62c-.41,0-9.36.23-16.27,9.44-.51.69-1.3,1.05-2.1,1.05Z"/>
  <g>
    <path class="uuid-f563b604-22ef-4f93-922c-c15a5036e8a9" d="m61.16,76.95c-5.85-.04-5.9,2.33-12.72,2.28-6.83-.05-6.78-2.43-12.63-2.47-1.95-.01-2.94.57-2.95,1.17-.04,1.78,4.73,7.17,15.45,7.25,10.72.08,15.71-5.23,15.75-7.01.01-.6-.95-1.2-2.9-1.21Z"/>
    <path class="uuid-f563b604-22ef-4f93-922c-c15a5036e8a9" d="m64.15,77.35c-1.94-.61-5.78-3.61-9.68-3.64-3.9-.03-3.91.56-5.86.55-1.95-.01-1.94-.61-5.84-.64-3.9-.03-7.86,2.91-9.82,3.49,0,0-1.96.62-1.99,1.77-.02,1.15,1.93,1.2,1.93,1.2,6.83.05,9.77-1.11,9.77-1.11,0,0,2.9,1.21,5.82,1.23s5.87-1.14,5.87-1.14c0,0,2.9,1.21,9.73,1.26,0,0,1.95-.02,1.97-1.17.02-1.15-1.91-1.8-1.91-1.8Z"/>
  </g>
  <path class="uuid-e6289c45-5753-4e14-ae37-c5f63a0a9148" d="m95.49,48.11c-.02-1.1-.05-2.21-.1-3.31-.09-2.06-.42-4.08-1.27-5.97-.35-.77-.25-1.73-.36-2.6-.12-.95-.2-1.91-.36-2.85-.12-.73-.35-1.43-.53-2.15-.62-2.57-1.31-5.12-1.8-7.71-.34-1.83-.46-3.68-1.43-5.34-.44-.75-.39-1.76-.59-2.75-.15-.07-.45-.2-.75-.35-3.07-1.47-5.53-3.74-8.93-4.77-1.66-.51-3.37-.94-5.1-1.29-.19-.04-.38-.07-.56-.11C53.22-6.3,33.03,1.69,25.35,5.78c-2.21.39-4.29,1.1-6.3,2.04-1.96.92-4.02,1.7-6.15,2.31-.87.25-1.38.56-1.78,1.26-1.17,2.09-2.57,4.07-3.71,6.17-1.23,2.26-2.35,4.59-3.37,6.94-.83,1.9-1.42,3.9-2.14,5.85-.3.83-.84,1.61-.89,2.48-.16,2.63-.05,5.29-.17,7.92-.08,1.68-.42,3.32-.57,4.99-.04.43-.08.87-.12,1.3-.01.15-.02.3-.04.45.88.18,1.76.36,2.64.53-.19-.19-.26-.39-.24-.62.01-.13.05-.26.11-.41,2.39-.02,3.04-.51,3.61-2.66.03-.11-.01-.26.05-.35,1.7-2.62.15-5.67.32-8.49.16-2.86.46-5.63,2.36-8.02,1.01-1.27,1.38-2.92,2.16-4.35.54-.99,1.29-1.88,1.94-2.83,1.5.93,2.1,1.88,2.07,3.14-.02.96.57,1.58,1.82,1.63.52.02,1.04.13,1.54.2.39,1.74,1.31,2.16,3.32,1.93,1.1-.12,2.32.29,3.47.25.87-.03,1.85-.22,2.52-.63,1.37-.83,2.97-1.57,3.34-3.29.74.82,1.59,1.33,2.6.74.73-.43,1.31-1.04,2-1.63.12.36.24.77.4,1.16.62,1.53,2.16,2.17,3.81,2.2,2.28.04,4.55-.28,6.81-.56.43-.05.81-.43,1.21-.65.34-.18.7-.52,1.03-.5,1.85.09,3.16-.81,4.52-1.65.28-.18.66-.38.97-.37,2.49.12,4.98.24,7.47.36.33.02.83.35.9.61.73,2.89,6.32,4.2,8.81,2.18.31-.25.84-.32,1.28-.44,1.02-.28,2.03-.59,3.07-.81.36-.08.87-.03,1.16.14,1.53.89,3.21.16,4.78-.17.41-.09.67-1.05,1.02-1.66,1.74.92,3.37,1.88,3.5,3.96.03.48.74.83.93,1.31.39,1.01.8,2.04.93,3.11.26,2.23.39,4.49.48,6.75.06,1.44-.21,2.94-.04,4.36.07.61.98,1.03,1.35,1.61.28.44.56,1.03.4,1.5-.44,1.25-.19,2.45,1.08,3.03.5.22,1.14.27,1.82.38.09.01.18.03.26.05,0,0,0,0,0,0,.6-.12,1.2-.24,1.8-.36,0-.03,0-.06,0-.08Z"/>
  <circle class="uuid-7a140c58-0d8e-403b-ad58-70a0ebb6c010" cx="68.85" cy="48.55" r="5.61"/>
  <circle class="uuid-7a140c58-0d8e-403b-ad58-70a0ebb6c010" cx="26.88" cy="48.55" r="5.61"/>
  <g>
    <path class="uuid-dd87d84c-f36d-4993-96c6-ab520eca734c" d="m75.01,83.53c-.14,0-.29-.02-.43-.07-.68-.24-1.04-.99-.8-1.67,1.35-3.84.82-6.68-1.71-9.18-.51-.51-.52-1.34-.01-1.85.51-.51,1.34-.52,1.85-.01,3.26,3.22,4.02,7.11,2.34,11.9-.19.54-.69.88-1.23.88Z"/>
    <path class="uuid-dd87d84c-f36d-4993-96c6-ab520eca734c" d="m20.66,83.56c-.54,0-1.04-.34-1.23-.88-1.68-4.79-.92-8.69,2.34-11.9.51-.51,1.34-.5,1.85.01.51.51.5,1.34-.01,1.85-2.53,2.5-3.06,5.34-1.71,9.18.24.68-.12,1.43-.8,1.67-.14.05-.29.07-.43.07Z"/>
  </g>
</svg>