<?xml version="1.0" encoding="UTF-8"?>
<svg id="uuid-81fbf045-e80b-419c-bc77-594cf3f8f821" data-name="Layer 1" xmlns="http://www.w3.org/2000/svg" viewBox="0 0 100 100">
  <defs>
    <style>
      .uuid-ac5e2ef9-58e6-42d2-ae6f-4d2def11aa9b {
        fill: #fff;
      }

      .uuid-f561842a-b101-4e2c-98f3-6c6ab2fccc3a {
        fill: #662314;
      }

      .uuid-9dca9513-9716-4d32-9b9b-a86999bd2925 {
        fill: #2a2f33;
      }

      .uuid-fa987f29-e909-4874-8269-f7d2970f4f5d {
        fill: #e95a6f;
      }

      .uuid-a884fcfa-9061-4633-afda-24079ab8c5a5 {
        fill: #b22535;
      }

      .uuid-ffd4c410-4ddd-4965-a995-6bd78ac5aead {
        fill: #3d3c6f;
      }

      .uuid-8222c547-bf86-4f44-b33c-86a12b489532 {
        fill: #eeedee;
      }
    </style>
  </defs>
  <path class="uuid-fa987f29-e909-4874-8269-f7d2970f4f5d" d="m20.15,9.88c-6.1-3.57-12.39-5.86-13.51-5.19-1.6.95-3.05,14.07-.99,23.27,3.58-6.99,8.56-13.18,14.5-18.07Zm74.19,18.07c2.06-9.2.62-22.32-.99-23.27-1.12-.66-7.42,1.63-13.52,5.19,5.95,4.9,10.92,11.09,14.5,18.07Z"/>
  <g>
    <path class="uuid-a884fcfa-9061-4633-afda-24079ab8c5a5" d="m13.92,84.62c-2.26-2.36-4.29-4.93-6.06-7.69"/>
    <path class="uuid-a884fcfa-9061-4633-afda-24079ab8c5a5" d="m50,0h0c9.8,0,18.93,2.82,26.65,7.69"/>
    <path class="uuid-a884fcfa-9061-4633-afda-24079ab8c5a5" d="m3.84,69.23c-1.03-2.47-1.87-5.04-2.49-7.69"/>
    <path class="uuid-a884fcfa-9061-4633-afda-24079ab8c5a5" d="m3.84,69.23h92.33c1.03-2.47,1.87-5.04,2.49-7.69H1.34c.63,2.65,1.46,5.22,2.49,7.69Z"/>
    <path class="uuid-a884fcfa-9061-4633-afda-24079ab8c5a5" d="m76.65,7.69C68.93,2.82,59.8,0,50,0v7.69h26.65Z"/>
    <path class="uuid-a884fcfa-9061-4633-afda-24079ab8c5a5" d="m50,100c9.8,0,18.93-2.82,26.65-7.69H23.35c7.71,4.87,16.85,7.69,26.65,7.69Z"/>
    <path class="uuid-a884fcfa-9061-4633-afda-24079ab8c5a5" d="m13.92,84.62h72.15c2.26-2.36,4.29-4.93,6.06-7.69H7.86c1.77,2.76,3.8,5.34,6.06,7.69Z"/>
    <path class="uuid-a884fcfa-9061-4633-afda-24079ab8c5a5" d="m50,53.85h49.85c.1-1.27.15-2.55.15-3.85s-.05-2.58-.15-3.85h-49.85v7.69Z"/>
    <path class="uuid-a884fcfa-9061-4633-afda-24079ab8c5a5" d="m50,38.46h48.66c-.63-2.65-1.46-5.22-2.49-7.69h-46.16v7.69Z"/>
    <path class="uuid-a884fcfa-9061-4633-afda-24079ab8c5a5" d="m86.07,15.38h-36.07v7.69h42.14"/>
    <path class="uuid-8222c547-bf86-4f44-b33c-86a12b489532" d="m76.65,7.69c3.45,2.18,6.61,4.76,9.43,7.69"/>
    <path class="uuid-8222c547-bf86-4f44-b33c-86a12b489532" d="m7.86,76.92c-1.56-2.43-2.9-5-4.03-7.69"/>
    <path class="uuid-8222c547-bf86-4f44-b33c-86a12b489532" d="m23.35,92.31c-3.45-2.18-6.61-4.76-9.43-7.69"/>
    <path class="uuid-8222c547-bf86-4f44-b33c-86a12b489532" d="m1.34,61.54c-.59-2.5-1-5.07-1.2-7.69"/>
    <path class="uuid-8222c547-bf86-4f44-b33c-86a12b489532" d="m50,46.15h49.85c-.2-2.63-.6-5.2-1.2-7.69h-48.66v7.69Z"/>
    <path class="uuid-8222c547-bf86-4f44-b33c-86a12b489532" d="m50,30.77h46.16c-1.12-2.69-2.47-5.26-4.03-7.69h-42.14v7.69Z"/>
    <path class="uuid-8222c547-bf86-4f44-b33c-86a12b489532" d="m76.65,7.69h-26.65v7.69h36.07c-2.81-2.93-5.98-5.52-9.43-7.69Z"/>
    <path class="uuid-8222c547-bf86-4f44-b33c-86a12b489532" d="m7.86,76.92h84.27c1.56-2.43,2.9-5,4.03-7.69H3.84c1.12,2.69,2.47,5.26,4.03,7.69Z"/>
    <path class="uuid-8222c547-bf86-4f44-b33c-86a12b489532" d="m.15,53.85c.2,2.63.61,5.2,1.2,7.69h97.32c.59-2.5,1-5.07,1.2-7.69H.15Z"/>
    <path class="uuid-8222c547-bf86-4f44-b33c-86a12b489532" d="m23.35,92.31h53.3c3.45-2.18,6.61-4.76,9.43-7.69H13.92c2.81,2.93,5.98,5.52,9.43,7.69Z"/>
    <path class="uuid-ffd4c410-4ddd-4965-a995-6bd78ac5aead" d="m7.51,23.65c-.45.73-.89,1.47-1.3,2.22h.58l.72-2.22Z"/>
    <path class="uuid-ffd4c410-4ddd-4965-a995-6bd78ac5aead" d="m50,46.15V0h0C40.11,0,30.88,2.88,23.12,7.84l.86,2.65h2.94l-2.38,1.73.91,2.79-2.38-1.72-2.37,1.72.91-2.79-2.31-1.68c-4.54,3.54-8.46,7.84-11.55,12.72l.85,2.61h2.94l-2.38,1.73.91,2.79-2.38-1.72-2.37,1.72.91-2.79-.68-.5c-1.07,2.07-2,4.23-2.77,6.46h1.07l-1.42,1.03c-.2.62-.39,1.25-.57,1.88l.52,1.6-.8-.58c-1.03,4-1.58,8.19-1.58,12.5,0,1.29.05,2.58.15,3.85h49.85v-7.69Zm-39.93-.38l-2.38-1.72-2.37,1.72.91-2.79-2.38-1.73h2.94l.9-2.79.91,2.79h2.94l-2.38,1.73.91,2.79Zm7.69-7.69l-2.38-1.72-2.37,1.72.91-2.79-2.38-1.73h2.94l.9-2.79.91,2.79h2.94l-2.38,1.73.91,2.79Zm-.91-18.17l.91,2.79-2.38-1.72-2.37,1.72.91-2.79-2.38-1.73h2.94l.9-2.79.91,2.79h2.94l-2.38,1.73Zm8.6,25.87l-2.38-1.72-2.37,1.72.91-2.79-2.38-1.73h2.94l.9-2.79.91,2.79h2.94l-2.38,1.73.91,2.79Zm-.91-18.17l.91,2.79-2.38-1.72-2.37,1.72.91-2.79-2.38-1.73h2.94l.9-2.79.91,2.79h2.94l-2.38,1.73Zm8.6,10.48l-2.38-1.72-2.37,1.72.91-2.79-2.38-1.73h2.94l.9-2.79.91,2.79h2.94l-2.38,1.73.91,2.79Zm-.91-18.17l.91,2.79-2.38-1.72-2.37,1.72.91-2.79-2.38-1.73h2.94l.9-2.79.91,2.79h2.94l-2.38,1.73Zm8.6,25.87l-2.38-1.72-2.37,1.72.91-2.79-2.38-1.73h2.94l.9-2.79.91,2.79h2.94l-2.38,1.73.91,2.79Zm-.91-18.17l.91,2.79-2.38-1.72-2.37,1.72.91-2.79-2.38-1.73h2.94l.9-2.79.91,2.79h2.94l-2.38,1.73Zm0-15.38l.91,2.79-2.38-1.72-2.37,1.72.91-2.79-2.38-1.73h2.94l.9-2.79.91,2.79h2.94l-2.38,1.73Z"/>
    <path class="uuid-ffd4c410-4ddd-4965-a995-6bd78ac5aead" d="m23.01,7.91c-1.25.8-2.46,1.66-3.64,2.57h2.8l.83-2.57Z"/>
    <path class="uuid-ac5e2ef9-58e6-42d2-ae6f-4d2def11aa9b" d="m7.69,23.08l-.19.57c.08-.13.16-.26.24-.39l-.06-.18Z"/>
    <polygon class="uuid-ac5e2ef9-58e6-42d2-ae6f-4d2def11aa9b" points="30.77 15.38 29.86 18.18 26.93 18.18 29.3 19.9 28.39 22.69 30.77 20.97 33.14 22.69 32.24 19.9 34.61 18.18 31.68 18.18 30.77 15.38"/>
    <path class="uuid-ac5e2ef9-58e6-42d2-ae6f-4d2def11aa9b" d="m5.32,30.39l2.37-1.72,2.38,1.72-.91-2.79,2.38-1.73h-2.94l-.85-2.61c-.08.13-.16.26-.24.39l-.72,2.22h-.58c-.22.41-.45.82-.66,1.23l.68.5-.91,2.79Z"/>
    <polygon class="uuid-ac5e2ef9-58e6-42d2-ae6f-4d2def11aa9b" points="16.29 33.56 15.38 30.77 14.48 33.56 11.54 33.56 13.92 35.29 13.01 38.08 15.38 36.35 17.76 38.08 16.85 35.29 19.23 33.56 16.29 33.56"/>
    <polygon class="uuid-ac5e2ef9-58e6-42d2-ae6f-4d2def11aa9b" points="15.38 15.38 14.48 18.18 11.54 18.18 13.92 19.9 13.01 22.69 15.38 20.97 17.76 22.69 16.85 19.9 19.23 18.18 16.29 18.18 15.38 15.38"/>
    <polygon class="uuid-ac5e2ef9-58e6-42d2-ae6f-4d2def11aa9b" points="8.6 41.25 7.69 38.46 6.79 41.25 3.85 41.25 6.23 42.98 5.32 45.77 7.69 44.05 10.07 45.77 9.16 42.98 11.54 41.25 8.6 41.25"/>
    <polygon class="uuid-ac5e2ef9-58e6-42d2-ae6f-4d2def11aa9b" points="23.08 23.08 22.17 25.87 19.23 25.87 21.61 27.6 20.7 30.39 23.08 28.66 25.45 30.39 24.54 27.6 26.92 25.87 23.98 25.87 23.08 23.08"/>
    <polygon class="uuid-ac5e2ef9-58e6-42d2-ae6f-4d2def11aa9b" points="23.98 41.25 23.08 38.46 22.17 41.25 19.23 41.25 21.61 42.98 20.7 45.77 23.08 44.05 25.45 45.77 24.54 42.98 26.92 41.25 23.98 41.25"/>
    <polygon class="uuid-ac5e2ef9-58e6-42d2-ae6f-4d2def11aa9b" points="39.37 41.25 38.46 38.46 37.56 41.25 34.62 41.25 37 42.98 36.09 45.77 38.46 44.05 40.84 45.77 39.93 42.98 42.31 41.25 39.37 41.25"/>
    <path class="uuid-ac5e2ef9-58e6-42d2-ae6f-4d2def11aa9b" d="m20.7,15l2.37-1.72,2.38,1.72-.91-2.79,2.38-1.73h-2.94l-.86-2.65s-.08.05-.12.07l-.83,2.57h-2.8s-.04.03-.07.05l2.31,1.68-.91,2.79Z"/>
    <path class="uuid-ac5e2ef9-58e6-42d2-ae6f-4d2def11aa9b" d="m1.85,36.47c-.1.34-.19.68-.28,1.02l.8.58-.52-1.6Z"/>
    <polygon class="uuid-ac5e2ef9-58e6-42d2-ae6f-4d2def11aa9b" points="38.46 7.69 37.56 10.48 34.62 10.48 37 12.21 36.09 15 38.46 13.28 40.84 15 39.93 12.21 42.31 10.48 39.37 10.48 38.46 7.69"/>
    <path class="uuid-ac5e2ef9-58e6-42d2-ae6f-4d2def11aa9b" d="m3.84,33.56h-1.07c-.12.34-.23.69-.35,1.03l1.42-1.03Z"/>
    <polygon class="uuid-ac5e2ef9-58e6-42d2-ae6f-4d2def11aa9b" points="38.46 23.08 37.56 25.87 34.62 25.87 37 27.6 36.09 30.39 38.46 28.66 40.84 30.39 39.93 27.6 42.31 25.87 39.37 25.87 38.46 23.08"/>
    <polygon class="uuid-ac5e2ef9-58e6-42d2-ae6f-4d2def11aa9b" points="31.68 33.56 30.77 30.77 29.86 33.56 26.93 33.56 29.3 35.29 28.39 38.08 30.77 36.35 33.14 38.08 32.24 35.29 34.61 33.56 31.68 33.56"/>
  </g>
  <path class="uuid-fa987f29-e909-4874-8269-f7d2970f4f5d" d="m78.1,57.8c0,12.63-8.72,26.39-28.15,26.39s-28.15-13.76-28.15-26.39,8.72-15.83,28.15-15.83,28.15,3.2,28.15,15.83Z"/>
  <path class="uuid-f561842a-b101-4e2c-98f3-6c6ab2fccc3a" d="m41.5,61.95c0,5.23-.96,6.76-4.22,6.76s-4.22-1.53-4.22-6.76.96-6.75,4.22-6.75,4.22,1.53,4.22,6.75Zm25.34,0c0,5.23-.96,6.76-4.22,6.76s-4.22-1.53-4.22-6.76.96-6.75,4.22-6.75,4.22,1.53,4.22,6.75Z"/>
  <circle class="uuid-9dca9513-9716-4d32-9b9b-a86999bd2925" cx="18.98" cy="40.55" r="5.63"/>
  <circle class="uuid-9dca9513-9716-4d32-9b9b-a86999bd2925" cx="80.91" cy="40.55" r="5.63"/>
</svg>